G04 Generated by Ultiboard 14.3 *
%FSLAX35Y35*%
%MOMM*%

%ADD10C,0.00001*%
%ADD11C,0.12700*%
%ADD12C,0.00127*%


G04 ColorRGB FF14FF for the following layer *
%LNSilkscreen Bottom*%
%LPD*%
G54D10*
G54D11*
X-25400Y-25400D02*
X-25400Y1503680D01*
X-25400Y-25400D02*
X2265680Y-25400D01*
X22885400Y-25400D02*
X20594320Y-25400D01*
X22885400Y-25400D02*
X22885400Y1503680D01*
X22885400Y15265400D02*
X22885400Y13736320D01*
X22885400Y15265400D02*
X20594320Y15265400D01*
X-25400Y15265400D02*
X2265680Y15265400D01*
X-25400Y15265400D02*
X-25400Y13736320D01*
X-525400Y-25400D02*
X-1525400Y-25400D01*
X-1025400Y-525400D02*
X-1025400Y474600D01*
X-1400400Y-25400D02*
G75*
D01*
G02X-1400400Y-25400I375000J0*
G01*
X23385400Y-25400D02*
X24385400Y-25400D01*
X23885400Y-525400D02*
X23885400Y474600D01*
X23510400Y-25400D02*
G75*
D01*
G02X23510400Y-25400I375000J0*
G01*
X23760400Y-25400D02*
G75*
D01*
G02X23760400Y-25400I125000J0*
G01*
X-525400Y15265400D02*
X-1525400Y15265400D01*
X-1025400Y14765400D02*
X-1025400Y15765400D01*
X-1400400Y15265400D02*
G75*
D01*
G02X-1400400Y15265400I375000J0*
G01*
X-1275400Y15265400D02*
G75*
D01*
G02X-1275400Y15265400I250000J0*
G01*
X-1150400Y15265400D02*
G75*
D01*
G02X-1150400Y15265400I125000J0*
G01*
X-25400Y-25400D02*
X-25400Y1503680D01*
X-25400Y-25400D02*
X2265680Y-25400D01*
X22885400Y-25400D02*
X20594320Y-25400D01*
X22885400Y-25400D02*
X22885400Y1503680D01*
X22885400Y15265400D02*
X22885400Y13736320D01*
X22885400Y15265400D02*
X20594320Y15265400D01*
X-25400Y15265400D02*
X2265680Y15265400D01*
X-25400Y15265400D02*
X-25400Y13736320D01*
X-525400Y-25400D02*
X-1525400Y-25400D01*
X-1025400Y-525400D02*
X-1025400Y474600D01*
X-1400400Y-25400D02*
G75*
D01*
G02X-1400400Y-25400I375000J0*
G01*
X23385400Y-25400D02*
X24385400Y-25400D01*
X23885400Y-525400D02*
X23885400Y474600D01*
X23510400Y-25400D02*
G75*
D01*
G02X23510400Y-25400I375000J0*
G01*
X23760400Y-25400D02*
G75*
D01*
G02X23760400Y-25400I125000J0*
G01*
X-525400Y15265400D02*
X-1525400Y15265400D01*
X-1025400Y14765400D02*
X-1025400Y15765400D01*
X-1400400Y15265400D02*
G75*
D01*
G02X-1400400Y15265400I375000J0*
G01*
X-1275400Y15265400D02*
G75*
D01*
G02X-1275400Y15265400I250000J0*
G01*
X-1150400Y15265400D02*
G75*
D01*
G02X-1150400Y15265400I125000J0*
G01*
G54D12*
X0Y0D02*
X22860000Y0D01*
X22860000Y15240000D01*
X0Y15240000D01*
X0Y0D01*

M02*
