G04 Generated by Ultiboard 14.3 *
%FSLAX35Y35*%
%MOMM*%

%ADD10C,0.00001*%
%ADD11C,1.20000*%
%ADD12C,1.40000*%
%ADD13C,1.00000*%
%ADD14C,0.80000*%
%ADD15C,0.60000*%


G04 ColorRGB 000000 for the following layer *
%LNDrill-Copper Top-Copper Bottom*%
%LPD*%
G54D11*
X12192000Y508000D03*
X12446000Y508000D03*
X12700000Y508000D03*
X11938000Y508000D03*
X21844000Y1270000D03*
X21844000Y1778000D03*
X21844000Y4064000D03*
X21844000Y4572000D03*
X21844000Y6858000D03*
X21844000Y7366000D03*
X21844000Y9652000D03*
X21844000Y10160000D03*
X508000Y1778000D03*
X508000Y1524000D03*
X508000Y2032000D03*
X508000Y4699000D03*
X508000Y4445000D03*
X508000Y4191000D03*
X508000Y4953000D03*
X11430000Y889000D03*
X11684000Y889000D03*
X11938000Y889000D03*
X12192000Y889000D03*
X12446000Y889000D03*
X11430000Y2159000D03*
X11684000Y2159000D03*
X11938000Y2159000D03*
X12192000Y2159000D03*
X12446000Y2159000D03*
X12700000Y2159000D03*
X12700000Y889000D03*
X13208000Y14478000D03*
X13716000Y14478000D03*
X14224000Y14478000D03*
X7620000Y14478000D03*
X7366000Y14478000D03*
X7874000Y14478000D03*
X8636000Y14478000D03*
X8382000Y14478000D03*
X8890000Y14478000D03*
X9652000Y14478000D03*
X9398000Y14478000D03*
X9906000Y14478000D03*
X10668000Y14478000D03*
X10414000Y14478000D03*
X10922000Y14478000D03*
X11684000Y14478000D03*
X11430000Y14478000D03*
X11938000Y14478000D03*
X18034000Y14478000D03*
X18542000Y14478000D03*
X19050000Y14478000D03*
X19812000Y14478000D03*
X20320000Y14478000D03*
X20828000Y14478000D03*
X8382000Y508000D03*
X6604000Y508000D03*
X7620000Y508000D03*
X7112000Y508000D03*
X6858000Y508000D03*
X7366000Y508000D03*
X7874000Y508000D03*
X8128000Y508000D03*
X8636000Y508000D03*
G54D12*
X17036500Y1016000D03*
X18796000Y1016000D03*
X19304000Y1016000D03*
X21063500Y1016000D03*
X17018000Y3810000D03*
X18777500Y3810000D03*
X19304000Y3810000D03*
X21063500Y3810000D03*
X17018000Y6604000D03*
X18777500Y6604000D03*
X19304000Y6604000D03*
X21063500Y6604000D03*
X17018000Y9398000D03*
X18777500Y9398000D03*
X19304000Y9398000D03*
X21063500Y9398000D03*
G54D13*
X15494000Y2482500D03*
X15494000Y762000D03*
X19050000Y2286000D03*
X19304000Y2286000D03*
X18796000Y2286000D03*
X15494000Y5080000D03*
X15494000Y3359500D03*
X19050000Y5080000D03*
X19304000Y5080000D03*
X18796000Y5080000D03*
X15494000Y7874000D03*
X15494000Y6153500D03*
X19050000Y7874000D03*
X19304000Y7874000D03*
X18796000Y7874000D03*
X15494000Y10414000D03*
X15494000Y8693500D03*
X19050000Y10668000D03*
X19304000Y10668000D03*
X18796000Y10668000D03*
X9652000Y508000D03*
X9652000Y762000D03*
X10160000Y508000D03*
X10160000Y762000D03*
X9906000Y508000D03*
X9906000Y762000D03*
X9144000Y762000D03*
X9144000Y508000D03*
X9398000Y508000D03*
X9398000Y762000D03*
X12446000Y13208000D03*
X12700000Y13208000D03*
X12192000Y13208000D03*
X14986000Y13208000D03*
X15240000Y13208000D03*
X14732000Y13208000D03*
X18034000Y11430000D03*
X20828000Y11430000D03*
G54D14*
X15999555Y2027018D03*
X15999555Y1011018D03*
X16510000Y1016000D03*
X16510000Y2032000D03*
X14224000Y1778000D03*
X14224000Y1524000D03*
X14224000Y1270000D03*
X14986000Y1270000D03*
X14986000Y1524000D03*
X14986000Y1778000D03*
X16002000Y4572000D03*
X16002000Y3556000D03*
X16510000Y3556000D03*
X16510000Y4572000D03*
X14224000Y4318000D03*
X14224000Y4064000D03*
X14224000Y3810000D03*
X14986000Y3810000D03*
X14986000Y4064000D03*
X14986000Y4318000D03*
X16002000Y7366000D03*
X16002000Y6350000D03*
X16510000Y6350000D03*
X16510000Y7366000D03*
X14224000Y7112000D03*
X14224000Y6858000D03*
X14224000Y6604000D03*
X14986000Y6604000D03*
X14986000Y6858000D03*
X14986000Y7112000D03*
X14224000Y9652000D03*
X14224000Y9398000D03*
X14224000Y9144000D03*
X14986000Y9144000D03*
X14986000Y9398000D03*
X14986000Y9652000D03*
X16002000Y10160000D03*
X16002000Y9144000D03*
X16510000Y9144000D03*
X16510000Y10160000D03*
X2540000Y2032000D03*
X2540000Y1524000D03*
X1778000Y2286000D03*
X1778000Y1270000D03*
X1143000Y1524000D03*
X1143000Y2032000D03*
X3556000Y1397000D03*
X3810000Y1397000D03*
X4064000Y1397000D03*
X3302000Y2159000D03*
X3556000Y2159000D03*
X3810000Y2159000D03*
X4064000Y2159000D03*
X3302000Y1397000D03*
X8890000Y4318000D03*
X8128000Y4318000D03*
X7874000Y4318000D03*
X7620000Y4318000D03*
X8636000Y4318000D03*
X8382000Y4318000D03*
X10414000Y4318000D03*
X9652000Y4318000D03*
X9398000Y4318000D03*
X9144000Y4318000D03*
X9906000Y4318000D03*
X10160000Y4318000D03*
X11176000Y4318000D03*
X10668000Y4318000D03*
X10922000Y4318000D03*
X11938000Y4318000D03*
X11430000Y4318000D03*
X11684000Y4318000D03*
X12192000Y4318000D03*
X12446000Y4318000D03*
X8890000Y5842000D03*
X8128000Y5842000D03*
X7874000Y5842000D03*
X8636000Y5842000D03*
X8382000Y5842000D03*
X10414000Y5842000D03*
X9652000Y5842000D03*
X9398000Y5842000D03*
X9144000Y5842000D03*
X10160000Y5842000D03*
X9906000Y5842000D03*
X11176000Y5842000D03*
X10922000Y5842000D03*
X10668000Y5842000D03*
X11938000Y5842000D03*
X11684000Y5842000D03*
X11430000Y5842000D03*
X12192000Y5842000D03*
X12446000Y5842000D03*
X7620000Y5842000D03*
X7239000Y4953000D03*
X7239000Y5461000D03*
X4191000Y3048000D03*
X3175000Y3048000D03*
X3175000Y3429000D03*
X4191000Y3429000D03*
X4826000Y3429000D03*
X5842000Y3429000D03*
X3556000Y4064000D03*
X3810000Y4064000D03*
X4064000Y4064000D03*
X3302000Y4826000D03*
X3556000Y4826000D03*
X3810000Y4826000D03*
X4064000Y4826000D03*
X3302000Y4064000D03*
X5207000Y4064000D03*
X5461000Y4064000D03*
X5715000Y4064000D03*
X4953000Y4826000D03*
X5207000Y4826000D03*
X5461000Y4826000D03*
X5715000Y4826000D03*
X4953000Y4064000D03*
X2032000Y4699000D03*
X2032000Y4191000D03*
X1778000Y4445000D03*
X1143000Y4699000D03*
X1143000Y4191000D03*
X2794000Y4699000D03*
X2794000Y4191000D03*
X4572000Y4699000D03*
X4572000Y4191000D03*
X5080000Y5588000D03*
X5080000Y6096000D03*
X5334000Y5842000D03*
X4191000Y5842000D03*
X3175000Y5842000D03*
X2540000Y8128000D03*
X2794000Y8128000D03*
X3048000Y8128000D03*
X3302000Y8128000D03*
X3556000Y8128000D03*
X3810000Y8128000D03*
X4064000Y8128000D03*
X4318000Y8128000D03*
X4572000Y8128000D03*
X4826000Y8128000D03*
X2794000Y8890000D03*
X3048000Y8890000D03*
X3302000Y8890000D03*
X3556000Y8890000D03*
X3810000Y8890000D03*
X4064000Y8890000D03*
X4318000Y8890000D03*
X4572000Y8890000D03*
X4826000Y8890000D03*
X2540000Y8890000D03*
X2032000Y8763000D03*
X2032000Y8255000D03*
X2540000Y12192000D03*
X2794000Y12192000D03*
X3048000Y12192000D03*
X3302000Y12192000D03*
X3556000Y12192000D03*
X3810000Y12192000D03*
X4064000Y12192000D03*
X4318000Y12192000D03*
X4572000Y12192000D03*
X4826000Y12192000D03*
X2794000Y12954000D03*
X3048000Y12954000D03*
X3302000Y12954000D03*
X3556000Y12954000D03*
X3810000Y12954000D03*
X4064000Y12954000D03*
X4318000Y12954000D03*
X4572000Y12954000D03*
X4826000Y12954000D03*
X2540000Y12954000D03*
X2032000Y12827000D03*
X2032000Y12319000D03*
X5080000Y1778000D03*
X5080000Y1270000D03*
X4826000Y1524000D03*
X12446000Y12446000D03*
X12192000Y12446000D03*
X14986000Y12446000D03*
X14732000Y12446000D03*
X13335000Y12446000D03*
X12827000Y12446000D03*
X15875000Y12446000D03*
X15367000Y12446000D03*
X14097000Y10160000D03*
X13081000Y10160000D03*
X14097000Y7620000D03*
X13081000Y7620000D03*
X14097000Y4826000D03*
X13081000Y4826000D03*
X5842000Y3048000D03*
X4826000Y3048000D03*
X14097000Y2286000D03*
X13081000Y2286000D03*
X1524000Y12827000D03*
X1524000Y12319000D03*
X1524000Y8763000D03*
X1524000Y8255000D03*
X2286000Y11684000D03*
X3302000Y11684000D03*
X2286000Y7620000D03*
X3302000Y7620000D03*
X3048000Y5461000D03*
X4064000Y5461000D03*
G54D15*
X3302000Y1016000D03*
X2794000Y762000D03*
X2794000Y1270000D03*
X4318000Y1651000D03*
X5461000Y3683000D03*
X3810000Y3810000D03*
X762000Y4445000D03*
X762000Y5080000D03*
X4064000Y5080000D03*
X10160000Y1270000D03*
X7874000Y1524000D03*
X7620000Y2032000D03*
X13843000Y1778000D03*
X10922000Y1016000D03*
X6604000Y1016000D03*
X11430000Y7112000D03*
X9652000Y7366000D03*
X9398000Y7620000D03*
X9144000Y7874000D03*
X8890000Y8128000D03*
X8636000Y8382000D03*
X8382000Y8636000D03*
X5334000Y8890000D03*
X8128000Y8890000D03*
X5588000Y9144000D03*
X7874000Y9144000D03*
X5842000Y9398000D03*
X6096000Y9652000D03*
X6350000Y9906000D03*
X6604000Y10160000D03*
X6858000Y10414000D03*
X7112000Y10668000D03*
X3810000Y11684000D03*
X7620000Y12446000D03*
X7366000Y12700000D03*
X5334000Y12954000D03*
X5588000Y13208000D03*
X5842000Y13462000D03*
X6096000Y13716000D03*
X6350000Y13970000D03*
X6604000Y14224000D03*
X6858000Y14478000D03*
X1016000Y13208000D03*
X1016000Y9144000D03*
X5080000Y889000D03*
X3683000Y2540000D03*
X1778000Y6858000D03*
X1778000Y5969000D03*
X14605000Y3302000D03*
X13843000Y6604000D03*
X7620000Y6604000D03*
X7874000Y3937000D03*
X10922000Y3175000D03*
X11430000Y3175000D03*
X12446000Y3175000D03*
X12446000Y3556000D03*
X5969000Y5334000D03*
X13462000Y7112000D03*
X5842000Y6604000D03*
X3556000Y6604000D03*
X2540000Y6604000D03*
X7366000Y10160000D03*
X7620000Y10414000D03*
X10668000Y9779000D03*
X14605000Y8382000D03*
X12700000Y6096000D03*
X12700000Y9398000D03*
X11684000Y4064000D03*
X10414000Y3810000D03*
X13208000Y4064000D03*
X9906000Y11176000D03*
X11049000Y11176000D03*
X12954000Y11176000D03*
X13462000Y11684000D03*
X15875000Y11684000D03*
X8890000Y10668000D03*
X8890000Y13970000D03*
X9906000Y13970000D03*
X10922000Y13970000D03*
X11938000Y13970000D03*
X9906000Y6350000D03*
X9398000Y8890000D03*
X8890000Y9779000D03*
X8763000Y8890000D03*
X8128000Y9779000D03*
X8128000Y10668000D03*
X7874000Y13970000D03*
X7112000Y14732000D03*
X4572000Y11684000D03*
X7493000Y3937000D03*
X11303000Y7493000D03*
X10922000Y7493000D03*
X10541000Y7493000D03*
X11557000Y8636000D03*
X12319000Y8636000D03*
X11938000Y8636000D03*
X8890000Y1270000D03*
X9652000Y2286000D03*
X8382000Y2286000D03*
X2540000Y7112000D03*
X8128000Y1778000D03*
X1778000Y2032000D03*
X4572000Y7747000D03*
X4572000Y4191000D03*

M02*
