G04 Generated by Ultiboard 14.3 *
%FSLAX35Y35*%
%MOMM*%

%ADD10C,0.00001*%
%ADD11C,0.00100*%
%ADD12C,0.76200*%
%ADD13C,1.01600*%
%ADD14C,1.27000*%
%ADD15C,0.12700*%
%ADD16C,0.00127*%
%ADD17C,0.99492*%
%ADD18C,0.76200*%
%ADD19C,1.82880*%
%ADD20C,1.01600*%
%ADD21C,1.90500*%
%ADD22R,2.54000X2.54000*%
%ADD23C,2.54000*%
%ADD24R,2.15900X2.15900*%
%ADD25C,2.15900*%
%ADD26C,1.82880*%
%ADD27R,1.82880X1.82880*%
%ADD28C,1.00000*%


G04 ColorRGB 0000FF for the following layer *
%LNCopper Bottom*%
%LPD*%
G54D10*
G54D11*
G36*
X12604750Y462496D02*
X12604750Y553504D01*
X12795250Y553504D01*
X12795250Y462496D01*
X12604750Y462496D01*
G37*
G36*
X12654496Y412750D02*
X12654496Y603250D01*
X12745504Y603250D01*
X12745504Y412750D01*
X12654496Y412750D01*
G37*
G36*
X14122400Y1724660D02*
X14122400Y1831340D01*
X14325600Y1831340D01*
X14325600Y1724660D01*
X14122400Y1724660D01*
G37*
G36*
X14160500Y1686560D02*
X14160500Y1869440D01*
X14287500Y1869440D01*
X14287500Y1686560D01*
X14160500Y1686560D01*
G37*
G36*
X14213840Y1432560D02*
X14213840Y1615440D01*
X14234160Y1615440D01*
X14234160Y1432560D01*
X14213840Y1432560D01*
G37*
G36*
X14213840Y1178560D02*
X14213840Y1361440D01*
X14234160Y1361440D01*
X14234160Y1178560D01*
X14213840Y1178560D01*
G37*
G36*
X14975840Y1178560D02*
X14975840Y1361440D01*
X14996160Y1361440D01*
X14996160Y1178560D01*
X14975840Y1178560D01*
G37*
G36*
X14975840Y1432560D02*
X14975840Y1615440D01*
X14996160Y1615440D01*
X14996160Y1432560D01*
X14975840Y1432560D01*
G37*
G36*
X14975840Y1686560D02*
X14975840Y1869440D01*
X14996160Y1869440D01*
X14996160Y1686560D01*
X14975840Y1686560D01*
G37*
G36*
X21717000Y1701800D02*
X21717000Y1854200D01*
X21971000Y1854200D01*
X21971000Y1701800D01*
X21717000Y1701800D01*
G37*
G36*
X21767800Y1651000D02*
X21767800Y1905000D01*
X21920200Y1905000D01*
X21920200Y1651000D01*
X21767800Y1651000D01*
G37*
G36*
X18958560Y2263140D02*
X18958560Y2308860D01*
X19141440Y2308860D01*
X19141440Y2263140D01*
X18958560Y2263140D01*
G37*
G36*
X19212560Y2263140D02*
X19212560Y2308860D01*
X19395440Y2308860D01*
X19395440Y2263140D01*
X19212560Y2263140D01*
G37*
G36*
X18704560Y2209800D02*
X18704560Y2362200D01*
X18887440Y2362200D01*
X18887440Y2209800D01*
X18704560Y2209800D01*
G37*
G36*
X18742660Y2171700D02*
X18742660Y2400300D01*
X18849340Y2400300D01*
X18849340Y2171700D01*
X18742660Y2171700D01*
G37*
G36*
X14122400Y4264660D02*
X14122400Y4371340D01*
X14325600Y4371340D01*
X14325600Y4264660D01*
X14122400Y4264660D01*
G37*
G36*
X14160500Y4226560D02*
X14160500Y4409440D01*
X14287500Y4409440D01*
X14287500Y4226560D01*
X14160500Y4226560D01*
G37*
G36*
X14213840Y3972560D02*
X14213840Y4155440D01*
X14234160Y4155440D01*
X14234160Y3972560D01*
X14213840Y3972560D01*
G37*
G36*
X14213840Y3718560D02*
X14213840Y3901440D01*
X14234160Y3901440D01*
X14234160Y3718560D01*
X14213840Y3718560D01*
G37*
G36*
X14975840Y3718560D02*
X14975840Y3901440D01*
X14996160Y3901440D01*
X14996160Y3718560D01*
X14975840Y3718560D01*
G37*
G36*
X14975840Y3972560D02*
X14975840Y4155440D01*
X14996160Y4155440D01*
X14996160Y3972560D01*
X14975840Y3972560D01*
G37*
G36*
X14975840Y4226560D02*
X14975840Y4409440D01*
X14996160Y4409440D01*
X14996160Y4226560D01*
X14975840Y4226560D01*
G37*
G36*
X21717000Y4495800D02*
X21717000Y4648200D01*
X21971000Y4648200D01*
X21971000Y4495800D01*
X21717000Y4495800D01*
G37*
G36*
X21767800Y4445000D02*
X21767800Y4699000D01*
X21920200Y4699000D01*
X21920200Y4445000D01*
X21767800Y4445000D01*
G37*
G36*
X18958560Y5057140D02*
X18958560Y5102860D01*
X19141440Y5102860D01*
X19141440Y5057140D01*
X18958560Y5057140D01*
G37*
G36*
X19212560Y5057140D02*
X19212560Y5102860D01*
X19395440Y5102860D01*
X19395440Y5057140D01*
X19212560Y5057140D01*
G37*
G36*
X18704560Y5003800D02*
X18704560Y5156200D01*
X18887440Y5156200D01*
X18887440Y5003800D01*
X18704560Y5003800D01*
G37*
G36*
X18742660Y4965700D02*
X18742660Y5194300D01*
X18849340Y5194300D01*
X18849340Y4965700D01*
X18742660Y4965700D01*
G37*
G36*
X14122400Y7058660D02*
X14122400Y7165340D01*
X14325600Y7165340D01*
X14325600Y7058660D01*
X14122400Y7058660D01*
G37*
G36*
X14160500Y7020560D02*
X14160500Y7203440D01*
X14287500Y7203440D01*
X14287500Y7020560D01*
X14160500Y7020560D01*
G37*
G36*
X14213840Y6766560D02*
X14213840Y6949440D01*
X14234160Y6949440D01*
X14234160Y6766560D01*
X14213840Y6766560D01*
G37*
G36*
X14213840Y6512560D02*
X14213840Y6695440D01*
X14234160Y6695440D01*
X14234160Y6512560D01*
X14213840Y6512560D01*
G37*
G36*
X14975840Y6512560D02*
X14975840Y6695440D01*
X14996160Y6695440D01*
X14996160Y6512560D01*
X14975840Y6512560D01*
G37*
G36*
X14975840Y6766560D02*
X14975840Y6949440D01*
X14996160Y6949440D01*
X14996160Y6766560D01*
X14975840Y6766560D01*
G37*
G36*
X14975840Y7020560D02*
X14975840Y7203440D01*
X14996160Y7203440D01*
X14996160Y7020560D01*
X14975840Y7020560D01*
G37*
G36*
X21717000Y7289800D02*
X21717000Y7442200D01*
X21971000Y7442200D01*
X21971000Y7289800D01*
X21717000Y7289800D01*
G37*
G36*
X21767800Y7239000D02*
X21767800Y7493000D01*
X21920200Y7493000D01*
X21920200Y7239000D01*
X21767800Y7239000D01*
G37*
G36*
X18958560Y7851140D02*
X18958560Y7896860D01*
X19141440Y7896860D01*
X19141440Y7851140D01*
X18958560Y7851140D01*
G37*
G36*
X19212560Y7851140D02*
X19212560Y7896860D01*
X19395440Y7896860D01*
X19395440Y7851140D01*
X19212560Y7851140D01*
G37*
G36*
X18704560Y7797800D02*
X18704560Y7950200D01*
X18887440Y7950200D01*
X18887440Y7797800D01*
X18704560Y7797800D01*
G37*
G36*
X18742660Y7759700D02*
X18742660Y7988300D01*
X18849340Y7988300D01*
X18849340Y7759700D01*
X18742660Y7759700D01*
G37*
G36*
X14122400Y9598660D02*
X14122400Y9705340D01*
X14325600Y9705340D01*
X14325600Y9598660D01*
X14122400Y9598660D01*
G37*
G36*
X14160500Y9560560D02*
X14160500Y9743440D01*
X14287500Y9743440D01*
X14287500Y9560560D01*
X14160500Y9560560D01*
G37*
G36*
X14213840Y9306560D02*
X14213840Y9489440D01*
X14234160Y9489440D01*
X14234160Y9306560D01*
X14213840Y9306560D01*
G37*
G36*
X14213840Y9052560D02*
X14213840Y9235440D01*
X14234160Y9235440D01*
X14234160Y9052560D01*
X14213840Y9052560D01*
G37*
G36*
X14975840Y9052560D02*
X14975840Y9235440D01*
X14996160Y9235440D01*
X14996160Y9052560D01*
X14975840Y9052560D01*
G37*
G36*
X14975840Y9306560D02*
X14975840Y9489440D01*
X14996160Y9489440D01*
X14996160Y9306560D01*
X14975840Y9306560D01*
G37*
G36*
X14975840Y9560560D02*
X14975840Y9743440D01*
X14996160Y9743440D01*
X14996160Y9560560D01*
X14975840Y9560560D01*
G37*
G36*
X21717000Y10083800D02*
X21717000Y10236200D01*
X21971000Y10236200D01*
X21971000Y10083800D01*
X21717000Y10083800D01*
G37*
G36*
X21767800Y10033000D02*
X21767800Y10287000D01*
X21920200Y10287000D01*
X21920200Y10033000D01*
X21767800Y10033000D01*
G37*
G36*
X18958560Y10645140D02*
X18958560Y10690860D01*
X19141440Y10690860D01*
X19141440Y10645140D01*
X18958560Y10645140D01*
G37*
G36*
X19212560Y10645140D02*
X19212560Y10690860D01*
X19395440Y10690860D01*
X19395440Y10645140D01*
X19212560Y10645140D01*
G37*
G36*
X18704560Y10591800D02*
X18704560Y10744200D01*
X18887440Y10744200D01*
X18887440Y10591800D01*
X18704560Y10591800D01*
G37*
G36*
X18742660Y10553700D02*
X18742660Y10782300D01*
X18849340Y10782300D01*
X18849340Y10553700D01*
X18742660Y10553700D01*
G37*
G36*
X412750Y1478496D02*
X412750Y1569504D01*
X603250Y1569504D01*
X603250Y1478496D01*
X412750Y1478496D01*
G37*
G36*
X462496Y1428750D02*
X462496Y1619250D01*
X553504Y1619250D01*
X553504Y1428750D01*
X462496Y1428750D01*
G37*
G36*
X3464560Y1386840D02*
X3464560Y1407160D01*
X3647440Y1407160D01*
X3647440Y1386840D01*
X3464560Y1386840D01*
G37*
G36*
X3718560Y1386840D02*
X3718560Y1407160D01*
X3901440Y1407160D01*
X3901440Y1386840D01*
X3718560Y1386840D01*
G37*
G36*
X3972560Y1386840D02*
X3972560Y1407160D01*
X4155440Y1407160D01*
X4155440Y1386840D01*
X3972560Y1386840D01*
G37*
G36*
X3210560Y2148840D02*
X3210560Y2169160D01*
X3393440Y2169160D01*
X3393440Y2148840D01*
X3210560Y2148840D01*
G37*
G36*
X3464560Y2148840D02*
X3464560Y2169160D01*
X3647440Y2169160D01*
X3647440Y2148840D01*
X3464560Y2148840D01*
G37*
G36*
X3718560Y2148840D02*
X3718560Y2169160D01*
X3901440Y2169160D01*
X3901440Y2148840D01*
X3718560Y2148840D01*
G37*
G36*
X3972560Y2148840D02*
X3972560Y2169160D01*
X4155440Y2169160D01*
X4155440Y2148840D01*
X3972560Y2148840D01*
G37*
G36*
X3210560Y1333500D02*
X3210560Y1460500D01*
X3393440Y1460500D01*
X3393440Y1333500D01*
X3210560Y1333500D01*
G37*
G36*
X3248660Y1295400D02*
X3248660Y1498600D01*
X3355340Y1498600D01*
X3355340Y1295400D01*
X3248660Y1295400D01*
G37*
G36*
X8798560Y4295140D02*
X8798560Y4340860D01*
X8981440Y4340860D01*
X8981440Y4295140D01*
X8798560Y4295140D01*
G37*
G36*
X8036560Y4295140D02*
X8036560Y4340860D01*
X8219440Y4340860D01*
X8219440Y4295140D01*
X8036560Y4295140D01*
G37*
G36*
X7782560Y4295140D02*
X7782560Y4340860D01*
X7965440Y4340860D01*
X7965440Y4295140D01*
X7782560Y4295140D01*
G37*
G36*
X7528560Y4241800D02*
X7528560Y4394200D01*
X7711440Y4394200D01*
X7711440Y4241800D01*
X7528560Y4241800D01*
G37*
G36*
X7566660Y4203700D02*
X7566660Y4432300D01*
X7673340Y4432300D01*
X7673340Y4203700D01*
X7566660Y4203700D01*
G37*
G36*
X8544560Y4295140D02*
X8544560Y4340860D01*
X8727440Y4340860D01*
X8727440Y4295140D01*
X8544560Y4295140D01*
G37*
G36*
X8290560Y4295140D02*
X8290560Y4340860D01*
X8473440Y4340860D01*
X8473440Y4295140D01*
X8290560Y4295140D01*
G37*
G36*
X10322560Y4295140D02*
X10322560Y4340860D01*
X10505440Y4340860D01*
X10505440Y4295140D01*
X10322560Y4295140D01*
G37*
G36*
X9560560Y4295140D02*
X9560560Y4340860D01*
X9743440Y4340860D01*
X9743440Y4295140D01*
X9560560Y4295140D01*
G37*
G36*
X9306560Y4295140D02*
X9306560Y4340860D01*
X9489440Y4340860D01*
X9489440Y4295140D01*
X9306560Y4295140D01*
G37*
G36*
X9052560Y4295140D02*
X9052560Y4340860D01*
X9235440Y4340860D01*
X9235440Y4295140D01*
X9052560Y4295140D01*
G37*
G36*
X9814560Y4295140D02*
X9814560Y4340860D01*
X9997440Y4340860D01*
X9997440Y4295140D01*
X9814560Y4295140D01*
G37*
G36*
X10068560Y4295140D02*
X10068560Y4340860D01*
X10251440Y4340860D01*
X10251440Y4295140D01*
X10068560Y4295140D01*
G37*
G36*
X11084560Y4295140D02*
X11084560Y4340860D01*
X11267440Y4340860D01*
X11267440Y4295140D01*
X11084560Y4295140D01*
G37*
G36*
X10576560Y4295140D02*
X10576560Y4340860D01*
X10759440Y4340860D01*
X10759440Y4295140D01*
X10576560Y4295140D01*
G37*
G36*
X10830560Y4295140D02*
X10830560Y4340860D01*
X11013440Y4340860D01*
X11013440Y4295140D01*
X10830560Y4295140D01*
G37*
G36*
X11846560Y4295140D02*
X11846560Y4340860D01*
X12029440Y4340860D01*
X12029440Y4295140D01*
X11846560Y4295140D01*
G37*
G36*
X11338560Y4295140D02*
X11338560Y4340860D01*
X11521440Y4340860D01*
X11521440Y4295140D01*
X11338560Y4295140D01*
G37*
G36*
X11592560Y4295140D02*
X11592560Y4340860D01*
X11775440Y4340860D01*
X11775440Y4295140D01*
X11592560Y4295140D01*
G37*
G36*
X12100560Y4295140D02*
X12100560Y4340860D01*
X12283440Y4340860D01*
X12283440Y4295140D01*
X12100560Y4295140D01*
G37*
G36*
X12354560Y4295140D02*
X12354560Y4340860D01*
X12537440Y4340860D01*
X12537440Y4295140D01*
X12354560Y4295140D01*
G37*
G36*
X8798560Y5819140D02*
X8798560Y5864860D01*
X8981440Y5864860D01*
X8981440Y5819140D01*
X8798560Y5819140D01*
G37*
G36*
X8036560Y5819140D02*
X8036560Y5864860D01*
X8219440Y5864860D01*
X8219440Y5819140D01*
X8036560Y5819140D01*
G37*
G36*
X7782560Y5819140D02*
X7782560Y5864860D01*
X7965440Y5864860D01*
X7965440Y5819140D01*
X7782560Y5819140D01*
G37*
G36*
X8544560Y5819140D02*
X8544560Y5864860D01*
X8727440Y5864860D01*
X8727440Y5819140D01*
X8544560Y5819140D01*
G37*
G36*
X8290560Y5819140D02*
X8290560Y5864860D01*
X8473440Y5864860D01*
X8473440Y5819140D01*
X8290560Y5819140D01*
G37*
G36*
X10322560Y5819140D02*
X10322560Y5864860D01*
X10505440Y5864860D01*
X10505440Y5819140D01*
X10322560Y5819140D01*
G37*
G36*
X9560560Y5819140D02*
X9560560Y5864860D01*
X9743440Y5864860D01*
X9743440Y5819140D01*
X9560560Y5819140D01*
G37*
G36*
X9306560Y5819140D02*
X9306560Y5864860D01*
X9489440Y5864860D01*
X9489440Y5819140D01*
X9306560Y5819140D01*
G37*
G36*
X9052560Y5819140D02*
X9052560Y5864860D01*
X9235440Y5864860D01*
X9235440Y5819140D01*
X9052560Y5819140D01*
G37*
G36*
X10068560Y5819140D02*
X10068560Y5864860D01*
X10251440Y5864860D01*
X10251440Y5819140D01*
X10068560Y5819140D01*
G37*
G36*
X9814560Y5819140D02*
X9814560Y5864860D01*
X9997440Y5864860D01*
X9997440Y5819140D01*
X9814560Y5819140D01*
G37*
G36*
X11084560Y5819140D02*
X11084560Y5864860D01*
X11267440Y5864860D01*
X11267440Y5819140D01*
X11084560Y5819140D01*
G37*
G36*
X10830560Y5819140D02*
X10830560Y5864860D01*
X11013440Y5864860D01*
X11013440Y5819140D01*
X10830560Y5819140D01*
G37*
G36*
X10576560Y5819140D02*
X10576560Y5864860D01*
X10759440Y5864860D01*
X10759440Y5819140D01*
X10576560Y5819140D01*
G37*
G36*
X11846560Y5819140D02*
X11846560Y5864860D01*
X12029440Y5864860D01*
X12029440Y5819140D01*
X11846560Y5819140D01*
G37*
G36*
X11592560Y5819140D02*
X11592560Y5864860D01*
X11775440Y5864860D01*
X11775440Y5819140D01*
X11592560Y5819140D01*
G37*
G36*
X11338560Y5819140D02*
X11338560Y5864860D01*
X11521440Y5864860D01*
X11521440Y5819140D01*
X11338560Y5819140D01*
G37*
G36*
X12100560Y5819140D02*
X12100560Y5864860D01*
X12283440Y5864860D01*
X12283440Y5819140D01*
X12100560Y5819140D01*
G37*
G36*
X12354560Y5819140D02*
X12354560Y5864860D01*
X12537440Y5864860D01*
X12537440Y5819140D01*
X12354560Y5819140D01*
G37*
G36*
X7528560Y5819140D02*
X7528560Y5864860D01*
X7711440Y5864860D01*
X7711440Y5819140D01*
X7528560Y5819140D01*
G37*
G36*
X3464560Y4053840D02*
X3464560Y4074160D01*
X3647440Y4074160D01*
X3647440Y4053840D01*
X3464560Y4053840D01*
G37*
G36*
X3718560Y4053840D02*
X3718560Y4074160D01*
X3901440Y4074160D01*
X3901440Y4053840D01*
X3718560Y4053840D01*
G37*
G36*
X3972560Y4053840D02*
X3972560Y4074160D01*
X4155440Y4074160D01*
X4155440Y4053840D01*
X3972560Y4053840D01*
G37*
G36*
X3210560Y4815840D02*
X3210560Y4836160D01*
X3393440Y4836160D01*
X3393440Y4815840D01*
X3210560Y4815840D01*
G37*
G36*
X3464560Y4815840D02*
X3464560Y4836160D01*
X3647440Y4836160D01*
X3647440Y4815840D01*
X3464560Y4815840D01*
G37*
G36*
X3718560Y4815840D02*
X3718560Y4836160D01*
X3901440Y4836160D01*
X3901440Y4815840D01*
X3718560Y4815840D01*
G37*
G36*
X3972560Y4815840D02*
X3972560Y4836160D01*
X4155440Y4836160D01*
X4155440Y4815840D01*
X3972560Y4815840D01*
G37*
G36*
X3210560Y4000500D02*
X3210560Y4127500D01*
X3393440Y4127500D01*
X3393440Y4000500D01*
X3210560Y4000500D01*
G37*
G36*
X3248660Y3962400D02*
X3248660Y4165600D01*
X3355340Y4165600D01*
X3355340Y3962400D01*
X3248660Y3962400D01*
G37*
G36*
X5115560Y4053840D02*
X5115560Y4074160D01*
X5298440Y4074160D01*
X5298440Y4053840D01*
X5115560Y4053840D01*
G37*
G36*
X5369560Y4053840D02*
X5369560Y4074160D01*
X5552440Y4074160D01*
X5552440Y4053840D01*
X5369560Y4053840D01*
G37*
G36*
X5623560Y4053840D02*
X5623560Y4074160D01*
X5806440Y4074160D01*
X5806440Y4053840D01*
X5623560Y4053840D01*
G37*
G36*
X4861560Y4815840D02*
X4861560Y4836160D01*
X5044440Y4836160D01*
X5044440Y4815840D01*
X4861560Y4815840D01*
G37*
G36*
X5115560Y4815840D02*
X5115560Y4836160D01*
X5298440Y4836160D01*
X5298440Y4815840D01*
X5115560Y4815840D01*
G37*
G36*
X5369560Y4815840D02*
X5369560Y4836160D01*
X5552440Y4836160D01*
X5552440Y4815840D01*
X5369560Y4815840D01*
G37*
G36*
X5623560Y4815840D02*
X5623560Y4836160D01*
X5806440Y4836160D01*
X5806440Y4815840D01*
X5623560Y4815840D01*
G37*
G36*
X4861560Y4000500D02*
X4861560Y4127500D01*
X5044440Y4127500D01*
X5044440Y4000500D01*
X4861560Y4000500D01*
G37*
G36*
X4899660Y3962400D02*
X4899660Y4165600D01*
X5006340Y4165600D01*
X5006340Y3962400D01*
X4899660Y3962400D01*
G37*
G36*
X412750Y4145496D02*
X412750Y4236504D01*
X603250Y4236504D01*
X603250Y4145496D01*
X412750Y4145496D01*
G37*
G36*
X462496Y4095750D02*
X462496Y4286250D01*
X553504Y4286250D01*
X553504Y4095750D01*
X462496Y4095750D01*
G37*
G36*
X2448560Y8064500D02*
X2448560Y8191500D01*
X2631440Y8191500D01*
X2631440Y8064500D01*
X2448560Y8064500D01*
G37*
G36*
X2486660Y8026400D02*
X2486660Y8229600D01*
X2593340Y8229600D01*
X2593340Y8026400D01*
X2486660Y8026400D01*
G37*
G36*
X2702560Y8117840D02*
X2702560Y8138160D01*
X2885440Y8138160D01*
X2885440Y8117840D01*
X2702560Y8117840D01*
G37*
G36*
X2956560Y8117840D02*
X2956560Y8138160D01*
X3139440Y8138160D01*
X3139440Y8117840D01*
X2956560Y8117840D01*
G37*
G36*
X3210560Y8117840D02*
X3210560Y8138160D01*
X3393440Y8138160D01*
X3393440Y8117840D01*
X3210560Y8117840D01*
G37*
G36*
X3464560Y8117840D02*
X3464560Y8138160D01*
X3647440Y8138160D01*
X3647440Y8117840D01*
X3464560Y8117840D01*
G37*
G36*
X3718560Y8117840D02*
X3718560Y8138160D01*
X3901440Y8138160D01*
X3901440Y8117840D01*
X3718560Y8117840D01*
G37*
G36*
X3972560Y8117840D02*
X3972560Y8138160D01*
X4155440Y8138160D01*
X4155440Y8117840D01*
X3972560Y8117840D01*
G37*
G36*
X4226560Y8117840D02*
X4226560Y8138160D01*
X4409440Y8138160D01*
X4409440Y8117840D01*
X4226560Y8117840D01*
G37*
G36*
X4480560Y8117840D02*
X4480560Y8138160D01*
X4663440Y8138160D01*
X4663440Y8117840D01*
X4480560Y8117840D01*
G37*
G36*
X4734560Y8117840D02*
X4734560Y8138160D01*
X4917440Y8138160D01*
X4917440Y8117840D01*
X4734560Y8117840D01*
G37*
G36*
X2702560Y8879840D02*
X2702560Y8900160D01*
X2885440Y8900160D01*
X2885440Y8879840D01*
X2702560Y8879840D01*
G37*
G36*
X2956560Y8879840D02*
X2956560Y8900160D01*
X3139440Y8900160D01*
X3139440Y8879840D01*
X2956560Y8879840D01*
G37*
G36*
X3210560Y8879840D02*
X3210560Y8900160D01*
X3393440Y8900160D01*
X3393440Y8879840D01*
X3210560Y8879840D01*
G37*
G36*
X3464560Y8879840D02*
X3464560Y8900160D01*
X3647440Y8900160D01*
X3647440Y8879840D01*
X3464560Y8879840D01*
G37*
G36*
X3718560Y8879840D02*
X3718560Y8900160D01*
X3901440Y8900160D01*
X3901440Y8879840D01*
X3718560Y8879840D01*
G37*
G36*
X3972560Y8879840D02*
X3972560Y8900160D01*
X4155440Y8900160D01*
X4155440Y8879840D01*
X3972560Y8879840D01*
G37*
G36*
X4226560Y8879840D02*
X4226560Y8900160D01*
X4409440Y8900160D01*
X4409440Y8879840D01*
X4226560Y8879840D01*
G37*
G36*
X4480560Y8879840D02*
X4480560Y8900160D01*
X4663440Y8900160D01*
X4663440Y8879840D01*
X4480560Y8879840D01*
G37*
G36*
X4734560Y8879840D02*
X4734560Y8900160D01*
X4917440Y8900160D01*
X4917440Y8879840D01*
X4734560Y8879840D01*
G37*
G36*
X2448560Y8879840D02*
X2448560Y8900160D01*
X2631440Y8900160D01*
X2631440Y8879840D01*
X2448560Y8879840D01*
G37*
G36*
X2448560Y12128500D02*
X2448560Y12255500D01*
X2631440Y12255500D01*
X2631440Y12128500D01*
X2448560Y12128500D01*
G37*
G36*
X2486660Y12090400D02*
X2486660Y12293600D01*
X2593340Y12293600D01*
X2593340Y12090400D01*
X2486660Y12090400D01*
G37*
G36*
X2702560Y12181840D02*
X2702560Y12202160D01*
X2885440Y12202160D01*
X2885440Y12181840D01*
X2702560Y12181840D01*
G37*
G36*
X2956560Y12181840D02*
X2956560Y12202160D01*
X3139440Y12202160D01*
X3139440Y12181840D01*
X2956560Y12181840D01*
G37*
G36*
X3210560Y12181840D02*
X3210560Y12202160D01*
X3393440Y12202160D01*
X3393440Y12181840D01*
X3210560Y12181840D01*
G37*
G36*
X3464560Y12181840D02*
X3464560Y12202160D01*
X3647440Y12202160D01*
X3647440Y12181840D01*
X3464560Y12181840D01*
G37*
G36*
X3718560Y12181840D02*
X3718560Y12202160D01*
X3901440Y12202160D01*
X3901440Y12181840D01*
X3718560Y12181840D01*
G37*
G36*
X3972560Y12181840D02*
X3972560Y12202160D01*
X4155440Y12202160D01*
X4155440Y12181840D01*
X3972560Y12181840D01*
G37*
G36*
X4226560Y12181840D02*
X4226560Y12202160D01*
X4409440Y12202160D01*
X4409440Y12181840D01*
X4226560Y12181840D01*
G37*
G36*
X4480560Y12181840D02*
X4480560Y12202160D01*
X4663440Y12202160D01*
X4663440Y12181840D01*
X4480560Y12181840D01*
G37*
G36*
X4734560Y12181840D02*
X4734560Y12202160D01*
X4917440Y12202160D01*
X4917440Y12181840D01*
X4734560Y12181840D01*
G37*
G36*
X2702560Y12943840D02*
X2702560Y12964160D01*
X2885440Y12964160D01*
X2885440Y12943840D01*
X2702560Y12943840D01*
G37*
G36*
X2956560Y12943840D02*
X2956560Y12964160D01*
X3139440Y12964160D01*
X3139440Y12943840D01*
X2956560Y12943840D01*
G37*
G36*
X3210560Y12943840D02*
X3210560Y12964160D01*
X3393440Y12964160D01*
X3393440Y12943840D01*
X3210560Y12943840D01*
G37*
G36*
X3464560Y12943840D02*
X3464560Y12964160D01*
X3647440Y12964160D01*
X3647440Y12943840D01*
X3464560Y12943840D01*
G37*
G36*
X3718560Y12943840D02*
X3718560Y12964160D01*
X3901440Y12964160D01*
X3901440Y12943840D01*
X3718560Y12943840D01*
G37*
G36*
X3972560Y12943840D02*
X3972560Y12964160D01*
X4155440Y12964160D01*
X4155440Y12943840D01*
X3972560Y12943840D01*
G37*
G36*
X4226560Y12943840D02*
X4226560Y12964160D01*
X4409440Y12964160D01*
X4409440Y12943840D01*
X4226560Y12943840D01*
G37*
G36*
X4480560Y12943840D02*
X4480560Y12964160D01*
X4663440Y12964160D01*
X4663440Y12943840D01*
X4480560Y12943840D01*
G37*
G36*
X4734560Y12943840D02*
X4734560Y12964160D01*
X4917440Y12964160D01*
X4917440Y12943840D01*
X4734560Y12943840D01*
G37*
G36*
X2448560Y12943840D02*
X2448560Y12964160D01*
X2631440Y12964160D01*
X2631440Y12943840D01*
X2448560Y12943840D01*
G37*
G36*
X11334750Y812800D02*
X11334750Y965200D01*
X11525250Y965200D01*
X11525250Y812800D01*
X11334750Y812800D01*
G37*
G36*
X11372850Y774700D02*
X11372850Y1003300D01*
X11487150Y1003300D01*
X11487150Y774700D01*
X11372850Y774700D01*
G37*
G36*
X11588750Y866140D02*
X11588750Y911860D01*
X11779250Y911860D01*
X11779250Y866140D01*
X11588750Y866140D01*
G37*
G36*
X11680190Y774700D02*
X11680190Y1003300D01*
X11687810Y1003300D01*
X11687810Y774700D01*
X11680190Y774700D01*
G37*
G36*
X11842750Y866140D02*
X11842750Y911860D01*
X12033250Y911860D01*
X12033250Y866140D01*
X11842750Y866140D01*
G37*
G36*
X11934190Y774700D02*
X11934190Y1003300D01*
X11941810Y1003300D01*
X11941810Y774700D01*
X11934190Y774700D01*
G37*
G36*
X12096750Y866140D02*
X12096750Y911860D01*
X12287250Y911860D01*
X12287250Y866140D01*
X12096750Y866140D01*
G37*
G36*
X12188190Y774700D02*
X12188190Y1003300D01*
X12195810Y1003300D01*
X12195810Y774700D01*
X12188190Y774700D01*
G37*
G36*
X12350750Y866140D02*
X12350750Y911860D01*
X12541250Y911860D01*
X12541250Y866140D01*
X12350750Y866140D01*
G37*
G36*
X12442190Y774700D02*
X12442190Y1003300D01*
X12449810Y1003300D01*
X12449810Y774700D01*
X12442190Y774700D01*
G37*
G36*
X11334750Y2136140D02*
X11334750Y2181860D01*
X11525250Y2181860D01*
X11525250Y2136140D01*
X11334750Y2136140D01*
G37*
G36*
X11426190Y2044700D02*
X11426190Y2273300D01*
X11433810Y2273300D01*
X11433810Y2044700D01*
X11426190Y2044700D01*
G37*
G36*
X11588750Y2136140D02*
X11588750Y2181860D01*
X11779250Y2181860D01*
X11779250Y2136140D01*
X11588750Y2136140D01*
G37*
G36*
X11680190Y2044700D02*
X11680190Y2273300D01*
X11687810Y2273300D01*
X11687810Y2044700D01*
X11680190Y2044700D01*
G37*
G36*
X11842750Y2136140D02*
X11842750Y2181860D01*
X12033250Y2181860D01*
X12033250Y2136140D01*
X11842750Y2136140D01*
G37*
G36*
X11934190Y2044700D02*
X11934190Y2273300D01*
X11941810Y2273300D01*
X11941810Y2044700D01*
X11934190Y2044700D01*
G37*
G36*
X12096750Y2136140D02*
X12096750Y2181860D01*
X12287250Y2181860D01*
X12287250Y2136140D01*
X12096750Y2136140D01*
G37*
G36*
X12188190Y2044700D02*
X12188190Y2273300D01*
X12195810Y2273300D01*
X12195810Y2044700D01*
X12188190Y2044700D01*
G37*
G36*
X12350750Y2136140D02*
X12350750Y2181860D01*
X12541250Y2181860D01*
X12541250Y2136140D01*
X12350750Y2136140D01*
G37*
G36*
X12442190Y2044700D02*
X12442190Y2273300D01*
X12449810Y2273300D01*
X12449810Y2044700D01*
X12442190Y2044700D01*
G37*
G36*
X12604750Y2136140D02*
X12604750Y2181860D01*
X12795250Y2181860D01*
X12795250Y2136140D01*
X12604750Y2136140D01*
G37*
G36*
X12696190Y2044700D02*
X12696190Y2273300D01*
X12703810Y2273300D01*
X12703810Y2044700D01*
X12696190Y2044700D01*
G37*
G36*
X12604750Y866140D02*
X12604750Y911860D01*
X12795250Y911860D01*
X12795250Y866140D01*
X12604750Y866140D01*
G37*
G36*
X12696190Y774700D02*
X12696190Y1003300D01*
X12703810Y1003300D01*
X12703810Y774700D01*
X12696190Y774700D01*
G37*
G36*
X12354560Y13185140D02*
X12354560Y13230860D01*
X12537440Y13230860D01*
X12537440Y13185140D01*
X12354560Y13185140D01*
G37*
G36*
X12608560Y13185140D02*
X12608560Y13230860D01*
X12791440Y13230860D01*
X12791440Y13185140D01*
X12608560Y13185140D01*
G37*
G36*
X12100560Y13131800D02*
X12100560Y13284200D01*
X12283440Y13284200D01*
X12283440Y13131800D01*
X12100560Y13131800D01*
G37*
G36*
X12138660Y13093700D02*
X12138660Y13322300D01*
X12245340Y13322300D01*
X12245340Y13093700D01*
X12138660Y13093700D01*
G37*
G36*
X14894560Y13185140D02*
X14894560Y13230860D01*
X15077440Y13230860D01*
X15077440Y13185140D01*
X14894560Y13185140D01*
G37*
G36*
X15148560Y13185140D02*
X15148560Y13230860D01*
X15331440Y13230860D01*
X15331440Y13185140D01*
X15148560Y13185140D01*
G37*
G36*
X14640560Y13131800D02*
X14640560Y13284200D01*
X14823440Y13284200D01*
X14823440Y13131800D01*
X14640560Y13131800D01*
G37*
G36*
X14678660Y13093700D02*
X14678660Y13322300D01*
X14785340Y13322300D01*
X14785340Y13093700D01*
X14678660Y13093700D01*
G37*
G36*
X7270750Y14432496D02*
X7270750Y14523504D01*
X7461250Y14523504D01*
X7461250Y14432496D01*
X7270750Y14432496D01*
G37*
G36*
X7320496Y14382750D02*
X7320496Y14573250D01*
X7411504Y14573250D01*
X7411504Y14382750D01*
X7320496Y14382750D01*
G37*
G36*
X8286750Y14432496D02*
X8286750Y14523504D01*
X8477250Y14523504D01*
X8477250Y14432496D01*
X8286750Y14432496D01*
G37*
G36*
X8336496Y14382750D02*
X8336496Y14573250D01*
X8427504Y14573250D01*
X8427504Y14382750D01*
X8336496Y14382750D01*
G37*
G36*
X9302750Y14432496D02*
X9302750Y14523504D01*
X9493250Y14523504D01*
X9493250Y14432496D01*
X9302750Y14432496D01*
G37*
G36*
X9352496Y14382750D02*
X9352496Y14573250D01*
X9443504Y14573250D01*
X9443504Y14382750D01*
X9352496Y14382750D01*
G37*
G36*
X10318750Y14432496D02*
X10318750Y14523504D01*
X10509250Y14523504D01*
X10509250Y14432496D01*
X10318750Y14432496D01*
G37*
G36*
X10368496Y14382750D02*
X10368496Y14573250D01*
X10459504Y14573250D01*
X10459504Y14382750D01*
X10368496Y14382750D01*
G37*
G36*
X11334750Y14432496D02*
X11334750Y14523504D01*
X11525250Y14523504D01*
X11525250Y14432496D01*
X11334750Y14432496D01*
G37*
G36*
X11384496Y14382750D02*
X11384496Y14573250D01*
X11475504Y14573250D01*
X11475504Y14382750D01*
X11384496Y14382750D01*
G37*
G36*
X6508750Y462496D02*
X6508750Y553504D01*
X6699250Y553504D01*
X6699250Y462496D01*
X6508750Y462496D01*
G37*
G36*
X6558496Y412750D02*
X6558496Y603250D01*
X6649504Y603250D01*
X6649504Y412750D01*
X6558496Y412750D01*
G37*
G54D12*
X7493000Y3937000D02*
X7620000Y4064000D01*
X7620000Y4318000D01*
X10541000Y6350000D02*
X10668000Y6223000D01*
X10668000Y5842000D01*
X11176000Y5842000D02*
X11176000Y7366000D01*
X11303000Y7493000D01*
X11557000Y7493000D02*
X11557000Y8636000D01*
X11557000Y7493000D02*
X11684000Y7366000D01*
X11684000Y5842000D01*
X12192000Y5842000D02*
X12192000Y7366000D01*
X12319000Y7493000D01*
X12319000Y8636000D02*
X12319000Y7493000D01*
X8382000Y2286000D02*
X8382000Y508000D01*
X15494000Y9398000D02*
X15494000Y10414000D01*
X15621000Y9398000D02*
X14986000Y9398000D01*
X15875000Y9144000D02*
X15621000Y9398000D01*
X15875000Y9144000D02*
X16510000Y9144000D01*
X14097000Y7620000D02*
X14224000Y7493000D01*
X14224000Y7112000D01*
X15494000Y6858000D02*
X15494000Y7874000D01*
X16002000Y6350000D02*
X15494000Y6858000D01*
X14986000Y6858000D01*
X16002000Y6350000D02*
X16510000Y6350000D01*
X14097000Y4826000D02*
X14224000Y4699000D01*
X14224000Y4318000D01*
X3810000Y1397000D02*
X3810000Y1143000D01*
X3429000Y762000D02*
X3810000Y1143000D01*
X444500Y762000D02*
X3429000Y762000D01*
X254000Y952500D02*
X444500Y762000D01*
X254000Y952500D02*
X254000Y1905000D01*
X381000Y2032000D02*
X254000Y1905000D01*
X508000Y2032000D02*
X381000Y2032000D01*
X4318000Y8890000D02*
X4318000Y9271000D01*
X4445000Y9398000D02*
X4318000Y9271000D01*
X5842000Y9398000D02*
X4445000Y9398000D01*
X5842000Y13462000D02*
X4445000Y13462000D01*
X4318000Y13335000D01*
X4318000Y12954000D02*
X4318000Y13335000D01*
X9144000Y6350000D02*
X9144000Y7874000D01*
X9144000Y6350000D02*
X9144000Y5842000D01*
X3048000Y8890000D02*
X3048000Y10541000D01*
X3175000Y10668000D02*
X3048000Y10541000D01*
X7112000Y10668000D02*
X3175000Y10668000D01*
X3270250Y14732000D02*
X7112000Y14732000D01*
X3048000Y14509750D02*
X3270250Y14732000D01*
X3048000Y14509750D02*
X3048000Y12954000D01*
X7874000Y6350000D02*
X7874000Y9144000D01*
X7874000Y6350000D02*
X7874000Y5842000D01*
X2286000Y8255000D02*
X2286000Y7620000D01*
X2286000Y8255000D02*
X2667000Y8636000D01*
X2794000Y8763000D01*
X2794000Y8890000D01*
X15494000Y1524000D02*
X15494000Y2482500D01*
X16003268Y1016000D02*
X15495268Y1524000D01*
X14986000Y1524000D01*
X16003268Y1016000D02*
X16510000Y1016000D01*
X3556000Y8890000D02*
X3556000Y10033000D01*
X3683000Y10160000D02*
X3556000Y10033000D01*
X6604000Y10160000D02*
X3683000Y10160000D01*
X6604000Y14224000D02*
X3683000Y14224000D01*
X3556000Y14097000D01*
X3556000Y12954000D02*
X3556000Y14097000D01*
X8382000Y6350000D02*
X8382000Y8636000D01*
X8382000Y6350000D02*
X8382000Y5842000D01*
X3302000Y10287000D02*
X3302000Y8890000D01*
X3429000Y10414000D02*
X3302000Y10287000D01*
X3429000Y10414000D02*
X6858000Y10414000D01*
X6858000Y14478000D02*
X3429000Y14478000D01*
X3302000Y14351000D01*
X3302000Y12954000D02*
X3302000Y14351000D01*
X8128000Y6350000D02*
X8128000Y8890000D01*
X8128000Y6350000D02*
X8128000Y5842000D01*
X5334000Y8890000D02*
X4826000Y8890000D01*
X5334000Y12954000D02*
X4826000Y12954000D01*
X9652000Y6350000D02*
X9652000Y7366000D01*
X9652000Y6350000D02*
X9652000Y5842000D01*
X13081000Y5016500D02*
X13081000Y4826000D01*
X12636500Y5461000D02*
X13081000Y5016500D01*
X10541000Y5461000D02*
X12636500Y5461000D01*
X10414000Y5588000D02*
X10541000Y5461000D01*
X10414000Y5588000D02*
X10414000Y5842000D01*
X11938000Y508000D02*
X11938000Y889000D01*
X4572000Y9017000D02*
X4572000Y8890000D01*
X4699000Y9144000D02*
X4572000Y9017000D01*
X4699000Y9144000D02*
X5588000Y9144000D01*
X4699000Y13208000D02*
X5588000Y13208000D01*
X4699000Y13208000D02*
X4572000Y13081000D01*
X4572000Y12954000D01*
X9398000Y6350000D02*
X9398000Y7620000D01*
X9398000Y6350000D02*
X9398000Y5842000D01*
X13081000Y10160000D02*
X13081000Y9906000D01*
X13081000Y8636000D02*
X13081000Y9906000D01*
X12700000Y8255000D02*
X13081000Y8636000D01*
X12700000Y6096000D02*
X12700000Y8255000D01*
X4826000Y3429000D02*
X4826000Y3048000D01*
X4826000Y3429000D02*
X4953000Y3556000D01*
X4953000Y4064000D01*
X1778000Y5969000D02*
X1778000Y6858000D01*
X3810000Y11684000D02*
X3810000Y12192000D01*
X3302000Y1016000D02*
X3302000Y1397000D01*
X5080000Y889000D02*
X5080000Y1270000D01*
X6350000Y1270000D01*
X6604000Y1524000D01*
X6604000Y4889500D01*
X6604000Y5946676D01*
X6200684Y6350000D02*
X6604000Y5946676D01*
X6200684Y6350000D02*
X3937000Y6350000D01*
X3810000Y6477000D01*
X3810000Y8128000D01*
X11430000Y6350000D02*
X11430000Y5842000D01*
X11430000Y6350000D02*
X11430000Y7112000D01*
X2540000Y7112000D02*
X2540000Y8128000D01*
X11938000Y13970000D02*
X11938000Y14478000D01*
X9906000Y3302000D02*
X9906000Y4318000D01*
X9906000Y3302000D02*
X10795000Y2413000D01*
X12169682Y2413000D01*
X12319000Y2413000D02*
X12192000Y2413000D01*
X12446000Y2286000D02*
X12319000Y2413000D01*
X12446000Y2286000D02*
X12446000Y2159000D01*
X10518682Y4572000D02*
X10668000Y4422682D01*
X10668000Y4318000D01*
X7112000Y4572000D02*
X10518682Y4572000D01*
X7112000Y4572000D02*
X6858000Y4826000D01*
X6858000Y6350000D01*
X6604000Y6604000D02*
X6858000Y6350000D01*
X5842000Y6604000D02*
X6604000Y6604000D01*
X3556000Y6604000D02*
X3556000Y8128000D01*
X13081000Y2655841D02*
X13081000Y2286000D01*
X13081000Y2655841D02*
X12827000Y2909841D01*
X12804682Y2921000D02*
X11303000Y2921000D01*
X11176000Y3048000D01*
X11176000Y4318000D01*
X11176000Y4318000D01*
X8636000Y3048000D02*
X8636000Y4318000D01*
X8128000Y2540000D02*
X8636000Y3048000D01*
X7620000Y2540000D02*
X8128000Y2540000D01*
X7366000Y2286000D02*
X7620000Y2540000D01*
X7366000Y2286000D02*
X7366000Y508000D01*
X11938000Y5842000D02*
X11938000Y8636000D01*
X10922000Y14478000D02*
X10922000Y13970000D01*
X7874000Y4318000D02*
X7874000Y3937000D01*
X9906000Y6350000D02*
X9906000Y7747000D01*
X8763000Y8890000D01*
X8128000Y10668000D02*
X8128000Y9779000D01*
X7874000Y13970000D02*
X7874000Y14478000D01*
X13081000Y7620000D02*
X13081000Y6096000D01*
X13462000Y5715000D01*
X13462000Y4318000D02*
X13462000Y5715000D01*
X13208000Y4064000D02*
X13462000Y4318000D01*
X11684000Y4064000D02*
X11684000Y4318000D01*
X9906000Y14478000D02*
X9906000Y13970000D01*
X10160000Y5842000D02*
X10160000Y8382000D01*
X9652000Y8890000D01*
X9398000Y8890000D02*
X9652000Y8890000D01*
X8890000Y9779000D02*
X8890000Y10668000D01*
X8890000Y13970000D02*
X8890000Y14478000D01*
X10922000Y3937000D02*
X10922000Y4318000D01*
X10922000Y3175000D02*
X10922000Y3937000D01*
X7620000Y508000D02*
X7620000Y2032000D01*
X9906000Y5334000D02*
X9906000Y5842000D01*
X9906000Y5334000D02*
X10160000Y5080000D01*
X12461782Y5080000D01*
X12446000Y5080000D02*
X12827000Y4699000D01*
X12827000Y3365500D02*
X12827000Y4699000D01*
X12636500Y3175000D02*
X12827000Y3365500D01*
X12636500Y3175000D02*
X12446000Y3175000D01*
X7874000Y508000D02*
X7874000Y1524000D01*
X11430000Y3175000D02*
X11430000Y4318000D01*
X8128000Y508000D02*
X8128000Y1778000D01*
X8382000Y3175000D02*
X8382000Y4318000D01*
X8001000Y2794000D02*
X8382000Y3175000D01*
X7493000Y2794000D02*
X8001000Y2794000D01*
X7112000Y2413000D02*
X7493000Y2794000D01*
X7112000Y508000D02*
X7112000Y2413000D01*
X10160000Y4318000D02*
X10160000Y3429000D01*
X10922000Y2667000D01*
X12296682Y2667000D02*
X10922000Y2667000D01*
X12434841Y2667000D02*
X12319000Y2667000D01*
X12700000Y2401841D02*
X12446000Y2655841D01*
X12700000Y2401841D02*
X12700000Y2159000D01*
X8128000Y3810000D02*
X8128000Y4318000D01*
X8128000Y3365500D02*
X8128000Y3810000D01*
X7810500Y3048000D02*
X8128000Y3365500D01*
X7366000Y3048000D02*
X7810500Y3048000D01*
X6858000Y2540000D02*
X7366000Y3048000D01*
X6858000Y2540000D02*
X6858000Y508000D01*
X10922000Y6350000D02*
X10922000Y5842000D01*
X10922000Y6350000D02*
X10922000Y7493000D01*
X7366000Y10160000D02*
X5842000Y8636000D01*
X3048000Y8636000D02*
X5842000Y8636000D01*
X3111500Y12700000D02*
X7366000Y12700000D01*
X2794000Y8382000D02*
X3048000Y8636000D01*
X2794000Y12382500D02*
X3111500Y12700000D01*
X2794000Y8382000D02*
X2794000Y8128000D01*
X2794000Y12382500D02*
X2794000Y12192000D01*
X7620000Y10059302D02*
X7620000Y10414000D01*
X5942698Y8382000D02*
X7620000Y10059302D01*
X3175000Y12446000D02*
X7620000Y12446000D01*
X3324318Y8382000D02*
X5942698Y8382000D01*
X3048000Y12319000D02*
X3175000Y12446000D01*
X3302000Y8382000D02*
X3175000Y8382000D01*
X3302000Y8382000D02*
X3324318Y8382000D01*
X3048000Y12319000D02*
X3048000Y12192000D01*
X3048000Y8255000D02*
X3175000Y8382000D01*
X3048000Y8128000D02*
X3048000Y8255000D01*
X4064000Y8890000D02*
X4064000Y9525000D01*
X4191000Y9652000D02*
X4064000Y9525000D01*
X6096000Y9652000D02*
X4191000Y9652000D01*
X6096000Y13716000D02*
X4191000Y13716000D01*
X4064000Y13589000D01*
X4064000Y12954000D02*
X4064000Y13589000D01*
X8890000Y6350000D02*
X8890000Y8128000D01*
X8890000Y6350000D02*
X8890000Y5842000D01*
X10414000Y3810000D02*
X10414000Y4318000D01*
X11049000Y11176000D02*
X12954000Y11176000D01*
X3810000Y11176000D02*
X9906000Y11176000D01*
X3556000Y11430000D02*
X3810000Y11176000D01*
X3556000Y12192000D02*
X3556000Y11430000D01*
X2286000Y11684000D02*
X2286000Y12446000D01*
X2540000Y12700000D01*
X2730500Y12700000D01*
X2794000Y12763500D01*
X2794000Y12954000D01*
X10541000Y6350000D02*
X10541000Y7493000D01*
X10668000Y9779000D02*
X10668000Y10518682D01*
X10264682Y10922000D02*
X10668000Y10518682D01*
X2794000Y10922000D02*
X10264682Y10922000D01*
X2540000Y11176000D02*
X2794000Y10922000D01*
X2540000Y12192000D02*
X2540000Y11176000D01*
X12192000Y508000D02*
X12192000Y889000D01*
X12700000Y889000D02*
X12700000Y508000D01*
X12446000Y508000D02*
X12446000Y889000D01*
X9398000Y762000D02*
X9398000Y4318000D01*
X9144000Y762000D02*
X9144000Y4318000D01*
X8890000Y1270000D02*
X8890000Y4318000D01*
X10160000Y762000D02*
X10160000Y1270000D01*
X14097000Y2286000D02*
X14224000Y2159000D01*
X14224000Y1778000D01*
X4064000Y5080000D02*
X4064000Y4826000D01*
X508000Y4953000D02*
X635000Y5080000D01*
X762000Y5080000D01*
X4000500Y5461000D02*
X3810000Y5270500D01*
X4000500Y5461000D02*
X4064000Y5461000D01*
X3810000Y4635500D02*
X3810000Y5270500D01*
X3746500Y4572000D02*
X3810000Y4635500D01*
X3175000Y4572000D02*
X3746500Y4572000D01*
X3048000Y4445000D02*
X3175000Y4572000D01*
X2286000Y4445000D02*
X3048000Y4445000D01*
X2032000Y4699000D02*
X2286000Y4445000D01*
X1524000Y7683500D02*
X1524000Y8255000D01*
X1524000Y7683500D02*
X2349500Y6858000D01*
X3048000Y6858000D01*
X3302000Y7112000D01*
X3302000Y8128000D01*
X1778000Y1270000D02*
X2794000Y1270000D01*
X3175000Y1651000D01*
X3429000Y1651000D02*
X3175000Y1651000D01*
X3429000Y1651000D02*
X3556000Y1524000D01*
X3556000Y1397000D01*
X4318000Y1651000D02*
X4445000Y1524000D01*
X4826000Y1524000D01*
X5080000Y1778000D02*
X4826000Y1524000D01*
X5207000Y3429000D02*
X5842000Y3429000D01*
X5207000Y2984500D02*
X5207000Y4064000D01*
X5016500Y2794000D02*
X5207000Y2984500D01*
X4699000Y2794000D02*
X5016500Y2794000D01*
X4572000Y2921000D02*
X4699000Y2794000D01*
X4572000Y2921000D02*
X4572000Y3556000D01*
X4358640Y3769360D02*
X4572000Y3556000D01*
X4358640Y5766478D02*
X4358640Y3769360D01*
X4283118Y5842000D02*
X4358640Y5766478D01*
X4283118Y5842000D02*
X4191000Y5842000D01*
X3175000Y3048000D02*
X3175000Y3429000D01*
X3302000Y3556000D01*
X3302000Y4064000D01*
X3302000Y11684000D02*
X3302000Y12192000D01*
X9652000Y4318000D02*
X9652000Y762000D01*
X15240000Y8636000D02*
X15436500Y8636000D01*
X15494000Y8693500D01*
X14986000Y8890000D02*
X15240000Y8636000D01*
X14986000Y9144000D02*
X14986000Y8890000D01*
X15240000Y762000D02*
X15494000Y762000D01*
X15240000Y6096000D02*
X15436500Y6096000D01*
X15494000Y6153500D01*
X14986000Y1016000D02*
X15240000Y762000D01*
X15240000Y3302000D02*
X15436500Y3302000D01*
X15494000Y3359500D01*
X14986000Y6350000D02*
X15240000Y6096000D01*
X14986000Y1270000D02*
X14986000Y1016000D01*
X14986000Y3556000D02*
X15240000Y3302000D01*
X14986000Y6604000D02*
X14986000Y6350000D01*
X14986000Y3810000D02*
X14986000Y3556000D01*
X14224000Y10096500D02*
X14160500Y10160000D01*
X14097000Y10160000D01*
X14224000Y10096500D02*
X14224000Y9652000D01*
X4191000Y2794000D02*
X4191000Y3048000D01*
X4445000Y2540000D02*
X4191000Y2794000D01*
X5946682Y2540000D02*
X4445000Y2540000D01*
X6350000Y2943318D02*
X5946682Y2540000D01*
X6350000Y5588000D02*
X6350000Y2943318D01*
X6096000Y5842000D02*
X6350000Y5588000D01*
X6096000Y5842000D02*
X5334000Y5842000D01*
X5461000Y4064000D02*
X5461000Y3683000D01*
X3810000Y3810000D02*
X3810000Y4064000D01*
X508000Y4445000D02*
X762000Y4445000D01*
X3556000Y3429000D02*
X4191000Y3429000D01*
X3556000Y2921000D02*
X3556000Y4064000D01*
X3302000Y2667000D02*
X3556000Y2921000D01*
X2286000Y2667000D02*
X3302000Y2667000D01*
X2032000Y2921000D02*
X2286000Y2667000D01*
X2032000Y2921000D02*
X2032000Y4191000D01*
X1778000Y4445000D02*
X2032000Y4191000D01*
X3048000Y5715000D02*
X3175000Y5842000D01*
X3048000Y5389159D02*
X3048000Y5715000D01*
X3048000Y5389159D02*
X3556000Y4881159D01*
X3556000Y4826000D02*
X3556000Y4881159D01*
X15494000Y4064000D02*
X15494000Y5080000D01*
X15494000Y4064000D02*
X16002000Y3556000D01*
X14986000Y4064000D02*
X15494000Y4064000D01*
X16510000Y3556000D02*
X16002000Y3556000D01*
X3810000Y9779000D02*
X3810000Y8890000D01*
X3937000Y9906000D02*
X3810000Y9779000D01*
X3937000Y9906000D02*
X6350000Y9906000D01*
X6350000Y13970000D02*
X3937000Y13970000D01*
X3810000Y13843000D01*
X3810000Y12954000D02*
X3810000Y13843000D01*
X8636000Y6350000D02*
X8636000Y8382000D01*
X8636000Y6350000D02*
X8636000Y5842000D01*
G54D13*
X8636000Y381000D02*
X8636000Y508000D01*
X8636000Y381000D02*
X8509000Y254000D01*
X4635500Y254000D02*
X8509000Y254000D01*
X3035300Y4826000D02*
X3302000Y4826000D01*
X3048000Y4826000D02*
X2921000Y4699000D01*
X3048000Y5080000D02*
X3048000Y4826000D01*
X2921000Y4699000D02*
X2794000Y4699000D01*
X3048000Y5080000D02*
X2540000Y5588000D01*
X1206500Y5080000D02*
X3048000Y5080000D01*
X2540000Y5588000D02*
X2540000Y6604000D01*
X1143000Y5016500D02*
X1143000Y4699000D01*
X1143000Y5016500D02*
X1206500Y5080000D01*
X4572000Y6096000D02*
X2540000Y6096000D01*
X1143000Y4699000D02*
X508000Y4699000D01*
X4601758Y6096000D02*
X4572000Y6066242D01*
X4572000Y4699000D01*
X5080000Y6096000D02*
X4601758Y6096000D01*
X4699000Y4699000D02*
X4572000Y4699000D01*
X4826000Y4826000D02*
X4699000Y4699000D01*
X4826000Y4826000D02*
X4953000Y4826000D01*
X13462000Y7112000D02*
X13462000Y11684000D01*
X15875000Y11684000D02*
X15875000Y12890500D01*
X15557500Y13208000D02*
X15875000Y12890500D01*
X15557500Y13208000D02*
X15240000Y13208000D01*
X508000Y1524000D02*
X1524000Y1524000D01*
X2032000Y2032000D01*
X2517682Y2032000D01*
X2540000Y2054318D01*
X2540000Y2159000D02*
X2540000Y2032000D01*
X2540000Y2159000D02*
X2794000Y2413000D01*
X3556000Y2413000D01*
X3302000Y2397125D02*
X3302000Y2159000D01*
X3556000Y2413000D02*
X3683000Y2540000D01*
X6604000Y508000D02*
X6604000Y1016000D01*
X10922000Y1397000D02*
X10922000Y762000D01*
X10668000Y508000D01*
X10922000Y1397000D02*
X11303000Y1778000D01*
X10160000Y508000D02*
X10668000Y508000D01*
X11684000Y1778000D02*
X11303000Y1778000D01*
X11938000Y2032000D02*
X11684000Y1778000D01*
X13843000Y1778000D02*
X13843000Y9652000D01*
X11938000Y2032000D02*
X11938000Y2159000D01*
X13843000Y9652000D02*
X13843000Y11938000D01*
X13335000Y12446000D02*
X13843000Y11938000D01*
X13335000Y12446000D02*
X12827000Y11938000D01*
X13335000Y12890500D02*
X13335000Y12446000D01*
X12065000Y11938000D02*
X12827000Y11938000D01*
X13017500Y13208000D02*
X13335000Y12890500D01*
X7620000Y6604000D02*
X7620000Y5842000D01*
X12065000Y11938000D02*
X11684000Y12319000D01*
X13017500Y13208000D02*
X12700000Y13208000D01*
X7493000Y5842000D02*
X7620000Y5842000D01*
X11684000Y14478000D02*
X11684000Y12319000D01*
X7239000Y5588000D02*
X7493000Y5842000D01*
X11684000Y13462000D02*
X7747000Y13462000D01*
X7239000Y5588000D02*
X7239000Y5461000D01*
X7620000Y13589000D02*
X7747000Y13462000D01*
X8636000Y13462000D02*
X8636000Y14478000D01*
X9652000Y13462000D02*
X9652000Y14478000D01*
X10668000Y13462000D02*
X10668000Y14478000D01*
X1016000Y13208000D02*
X2413000Y13208000D01*
X2413000Y9144000D02*
X1016000Y9144000D01*
X7620000Y14478000D02*
X7620000Y13589000D01*
X2413000Y13208000D02*
X2540000Y13081000D01*
X2540000Y9017000D02*
X2413000Y9144000D01*
X2540000Y13081000D02*
X2540000Y12954000D01*
X2540000Y8890000D02*
X2540000Y9017000D01*
X2413000Y12827000D02*
X2540000Y12954000D01*
X2540000Y8890000D02*
X2413000Y8763000D01*
X2032000Y12827000D02*
X2413000Y12827000D01*
X2032000Y8763000D02*
X2413000Y8763000D01*
X12192000Y12446000D02*
X12192000Y13589000D01*
X12319000Y13716000D02*
X12192000Y13589000D01*
X12319000Y13716000D02*
X14509750Y13716000D01*
X13208000Y13716000D02*
X13208000Y14478000D01*
X14732000Y13493750D02*
X14509750Y13716000D01*
X14732000Y12446000D02*
X14732000Y13493750D01*
X2540000Y1524000D02*
X2921000Y1905000D01*
X3914682Y1905000D01*
X4064000Y1755682D01*
X4064000Y825500D02*
X4064000Y1755682D01*
X4635500Y254000D02*
X4064000Y825500D01*
X1651000Y2032000D02*
X1778000Y2159000D01*
X1778000Y2286000D01*
X1651000Y2032000D02*
X1143000Y2032000D01*
X1270000Y2032000D02*
X1143000Y2159000D01*
X1143000Y1905000D02*
X1143000Y2032000D01*
X1016000Y1778000D02*
X1143000Y1905000D01*
X1143000Y2159000D02*
X1143000Y4191000D01*
X8636000Y508000D02*
X9906000Y508000D01*
X1016000Y1778000D02*
X508000Y1778000D01*
X1143000Y4191000D02*
X508000Y4191000D01*
X9906000Y317500D02*
X9906000Y508000D01*
X9969500Y254000D02*
X14351000Y254000D01*
X9906000Y317500D02*
X9969500Y254000D01*
X13081000Y1053198D02*
X13081000Y254000D01*
X14351000Y254000D02*
X14605000Y508000D01*
X12192000Y1942198D02*
X13081000Y1053198D01*
X14605000Y508000D02*
X14605000Y11430000D01*
X12192000Y2159000D02*
X12192000Y1942198D01*
X14575242Y1524000D02*
X14224000Y1524000D01*
X14605000Y4064000D02*
X14224000Y4064000D01*
X14605000Y6858000D02*
X14224000Y6858000D01*
X14605000Y9398000D02*
X14224000Y9398000D01*
X14605000Y11430000D02*
X14986000Y11811000D01*
X14986000Y14097000D01*
X15367000Y12446000D02*
X14986000Y12446000D01*
X14986000Y14097000D02*
X14605000Y14478000D01*
X14160500Y14478000D02*
X14605000Y14478000D01*
X14160500Y14732000D02*
X14160500Y14478000D01*
X12446000Y3556000D02*
X12446000Y4318000D01*
X7620000Y9398000D02*
X12700000Y9398000D01*
X14033500Y14859000D02*
X14160500Y14732000D01*
X12446000Y4699000D02*
X12446000Y4318000D01*
X7620000Y9398000D02*
X6350000Y8128000D01*
X11049000Y9398000D02*
X11049000Y10604500D01*
X7493000Y14859000D02*
X14033500Y14859000D01*
X12319000Y4826000D02*
X12446000Y4699000D01*
X6350000Y8128000D02*
X4826000Y8128000D01*
X10223500Y11430000D02*
X11049000Y10604500D01*
X7366000Y14732000D02*
X7493000Y14859000D01*
X8382000Y14859000D02*
X8382000Y14478000D01*
X9398000Y14859000D02*
X9398000Y14478000D01*
X10414000Y14859000D02*
X10414000Y14478000D01*
X11430000Y14859000D02*
X11430000Y14478000D01*
X7366000Y4826000D02*
X12319000Y4826000D01*
X4826000Y7896318D02*
X4826000Y8128000D01*
X6858000Y11430000D02*
X10223500Y11430000D01*
X7366000Y14478000D02*
X7366000Y14732000D01*
X7239000Y4953000D02*
X7366000Y4826000D01*
X4676682Y7747000D02*
X4826000Y7896318D01*
X6096000Y12192000D02*
X6858000Y11430000D01*
X12446000Y12446000D02*
X12446000Y13208000D01*
X4467318Y7747000D02*
X4676682Y7747000D01*
X6096000Y12192000D02*
X4826000Y12192000D01*
X12827000Y12446000D02*
X12446000Y12446000D01*
X5715000Y5588000D02*
X5969000Y5334000D01*
X5969000Y4318000D02*
X5969000Y5334000D01*
X4467318Y7747000D02*
X4318000Y7896318D01*
X4826000Y11811000D02*
X4826000Y12192000D01*
X5080000Y5588000D02*
X5715000Y5588000D01*
X4699000Y4318000D02*
X5969000Y4318000D01*
X4318000Y7896318D02*
X4318000Y8128000D01*
X4826000Y11811000D02*
X4699000Y11684000D01*
X4572000Y4191000D02*
X4699000Y4318000D01*
X5715000Y4064000D02*
X5715000Y4318000D01*
X4318000Y8128000D02*
X4064000Y8128000D01*
X4445000Y11684000D02*
X4699000Y11684000D01*
X6127750Y3651250D02*
X5715000Y4064000D01*
X4445000Y11684000D02*
X4318000Y11811000D01*
X6127750Y3651250D02*
X6127750Y3333750D01*
X4318000Y11811000D02*
X4318000Y12192000D01*
X6127750Y3333750D02*
X5842000Y3048000D01*
X4318000Y12192000D02*
X4064000Y12192000D01*
X1524000Y8636000D02*
X1905000Y8255000D01*
X2032000Y8255000D01*
X2794000Y4191000D02*
X3048000Y4191000D01*
X1524000Y8636000D02*
X1524000Y8763000D01*
X3048000Y4191000D02*
X3175000Y4318000D01*
X1905000Y12319000D02*
X1524000Y12700000D01*
X2032000Y12319000D02*
X1905000Y12319000D01*
X3175000Y4318000D02*
X3937000Y4318000D01*
X1524000Y12700000D02*
X1524000Y12827000D01*
X3937000Y4318000D02*
X4064000Y4191000D01*
X4064000Y4064000D01*
G54D14*
X18796000Y9398000D02*
X20320000Y9398000D01*
X18796000Y9906000D02*
X18796000Y9398000D01*
X20701000Y9779000D02*
X20320000Y9398000D01*
X18796000Y9906000D02*
X19050000Y10160000D01*
X20701000Y9779000D02*
X21717000Y9779000D01*
X19050000Y10160000D02*
X19050000Y10668000D01*
X21717000Y9779000D02*
X21844000Y9652000D01*
X16002000Y7620000D02*
X16002000Y7366000D01*
X16256000Y7874000D02*
X16002000Y7620000D01*
X18796000Y7874000D02*
X16256000Y7874000D01*
X18796000Y6604000D02*
X20320000Y6604000D01*
X18796000Y7112000D02*
X18796000Y6604000D01*
X20320000Y6604000D02*
X20701000Y6985000D01*
X19050000Y7366000D02*
X18796000Y7112000D01*
X20701000Y6985000D02*
X21717000Y6985000D01*
X19050000Y7874000D02*
X19050000Y7366000D01*
X21717000Y6985000D02*
X21844000Y6858000D01*
X16002000Y2029464D02*
X16002000Y2157732D01*
X16130268Y2286000D01*
X18796000Y2286000D01*
X18796000Y1016000D02*
X20320000Y1016000D01*
X18796000Y1016000D02*
X18796000Y1524000D01*
X20701000Y1397000D02*
X20320000Y1016000D01*
X19050000Y1778000D02*
X18796000Y1524000D01*
X20701000Y1397000D02*
X21717000Y1397000D01*
X19050000Y2286000D02*
X19050000Y1778000D01*
X21717000Y1397000D02*
X21844000Y1270000D01*
X17018000Y10033000D02*
X17018000Y9398000D01*
X16891000Y10160000D02*
X17018000Y10033000D01*
X17018000Y7112000D02*
X17018000Y6604000D01*
X16891000Y10160000D02*
X16510000Y10160000D01*
X17018000Y7112000D02*
X16764000Y7366000D01*
X17018000Y4318000D02*
X17018000Y3810000D01*
X16764000Y7366000D02*
X16510000Y7366000D01*
X16764000Y4572000D02*
X17018000Y4318000D01*
X17018000Y1778000D02*
X17018000Y1025250D01*
X18034000Y11684000D02*
X18034000Y11430000D01*
X16764000Y4572000D02*
X16510000Y4572000D01*
X16764000Y2032000D02*
X17018000Y1778000D01*
X18034000Y11684000D02*
X18542000Y12192000D01*
X16764000Y2032000D02*
X16510000Y2032000D01*
X18542000Y12192000D02*
X18542000Y14478000D01*
X18034000Y14478000D02*
X19050000Y14478000D01*
X19050000Y12065000D02*
X19050000Y14478000D01*
X20955000Y10160000D02*
X19050000Y12065000D01*
X20955000Y10160000D02*
X21971000Y10160000D01*
X22352000Y9779000D02*
X21971000Y10160000D01*
X22352000Y2286000D02*
X22352000Y9779000D01*
X21844000Y1778000D02*
X22352000Y2286000D01*
X22352000Y4572000D02*
X21844000Y4572000D01*
X22352000Y7366000D02*
X21844000Y7366000D01*
X15494000Y8693500D02*
X15551500Y8636000D01*
X18923000Y8636000D01*
X18923000Y8636000D02*
X19304000Y8255000D01*
X19304000Y8255000D02*
X19304000Y7874000D01*
X21082000Y1006750D02*
X21082000Y752750D01*
X19304000Y5334000D02*
X19304000Y5080000D01*
X20828000Y11430000D02*
X20320000Y11938000D01*
X20837250Y508000D02*
X21082000Y752750D01*
X19304000Y2540000D02*
X19304000Y2286000D01*
X18796000Y5842000D02*
X19304000Y5334000D01*
X20320000Y11938000D02*
X20320000Y14478000D01*
X20837250Y508000D02*
X15748000Y508000D01*
X18796000Y3048000D02*
X19304000Y2540000D01*
X15748000Y5842000D02*
X18796000Y5842000D01*
X19812000Y14478000D02*
X20828000Y14478000D01*
X15748000Y508000D02*
X15494000Y762000D01*
X15719250Y3048000D02*
X18796000Y3048000D01*
X15494000Y6096000D02*
X15748000Y5842000D01*
X15465250Y3302000D02*
X15719250Y3048000D01*
X16002000Y10414000D02*
X16002000Y10160000D01*
X16256000Y10668000D02*
X16002000Y10414000D01*
X16256000Y10668000D02*
X18796000Y10668000D01*
X16002000Y4826000D02*
X16002000Y4572000D01*
X16256000Y5080000D02*
X16002000Y4826000D01*
X16256000Y5080000D02*
X18796000Y5080000D01*
X18796000Y3810000D02*
X20320000Y3810000D01*
X18796000Y4318000D02*
X18796000Y3810000D01*
X20320000Y3810000D02*
X20701000Y4191000D01*
X19050000Y4572000D02*
X18796000Y4318000D01*
X20701000Y4191000D02*
X21717000Y4191000D01*
X19050000Y5080000D02*
X19050000Y4572000D01*
X21717000Y4191000D02*
X21844000Y4064000D01*
G54D15*
X-25400Y-25400D02*
X-25400Y1503680D01*
X-25400Y-25400D02*
X2265680Y-25400D01*
X22885400Y-25400D02*
X20594320Y-25400D01*
X22885400Y-25400D02*
X22885400Y1503680D01*
X22885400Y15265400D02*
X22885400Y13736320D01*
X22885400Y15265400D02*
X20594320Y15265400D01*
X-25400Y15265400D02*
X2265680Y15265400D01*
X-25400Y15265400D02*
X-25400Y13736320D01*
X-525400Y-25400D02*
X-1525400Y-25400D01*
X-1025400Y-525400D02*
X-1025400Y474600D01*
X-1400400Y-25400D02*
G75*
D01*
G02X-1400400Y-25400I375000J0*
G01*
X23385400Y-25400D02*
X24385400Y-25400D01*
X23885400Y-525400D02*
X23885400Y474600D01*
X23510400Y-25400D02*
G75*
D01*
G02X23510400Y-25400I375000J0*
G01*
X23760400Y-25400D02*
G75*
D01*
G02X23760400Y-25400I125000J0*
G01*
X-525400Y15265400D02*
X-1525400Y15265400D01*
X-1025400Y14765400D02*
X-1025400Y15765400D01*
X-1400400Y15265400D02*
G75*
D01*
G02X-1400400Y15265400I375000J0*
G01*
X-1275400Y15265400D02*
G75*
D01*
G02X-1275400Y15265400I250000J0*
G01*
X-1150400Y15265400D02*
G75*
D01*
G02X-1150400Y15265400I125000J0*
G01*
X-25400Y-25400D02*
X-25400Y1503680D01*
X-25400Y-25400D02*
X2265680Y-25400D01*
X22885400Y-25400D02*
X20594320Y-25400D01*
X22885400Y-25400D02*
X22885400Y1503680D01*
X22885400Y15265400D02*
X22885400Y13736320D01*
X22885400Y15265400D02*
X20594320Y15265400D01*
X-25400Y15265400D02*
X2265680Y15265400D01*
X-25400Y15265400D02*
X-25400Y13736320D01*
X-525400Y-25400D02*
X-1525400Y-25400D01*
X-1025400Y-525400D02*
X-1025400Y474600D01*
X-1400400Y-25400D02*
G75*
D01*
G02X-1400400Y-25400I375000J0*
G01*
X23385400Y-25400D02*
X24385400Y-25400D01*
X23885400Y-525400D02*
X23885400Y474600D01*
X23510400Y-25400D02*
G75*
D01*
G02X23510400Y-25400I375000J0*
G01*
X23760400Y-25400D02*
G75*
D01*
G02X23760400Y-25400I125000J0*
G01*
X-525400Y15265400D02*
X-1525400Y15265400D01*
X-1025400Y14765400D02*
X-1025400Y15765400D01*
X-1400400Y15265400D02*
G75*
D01*
G02X-1400400Y15265400I375000J0*
G01*
X-1275400Y15265400D02*
G75*
D01*
G02X-1275400Y15265400I250000J0*
G01*
X-1150400Y15265400D02*
G75*
D01*
G02X-1150400Y15265400I125000J0*
G01*
G54D16*
X0Y0D02*
X22860000Y0D01*
X22860000Y15240000D01*
X0Y15240000D01*
X0Y0D01*
G54D17*
X12654496Y553504D03*
X12745504Y553504D03*
X12654496Y462496D03*
X12745504Y462496D03*
X462496Y1569504D03*
X553504Y1569504D03*
X462496Y1478496D03*
X553504Y1478496D03*
X462496Y4236504D03*
X553504Y4236504D03*
X462496Y4145496D03*
X553504Y4145496D03*
X7320496Y14523504D03*
X7411504Y14523504D03*
X7320496Y14432496D03*
X7411504Y14432496D03*
X8336496Y14523504D03*
X8427504Y14523504D03*
X8336496Y14432496D03*
X8427504Y14432496D03*
X9352496Y14523504D03*
X9443504Y14523504D03*
X9352496Y14432496D03*
X9443504Y14432496D03*
X10368496Y14523504D03*
X10459504Y14523504D03*
X10368496Y14432496D03*
X10459504Y14432496D03*
X11384496Y14523504D03*
X11475504Y14523504D03*
X11384496Y14432496D03*
X11475504Y14432496D03*
X6558496Y553504D03*
X6649504Y553504D03*
X6558496Y462496D03*
X6649504Y462496D03*
G54D18*
X14160500Y1831340D03*
X14287500Y1831340D03*
X14160500Y1724660D03*
X14287500Y1724660D03*
X18742660Y2362200D03*
X18849340Y2362200D03*
X18742660Y2209800D03*
X18849340Y2209800D03*
X14160500Y4371340D03*
X14287500Y4371340D03*
X14160500Y4264660D03*
X14287500Y4264660D03*
X18742660Y5156200D03*
X18849340Y5156200D03*
X18742660Y5003800D03*
X18849340Y5003800D03*
X14160500Y7165340D03*
X14287500Y7165340D03*
X14160500Y7058660D03*
X14287500Y7058660D03*
X18742660Y7950200D03*
X18849340Y7950200D03*
X18742660Y7797800D03*
X18849340Y7797800D03*
X14160500Y9705340D03*
X14287500Y9705340D03*
X14160500Y9598660D03*
X14287500Y9598660D03*
X18742660Y10744200D03*
X18849340Y10744200D03*
X18742660Y10591800D03*
X18849340Y10591800D03*
X3248660Y1460500D03*
X3355340Y1460500D03*
X3248660Y1333500D03*
X3355340Y1333500D03*
X7566660Y4394200D03*
X7673340Y4394200D03*
X7566660Y4241800D03*
X7673340Y4241800D03*
X3248660Y4127500D03*
X3355340Y4127500D03*
X3248660Y4000500D03*
X3355340Y4000500D03*
X4899660Y4127500D03*
X5006340Y4127500D03*
X4899660Y4000500D03*
X5006340Y4000500D03*
X2486660Y8191500D03*
X2593340Y8191500D03*
X2486660Y8064500D03*
X2593340Y8064500D03*
X2486660Y12255500D03*
X2593340Y12255500D03*
X2486660Y12128500D03*
X2593340Y12128500D03*
X11372850Y965200D03*
X11487150Y965200D03*
X11372850Y812800D03*
X11487150Y812800D03*
X12138660Y13284200D03*
X12245340Y13284200D03*
X12138660Y13131800D03*
X12245340Y13131800D03*
X14678660Y13284200D03*
X14785340Y13284200D03*
X14678660Y13131800D03*
X14785340Y13131800D03*
G54D19*
X14213840Y1524000D03*
X14234160Y1524000D03*
X14213840Y1270000D03*
X14234160Y1270000D03*
X14975840Y1270000D03*
X14996160Y1270000D03*
X14975840Y1524000D03*
X14996160Y1524000D03*
X14975840Y1778000D03*
X14996160Y1778000D03*
X19050000Y2308860D03*
X19050000Y2263140D03*
X19304000Y2308860D03*
X19304000Y2263140D03*
X14213840Y4064000D03*
X14234160Y4064000D03*
X14213840Y3810000D03*
X14234160Y3810000D03*
X14975840Y3810000D03*
X14996160Y3810000D03*
X14975840Y4064000D03*
X14996160Y4064000D03*
X14975840Y4318000D03*
X14996160Y4318000D03*
X19050000Y5102860D03*
X19050000Y5057140D03*
X19304000Y5102860D03*
X19304000Y5057140D03*
X14213840Y6858000D03*
X14234160Y6858000D03*
X14213840Y6604000D03*
X14234160Y6604000D03*
X14975840Y6604000D03*
X14996160Y6604000D03*
X14975840Y6858000D03*
X14996160Y6858000D03*
X14975840Y7112000D03*
X14996160Y7112000D03*
X19050000Y7896860D03*
X19050000Y7851140D03*
X19304000Y7896860D03*
X19304000Y7851140D03*
X14213840Y9398000D03*
X14234160Y9398000D03*
X14213840Y9144000D03*
X14234160Y9144000D03*
X14975840Y9144000D03*
X14996160Y9144000D03*
X14975840Y9398000D03*
X14996160Y9398000D03*
X14975840Y9652000D03*
X14996160Y9652000D03*
X19050000Y10690860D03*
X19050000Y10645140D03*
X19304000Y10690860D03*
X19304000Y10645140D03*
X3556000Y1407160D03*
X3556000Y1386840D03*
X3810000Y1407160D03*
X3810000Y1386840D03*
X4064000Y1407160D03*
X4064000Y1386840D03*
X3302000Y2169160D03*
X3302000Y2148840D03*
X3556000Y2169160D03*
X3556000Y2148840D03*
X3810000Y2169160D03*
X3810000Y2148840D03*
X4064000Y2169160D03*
X4064000Y2148840D03*
X8890000Y4340860D03*
X8890000Y4295140D03*
X8128000Y4340860D03*
X8128000Y4295140D03*
X7874000Y4340860D03*
X7874000Y4295140D03*
X8636000Y4340860D03*
X8636000Y4295140D03*
X8382000Y4340860D03*
X8382000Y4295140D03*
X10414000Y4340860D03*
X10414000Y4295140D03*
X9652000Y4340860D03*
X9652000Y4295140D03*
X9398000Y4340860D03*
X9398000Y4295140D03*
X9144000Y4340860D03*
X9144000Y4295140D03*
X9906000Y4340860D03*
X9906000Y4295140D03*
X10160000Y4340860D03*
X10160000Y4295140D03*
X11176000Y4340860D03*
X11176000Y4295140D03*
X10668000Y4340860D03*
X10668000Y4295140D03*
X10922000Y4340860D03*
X10922000Y4295140D03*
X11938000Y4340860D03*
X11938000Y4295140D03*
X11430000Y4340860D03*
X11430000Y4295140D03*
X11684000Y4340860D03*
X11684000Y4295140D03*
X12192000Y4340860D03*
X12192000Y4295140D03*
X12446000Y4340860D03*
X12446000Y4295140D03*
X8890000Y5864860D03*
X8890000Y5819140D03*
X8128000Y5864860D03*
X8128000Y5819140D03*
X7874000Y5864860D03*
X7874000Y5819140D03*
X8636000Y5864860D03*
X8636000Y5819140D03*
X8382000Y5864860D03*
X8382000Y5819140D03*
X10414000Y5864860D03*
X10414000Y5819140D03*
X9652000Y5864860D03*
X9652000Y5819140D03*
X9398000Y5864860D03*
X9398000Y5819140D03*
X9144000Y5864860D03*
X9144000Y5819140D03*
X10160000Y5864860D03*
X10160000Y5819140D03*
X9906000Y5864860D03*
X9906000Y5819140D03*
X11176000Y5864860D03*
X11176000Y5819140D03*
X10922000Y5864860D03*
X10922000Y5819140D03*
X10668000Y5864860D03*
X10668000Y5819140D03*
X11938000Y5864860D03*
X11938000Y5819140D03*
X11684000Y5864860D03*
X11684000Y5819140D03*
X11430000Y5864860D03*
X11430000Y5819140D03*
X12192000Y5864860D03*
X12192000Y5819140D03*
X12446000Y5864860D03*
X12446000Y5819140D03*
X7620000Y5864860D03*
X7620000Y5819140D03*
X3556000Y4074160D03*
X3556000Y4053840D03*
X3810000Y4074160D03*
X3810000Y4053840D03*
X4064000Y4074160D03*
X4064000Y4053840D03*
X3302000Y4836160D03*
X3302000Y4815840D03*
X3556000Y4836160D03*
X3556000Y4815840D03*
X3810000Y4836160D03*
X3810000Y4815840D03*
X4064000Y4836160D03*
X4064000Y4815840D03*
X5207000Y4074160D03*
X5207000Y4053840D03*
X5461000Y4074160D03*
X5461000Y4053840D03*
X5715000Y4074160D03*
X5715000Y4053840D03*
X4953000Y4836160D03*
X4953000Y4815840D03*
X5207000Y4836160D03*
X5207000Y4815840D03*
X5461000Y4836160D03*
X5461000Y4815840D03*
X5715000Y4836160D03*
X5715000Y4815840D03*
X2794000Y8138160D03*
X2794000Y8117840D03*
X3048000Y8138160D03*
X3048000Y8117840D03*
X3302000Y8138160D03*
X3302000Y8117840D03*
X3556000Y8138160D03*
X3556000Y8117840D03*
X3810000Y8138160D03*
X3810000Y8117840D03*
X4064000Y8138160D03*
X4064000Y8117840D03*
X4318000Y8138160D03*
X4318000Y8117840D03*
X4572000Y8138160D03*
X4572000Y8117840D03*
X4826000Y8138160D03*
X4826000Y8117840D03*
X2794000Y8900160D03*
X2794000Y8879840D03*
X3048000Y8900160D03*
X3048000Y8879840D03*
X3302000Y8900160D03*
X3302000Y8879840D03*
X3556000Y8900160D03*
X3556000Y8879840D03*
X3810000Y8900160D03*
X3810000Y8879840D03*
X4064000Y8900160D03*
X4064000Y8879840D03*
X4318000Y8900160D03*
X4318000Y8879840D03*
X4572000Y8900160D03*
X4572000Y8879840D03*
X4826000Y8900160D03*
X4826000Y8879840D03*
X2540000Y8900160D03*
X2540000Y8879840D03*
X2794000Y12202160D03*
X2794000Y12181840D03*
X3048000Y12202160D03*
X3048000Y12181840D03*
X3302000Y12202160D03*
X3302000Y12181840D03*
X3556000Y12202160D03*
X3556000Y12181840D03*
X3810000Y12202160D03*
X3810000Y12181840D03*
X4064000Y12202160D03*
X4064000Y12181840D03*
X4318000Y12202160D03*
X4318000Y12181840D03*
X4572000Y12202160D03*
X4572000Y12181840D03*
X4826000Y12202160D03*
X4826000Y12181840D03*
X2794000Y12964160D03*
X2794000Y12943840D03*
X3048000Y12964160D03*
X3048000Y12943840D03*
X3302000Y12964160D03*
X3302000Y12943840D03*
X3556000Y12964160D03*
X3556000Y12943840D03*
X3810000Y12964160D03*
X3810000Y12943840D03*
X4064000Y12964160D03*
X4064000Y12943840D03*
X4318000Y12964160D03*
X4318000Y12943840D03*
X4572000Y12964160D03*
X4572000Y12943840D03*
X4826000Y12964160D03*
X4826000Y12943840D03*
X2540000Y12964160D03*
X2540000Y12943840D03*
X11680190Y911860D03*
X11687810Y911860D03*
X11680190Y866140D03*
X11687810Y866140D03*
X11934190Y911860D03*
X11941810Y911860D03*
X11934190Y866140D03*
X11941810Y866140D03*
X12188190Y911860D03*
X12195810Y911860D03*
X12188190Y866140D03*
X12195810Y866140D03*
X12442190Y911860D03*
X12449810Y911860D03*
X12442190Y866140D03*
X12449810Y866140D03*
X11426190Y2181860D03*
X11433810Y2181860D03*
X11426190Y2136140D03*
X11433810Y2136140D03*
X11680190Y2181860D03*
X11687810Y2181860D03*
X11680190Y2136140D03*
X11687810Y2136140D03*
X11934190Y2181860D03*
X11941810Y2181860D03*
X11934190Y2136140D03*
X11941810Y2136140D03*
X12188190Y2181860D03*
X12195810Y2181860D03*
X12188190Y2136140D03*
X12195810Y2136140D03*
X12442190Y2181860D03*
X12449810Y2181860D03*
X12442190Y2136140D03*
X12449810Y2136140D03*
X12696190Y2181860D03*
X12703810Y2181860D03*
X12696190Y2136140D03*
X12703810Y2136140D03*
X12696190Y911860D03*
X12703810Y911860D03*
X12696190Y866140D03*
X12703810Y866140D03*
X12446000Y13230860D03*
X12446000Y13185140D03*
X12700000Y13230860D03*
X12700000Y13185140D03*
X14986000Y13230860D03*
X14986000Y13185140D03*
X15240000Y13230860D03*
X15240000Y13185140D03*
G54D20*
X21767800Y1854200D03*
X21920200Y1854200D03*
X21767800Y1701800D03*
X21920200Y1701800D03*
X21767800Y4648200D03*
X21920200Y4648200D03*
X21767800Y4495800D03*
X21920200Y4495800D03*
X21767800Y7442200D03*
X21920200Y7442200D03*
X21767800Y7289800D03*
X21920200Y7289800D03*
X21767800Y10236200D03*
X21920200Y10236200D03*
X21767800Y10083800D03*
X21920200Y10083800D03*
G54D21*
X12192000Y508000D03*
X12446000Y508000D03*
X11938000Y508000D03*
X508000Y1778000D03*
X508000Y2032000D03*
X508000Y4699000D03*
X508000Y4445000D03*
X508000Y4953000D03*
X7620000Y14478000D03*
X7874000Y14478000D03*
X8636000Y14478000D03*
X8890000Y14478000D03*
X9652000Y14478000D03*
X9906000Y14478000D03*
X10668000Y14478000D03*
X10922000Y14478000D03*
X11684000Y14478000D03*
X11938000Y14478000D03*
X8382000Y508000D03*
X7620000Y508000D03*
X7112000Y508000D03*
X6858000Y508000D03*
X7366000Y508000D03*
X7874000Y508000D03*
X8128000Y508000D03*
X8636000Y508000D03*
G54D22*
X17036500Y1016000D03*
X19304000Y1016000D03*
X17018000Y3810000D03*
X19304000Y3810000D03*
X17018000Y6604000D03*
X19304000Y6604000D03*
X17018000Y9398000D03*
X19304000Y9398000D03*
X13208000Y14478000D03*
X18034000Y14478000D03*
X19812000Y14478000D03*
G54D23*
X18796000Y1016000D03*
X21063500Y1016000D03*
X21844000Y1270000D03*
X18777500Y3810000D03*
X21063500Y3810000D03*
X21844000Y4064000D03*
X18777500Y6604000D03*
X21063500Y6604000D03*
X21844000Y6858000D03*
X18777500Y9398000D03*
X21063500Y9398000D03*
X21844000Y9652000D03*
X13716000Y14478000D03*
X14224000Y14478000D03*
X18542000Y14478000D03*
X19050000Y14478000D03*
X20320000Y14478000D03*
X20828000Y14478000D03*
G54D24*
X15494000Y2482500D03*
X15494000Y5080000D03*
X15494000Y7874000D03*
X15494000Y10414000D03*
G54D25*
X15494000Y762000D03*
X15494000Y3359500D03*
X15494000Y6153500D03*
X15494000Y8693500D03*
G54D26*
X15999555Y2027018D03*
X15999555Y1011018D03*
X16510000Y1016000D03*
X16510000Y2032000D03*
X16002000Y4572000D03*
X16002000Y3556000D03*
X16510000Y3556000D03*
X16510000Y4572000D03*
X16002000Y7366000D03*
X16002000Y6350000D03*
X16510000Y6350000D03*
X16510000Y7366000D03*
X16002000Y10160000D03*
X16002000Y9144000D03*
X16510000Y9144000D03*
X16510000Y10160000D03*
X2540000Y2032000D03*
X2540000Y1524000D03*
X1778000Y2286000D03*
X1778000Y1270000D03*
X1143000Y1524000D03*
X1143000Y2032000D03*
X7239000Y4953000D03*
X7239000Y5461000D03*
X4191000Y3048000D03*
X3175000Y3048000D03*
X3175000Y3429000D03*
X4191000Y3429000D03*
X4826000Y3429000D03*
X5842000Y3429000D03*
X2032000Y4699000D03*
X2032000Y4191000D03*
X1778000Y4445000D03*
X1143000Y4699000D03*
X1143000Y4191000D03*
X2794000Y4699000D03*
X2794000Y4191000D03*
X4572000Y4699000D03*
X4572000Y4191000D03*
X5080000Y5588000D03*
X5080000Y6096000D03*
X5334000Y5842000D03*
X4191000Y5842000D03*
X3175000Y5842000D03*
X9652000Y508000D03*
X9652000Y762000D03*
X10160000Y508000D03*
X9906000Y508000D03*
X9906000Y762000D03*
X9144000Y762000D03*
X9144000Y508000D03*
X9398000Y508000D03*
X9398000Y762000D03*
X2032000Y8763000D03*
X2032000Y8255000D03*
X2032000Y12827000D03*
X2032000Y12319000D03*
X5080000Y1778000D03*
X5080000Y1270000D03*
X4826000Y1524000D03*
X12446000Y12446000D03*
X14986000Y12446000D03*
X13335000Y12446000D03*
X12827000Y12446000D03*
X15875000Y12446000D03*
X15367000Y12446000D03*
X18034000Y11430000D03*
X20828000Y11430000D03*
X3302000Y1016000D03*
X2794000Y762000D03*
X2794000Y1270000D03*
X4318000Y1651000D03*
X5461000Y3683000D03*
X3810000Y3810000D03*
X762000Y4445000D03*
X762000Y5080000D03*
X4064000Y5080000D03*
X10160000Y1270000D03*
X7874000Y1524000D03*
X7620000Y2032000D03*
X13843000Y1778000D03*
X10922000Y1016000D03*
X6604000Y1016000D03*
X11430000Y7112000D03*
X9652000Y7366000D03*
X9398000Y7620000D03*
X9144000Y7874000D03*
X8890000Y8128000D03*
X8636000Y8382000D03*
X8382000Y8636000D03*
X5334000Y8890000D03*
X8128000Y8890000D03*
X5588000Y9144000D03*
X7874000Y9144000D03*
X5842000Y9398000D03*
X6096000Y9652000D03*
X6350000Y9906000D03*
X6604000Y10160000D03*
X6858000Y10414000D03*
X7112000Y10668000D03*
X3810000Y11684000D03*
X7620000Y12446000D03*
X7366000Y12700000D03*
X5334000Y12954000D03*
X5588000Y13208000D03*
X5842000Y13462000D03*
X6096000Y13716000D03*
X6350000Y13970000D03*
X6604000Y14224000D03*
X6858000Y14478000D03*
X1016000Y13208000D03*
X1016000Y9144000D03*
X5080000Y889000D03*
X3683000Y2540000D03*
X1778000Y6858000D03*
X1778000Y5969000D03*
X14605000Y3302000D03*
X13843000Y6604000D03*
X7620000Y6604000D03*
X7874000Y3937000D03*
X10922000Y3175000D03*
X11430000Y3175000D03*
X12446000Y3175000D03*
X12446000Y3556000D03*
X5969000Y5334000D03*
X13462000Y7112000D03*
X5842000Y6604000D03*
X3556000Y6604000D03*
X2540000Y6604000D03*
X7366000Y10160000D03*
X7620000Y10414000D03*
X10668000Y9779000D03*
X14605000Y8382000D03*
X12700000Y6096000D03*
X12700000Y9398000D03*
X11684000Y4064000D03*
X10414000Y3810000D03*
X13208000Y4064000D03*
X9906000Y11176000D03*
X11049000Y11176000D03*
X12954000Y11176000D03*
X13462000Y11684000D03*
X15875000Y11684000D03*
X8890000Y10668000D03*
X8890000Y13970000D03*
X9906000Y13970000D03*
X10922000Y13970000D03*
X11938000Y13970000D03*
X9906000Y6350000D03*
X9398000Y8890000D03*
X8890000Y9779000D03*
X8763000Y8890000D03*
X8128000Y9779000D03*
X8128000Y10668000D03*
X7874000Y13970000D03*
X7112000Y14732000D03*
X4572000Y11684000D03*
X14097000Y10160000D03*
X13081000Y10160000D03*
X14097000Y7620000D03*
X13081000Y7620000D03*
X14097000Y4826000D03*
X13081000Y4826000D03*
X5842000Y3048000D03*
X4826000Y3048000D03*
X14097000Y2286000D03*
X13081000Y2286000D03*
X1524000Y12827000D03*
X1524000Y12319000D03*
X1524000Y8763000D03*
X1524000Y8255000D03*
X2286000Y11684000D03*
X3302000Y11684000D03*
X2286000Y7620000D03*
X3302000Y7620000D03*
X3048000Y5461000D03*
X4064000Y5461000D03*
X7493000Y3937000D03*
X11303000Y7493000D03*
X10922000Y7493000D03*
X10541000Y7493000D03*
X11557000Y8636000D03*
X12319000Y8636000D03*
X11938000Y8636000D03*
X8890000Y1270000D03*
X9652000Y2286000D03*
X8382000Y2286000D03*
X4572000Y7747000D03*
G54D27*
X10160000Y762000D03*
X12192000Y12446000D03*
X14732000Y12446000D03*
G54D28*
X2540000Y7112000D03*
X8128000Y1778000D03*
X1778000Y2032000D03*
X4572000Y4191000D03*

M02*
