G04 Generated by Ultiboard 14.3 *
%FSLAX35Y35*%
%MOMM*%

%ADD10C,0.00001*%
%ADD11C,0.20320*%
%ADD12C,0.15556*%
%ADD13C,0.00100*%
%ADD14C,0.20000*%
%ADD15C,0.15522*%
%ADD16C,0.20010*%
%ADD17C,0.25400*%
%ADD18C,0.22222*%
%ADD19C,0.12700*%
%ADD20C,0.00127*%
%ADD21C,1.00000*%
%ADD22C,0.50000*%


G04 ColorRGB FFFF00 for the following layer *
%LNSilkscreen Top*%
%LPD*%
G54D10*
G54D11*
X12802348Y739307D02*
X12774126Y754426D01*
X12745904Y754426D01*
X12717681Y739307D01*
X12717681Y678831D01*
X12675348Y693950D02*
X12647126Y678831D01*
X12618904Y678831D01*
X12590681Y693950D01*
X12590681Y701509D01*
X12675348Y754426D01*
X12590681Y754426D01*
X12590681Y746867D01*
X11811000Y635000D02*
X12827000Y635000D01*
X11811000Y381000D02*
X12573000Y381000D01*
X12827000Y381000D02*
X12827000Y635000D01*
X12636500Y381000D02*
X12827000Y381000D01*
X12594167Y381000D02*
X12594167Y465667D01*
X12615333Y402167D02*
X12594167Y381000D01*
X11811000Y381000D02*
X11811000Y635000D01*
X18811119Y331611D02*
X18826238Y359833D01*
X18826238Y388056D01*
X18811119Y416278D01*
X18750643Y416278D01*
X18765762Y472722D02*
X18750643Y500944D01*
X18826238Y500944D01*
X18826238Y458611D02*
X18826238Y543278D01*
X18750643Y670278D02*
X18750643Y585611D01*
X18780881Y585611D01*
X18780881Y642056D01*
X18796000Y670278D01*
X18811119Y670278D01*
X18826238Y642056D01*
X18826238Y585611D01*
X19050000Y381000D02*
X18923000Y508000D01*
X19050000Y635000D01*
X19177000Y508000D02*
X19050000Y381000D01*
X19050000Y635000D02*
X19177000Y508000D01*
X15764000Y1873207D02*
X15839595Y1873207D01*
X15839595Y1816763D01*
X15824476Y1788541D01*
X15816917Y1788541D01*
X15801798Y1816763D01*
X15801798Y1873207D01*
X15801798Y1859096D02*
X15764000Y1788541D01*
X15824476Y1732096D02*
X15839595Y1703874D01*
X15764000Y1703874D01*
X15764000Y1746207D02*
X15764000Y1661541D01*
X15794238Y1534541D02*
X15794238Y1619207D01*
X15839595Y1548652D01*
X15764000Y1548652D01*
X15764000Y1562763D02*
X15764000Y1534541D01*
X15893721Y1328518D02*
X15893721Y1709518D01*
X16105388Y1328518D02*
X16105388Y1709518D01*
X15999555Y1836518D02*
X15872555Y1815352D01*
X15872555Y1730685D02*
X15893721Y1709518D01*
X15872555Y1815352D02*
X15872555Y1730685D01*
X15999555Y1900018D02*
X15999555Y1836518D01*
X16126555Y1815352D01*
X16126555Y1730685D01*
X16105388Y1709518D01*
X15999555Y1201518D02*
X15999555Y1138018D01*
X15999555Y1201518D02*
X15872555Y1222685D01*
X15872555Y1307352D02*
X15893721Y1328518D01*
X15872555Y1222685D02*
X15872555Y1307352D01*
X15999555Y1201518D02*
X16126555Y1222685D01*
X16126555Y1307352D02*
X16105388Y1328518D01*
X16126555Y1222685D02*
X16126555Y1307352D01*
X16745555Y1169811D02*
X16669960Y1169811D01*
X16669960Y1226256D01*
X16685079Y1254478D01*
X16692638Y1254478D01*
X16707757Y1226256D01*
X16707757Y1169811D01*
X16707757Y1183922D02*
X16745555Y1254478D01*
X16685079Y1310922D02*
X16669960Y1339144D01*
X16745555Y1339144D01*
X16745555Y1296811D02*
X16745555Y1381478D01*
X16677519Y1437922D02*
X16669960Y1452033D01*
X16669960Y1480256D01*
X16685079Y1508478D01*
X16700198Y1508478D01*
X16707757Y1494367D01*
X16715317Y1508478D01*
X16730436Y1508478D01*
X16745555Y1480256D01*
X16745555Y1452033D01*
X16737995Y1437922D01*
X16707757Y1452033D02*
X16707757Y1494367D01*
X16615833Y1714500D02*
X16615833Y1333500D01*
X16404167Y1714500D02*
X16404167Y1333500D01*
X16510000Y1206500D02*
X16637000Y1227667D01*
X16637000Y1312333D02*
X16615833Y1333500D01*
X16637000Y1227667D02*
X16637000Y1312333D01*
X16510000Y1143000D02*
X16510000Y1206500D01*
X16383000Y1227667D01*
X16383000Y1312333D01*
X16404167Y1333500D01*
X16510000Y1841500D02*
X16510000Y1905000D01*
X16510000Y1841500D02*
X16637000Y1820333D01*
X16637000Y1735667D02*
X16615833Y1714500D01*
X16637000Y1820333D02*
X16637000Y1735667D01*
X16510000Y1841500D02*
X16383000Y1820333D01*
X16383000Y1735667D02*
X16404167Y1714500D01*
X16383000Y1820333D02*
X16383000Y1735667D01*
X14060865Y1936515D02*
X13974989Y1936515D01*
X13953520Y1889478D01*
X13953520Y1842441D01*
X13974989Y1795404D01*
X14060865Y1795404D01*
X14039396Y1701330D02*
X14060865Y1654293D01*
X13953520Y1654293D01*
X13953520Y1724848D02*
X13953520Y1583737D01*
X14060865Y1395589D02*
X14060865Y1466144D01*
X14039396Y1513181D01*
X13996458Y1513181D01*
X13974989Y1513181D01*
X13953520Y1466144D01*
X13953520Y1419107D01*
X13974989Y1372070D01*
X13996458Y1372070D01*
X14017927Y1419107D01*
X14017927Y1466144D01*
X13996458Y1513181D01*
X14300200Y1143000D02*
X14300200Y1905000D01*
X14909800Y1905000D02*
X14909800Y1143000D01*
X14478000Y1905000D02*
X14300200Y1905000D01*
X14732000Y1905000D02*
X14909800Y1905000D01*
X14909800Y1143000D02*
X14300200Y1143000D01*
X14478000Y1905000D02*
X14478483Y1893931D01*
X14479929Y1882947D01*
X14482327Y1872130D01*
X14485659Y1861563D01*
X14489899Y1851327D01*
X14495015Y1841500D01*
X14500968Y1832156D01*
X14507712Y1823366D01*
X14515197Y1815197D01*
X14523366Y1807712D01*
X14532156Y1800968D01*
X14541500Y1795015D01*
X14551328Y1789899D01*
X14561564Y1785659D01*
X14572130Y1782327D01*
X14582947Y1779929D01*
X14593931Y1778483D01*
X14605000Y1778000D01*
X14616069Y1778483D01*
X14627053Y1779929D01*
X14637870Y1782327D01*
X14648437Y1785659D01*
X14658673Y1789899D01*
X14668500Y1795015D01*
X14677844Y1800968D01*
X14686634Y1807712D01*
X14694803Y1815197D01*
X14702288Y1823366D01*
X14709032Y1832156D01*
X14714985Y1841500D01*
X14720101Y1851328D01*
X14724341Y1861564D01*
X14727673Y1872130D01*
X14730071Y1882947D01*
X14731517Y1893931D01*
X14732000Y1905000D01*
X22244000Y2024000D02*
X21444000Y2024000D01*
X21444000Y1024000D01*
X22244000Y1024000D01*
X22244000Y2024000D01*
X19557840Y2438400D02*
X18545500Y2438500D01*
X19557840Y2095500D02*
X18543500Y2095500D01*
X18544500Y2558000D02*
X19557840Y2557840D01*
X18542160Y2425700D02*
X18542160Y2095500D01*
X18542160Y2557840D02*
X18542160Y2418140D01*
X19557840Y2557840D02*
X19557840Y2418140D01*
X16906240Y1676400D02*
X18072947Y1678093D01*
X16907933Y1738207D02*
X18074640Y1742440D01*
X19946620Y1754294D02*
X19954240Y2567940D01*
X19999963Y1755140D02*
X20000044Y1753295D01*
X20000285Y1751465D01*
X20000685Y1749662D01*
X20001240Y1747901D01*
X20001947Y1746195D01*
X20002799Y1744557D01*
X20003791Y1742999D01*
X20004915Y1741534D01*
X20006163Y1740173D01*
X20007524Y1738926D01*
X20008989Y1737801D01*
X20010547Y1736809D01*
X20012185Y1735957D01*
X20013891Y1735250D01*
X20015652Y1734695D01*
X20017454Y1734295D01*
X20019285Y1734054D01*
X20021130Y1733973D01*
X20021130Y1733973D01*
X19945773Y1752600D02*
X19946096Y1745221D01*
X19947060Y1737898D01*
X19948658Y1730687D01*
X19950879Y1723642D01*
X19953706Y1716818D01*
X19957117Y1710267D01*
X19961085Y1704037D01*
X19965582Y1698177D01*
X19970572Y1692732D01*
X19976017Y1687742D01*
X19981877Y1683245D01*
X19988107Y1679277D01*
X19994658Y1675866D01*
X20001482Y1673039D01*
X20008527Y1670818D01*
X20015738Y1669220D01*
X20023061Y1668256D01*
X20030440Y1667933D01*
X20030440Y1667933D01*
X21193760Y1732280D02*
X20021127Y1733973D01*
X20030440Y1671320D02*
X21193760Y1668780D01*
X18102580Y2586567D02*
X18094960Y1762760D01*
X18161000Y2576407D02*
X18158460Y1762760D01*
X20007580Y2586567D02*
X19999960Y1757680D01*
X18186400Y2607733D02*
X19926300Y2608580D01*
X19913600Y2672080D02*
X18186400Y2671233D01*
X18186400Y2671237D02*
X18179021Y2670915D01*
X18171698Y2669950D01*
X18164487Y2668352D01*
X18157442Y2666131D01*
X18150618Y2663304D01*
X18144067Y2659894D01*
X18137837Y2655925D01*
X18131977Y2651429D01*
X18126532Y2646438D01*
X18121542Y2640993D01*
X18117045Y2635133D01*
X18113077Y2628903D01*
X18109666Y2622352D01*
X18106839Y2615528D01*
X18104618Y2608483D01*
X18103020Y2601272D01*
X18102055Y2593949D01*
X18101733Y2586570D01*
X18101733Y2586570D01*
X18186400Y2607737D02*
X18184555Y2607656D01*
X18182725Y2607415D01*
X18180922Y2607015D01*
X18179161Y2606460D01*
X18177455Y2605754D01*
X18175817Y2604901D01*
X18174259Y2603909D01*
X18172794Y2602785D01*
X18171433Y2601537D01*
X18170185Y2600176D01*
X18169061Y2598711D01*
X18168069Y2597153D01*
X18167216Y2595516D01*
X18166510Y2593810D01*
X18165955Y2592048D01*
X18165555Y2590246D01*
X18165314Y2588415D01*
X18165233Y2586570D01*
X18165233Y2586570D01*
X18072950Y1678093D02*
X18080329Y1678415D01*
X18087652Y1679380D01*
X18094863Y1680978D01*
X18101908Y1683199D01*
X18108732Y1686026D01*
X18115283Y1689437D01*
X18121513Y1693405D01*
X18127373Y1697902D01*
X18132818Y1702892D01*
X18137809Y1708337D01*
X18142305Y1714197D01*
X18146274Y1720427D01*
X18149684Y1726978D01*
X18152511Y1733802D01*
X18154732Y1740847D01*
X18156330Y1748058D01*
X18157295Y1755381D01*
X18157617Y1762760D01*
X18157617Y1762760D01*
X18072950Y1741593D02*
X18074795Y1741674D01*
X18076626Y1741915D01*
X18078428Y1742315D01*
X18080190Y1742870D01*
X18081896Y1743576D01*
X18083533Y1744429D01*
X18085091Y1745421D01*
X18086556Y1746545D01*
X18087917Y1747793D01*
X18089165Y1749154D01*
X18090289Y1750619D01*
X18091281Y1752177D01*
X18092134Y1753815D01*
X18092840Y1755521D01*
X18093395Y1757282D01*
X18093795Y1759085D01*
X18094036Y1760915D01*
X18094117Y1762760D01*
X20005887Y2585720D02*
X20005565Y2593099D01*
X20004600Y2600422D01*
X20003002Y2607633D01*
X20000781Y2614678D01*
X19997954Y2621502D01*
X19994544Y2628053D01*
X19990575Y2634283D01*
X19986078Y2640143D01*
X19981088Y2645588D01*
X19975643Y2650578D01*
X19969783Y2655075D01*
X19963553Y2659044D01*
X19957002Y2662454D01*
X19950178Y2665281D01*
X19943133Y2667502D01*
X19935922Y2669100D01*
X19928599Y2670065D01*
X19921220Y2670387D01*
X19947043Y2585720D02*
X19946963Y2587565D01*
X19946722Y2589396D01*
X19946322Y2591198D01*
X19945767Y2592959D01*
X19945060Y2594665D01*
X19944207Y2596303D01*
X19943215Y2597861D01*
X19942091Y2599326D01*
X19940844Y2600687D01*
X19939482Y2601935D01*
X19938017Y2603059D01*
X19936460Y2604051D01*
X19934822Y2604904D01*
X19933116Y2605610D01*
X19931355Y2606165D01*
X19929552Y2606565D01*
X19927721Y2606806D01*
X19925877Y2606887D01*
X18811119Y3125611D02*
X18826238Y3153833D01*
X18826238Y3182056D01*
X18811119Y3210278D01*
X18750643Y3210278D01*
X18765762Y3266722D02*
X18750643Y3294944D01*
X18826238Y3294944D01*
X18826238Y3252611D02*
X18826238Y3337278D01*
X18826238Y3421944D02*
X18788441Y3421944D01*
X18765762Y3464278D01*
X18750643Y3464278D01*
X18750643Y3379611D01*
X18765762Y3379611D01*
X19050000Y3175000D02*
X18923000Y3302000D01*
X19050000Y3429000D01*
X19177000Y3302000D02*
X19050000Y3175000D01*
X19050000Y3429000D02*
X19177000Y3302000D01*
X15766445Y4418189D02*
X15842040Y4418189D01*
X15842040Y4361745D01*
X15826921Y4333522D01*
X15819362Y4333522D01*
X15804243Y4361745D01*
X15804243Y4418189D01*
X15804243Y4404078D02*
X15766445Y4333522D01*
X15826921Y4277078D02*
X15842040Y4248856D01*
X15766445Y4248856D01*
X15766445Y4291189D02*
X15766445Y4206522D01*
X15766445Y4121856D02*
X15804243Y4121856D01*
X15826921Y4079522D01*
X15842040Y4079522D01*
X15842040Y4164189D01*
X15826921Y4164189D01*
X15896167Y3873500D02*
X15896167Y4254500D01*
X16107833Y3873500D02*
X16107833Y4254500D01*
X16002000Y4381500D02*
X15875000Y4360333D01*
X15875000Y4275667D02*
X15896167Y4254500D01*
X15875000Y4360333D02*
X15875000Y4275667D01*
X16002000Y4445000D02*
X16002000Y4381500D01*
X16129000Y4360333D01*
X16129000Y4275667D01*
X16107833Y4254500D01*
X16002000Y3746500D02*
X16002000Y3683000D01*
X16002000Y3746500D02*
X15875000Y3767667D01*
X15875000Y3852333D02*
X15896167Y3873500D01*
X15875000Y3767667D02*
X15875000Y3852333D01*
X16002000Y3746500D02*
X16129000Y3767667D01*
X16129000Y3852333D02*
X16107833Y3873500D01*
X16129000Y3767667D02*
X16129000Y3852333D01*
X16745555Y3709811D02*
X16669960Y3709811D01*
X16669960Y3766256D01*
X16685079Y3794478D01*
X16692638Y3794478D01*
X16707757Y3766256D01*
X16707757Y3709811D01*
X16707757Y3723922D02*
X16745555Y3794478D01*
X16685079Y3850922D02*
X16669960Y3879144D01*
X16745555Y3879144D01*
X16745555Y3836811D02*
X16745555Y3921478D01*
X16669960Y4034367D02*
X16669960Y3992033D01*
X16685079Y3963811D01*
X16715317Y3963811D01*
X16730436Y3963811D01*
X16745555Y3992033D01*
X16745555Y4020256D01*
X16730436Y4048478D01*
X16715317Y4048478D01*
X16700198Y4020256D01*
X16700198Y3992033D01*
X16715317Y3963811D01*
X16615833Y4254500D02*
X16615833Y3873500D01*
X16404167Y4254500D02*
X16404167Y3873500D01*
X16510000Y3746500D02*
X16637000Y3767667D01*
X16637000Y3852333D02*
X16615833Y3873500D01*
X16637000Y3767667D02*
X16637000Y3852333D01*
X16510000Y3683000D02*
X16510000Y3746500D01*
X16383000Y3767667D01*
X16383000Y3852333D01*
X16404167Y3873500D01*
X16510000Y4381500D02*
X16510000Y4445000D01*
X16510000Y4381500D02*
X16637000Y4360333D01*
X16637000Y4275667D02*
X16615833Y4254500D01*
X16637000Y4360333D02*
X16637000Y4275667D01*
X16510000Y4381500D02*
X16383000Y4360333D01*
X16383000Y4275667D02*
X16404167Y4254500D01*
X16383000Y4360333D02*
X16383000Y4275667D01*
X14060865Y4476515D02*
X13974989Y4476515D01*
X13953520Y4429478D01*
X13953520Y4382441D01*
X13974989Y4335404D01*
X14060865Y4335404D01*
X14039396Y4241330D02*
X14060865Y4194293D01*
X13953520Y4194293D01*
X13953520Y4264848D02*
X13953520Y4123737D01*
X13953520Y3982626D02*
X14007193Y3982626D01*
X14039396Y3912070D01*
X14060865Y3912070D01*
X14060865Y4053181D01*
X14039396Y4053181D01*
X14300200Y3683000D02*
X14300200Y4445000D01*
X14909800Y4445000D02*
X14909800Y3683000D01*
X14478000Y4445000D02*
X14300200Y4445000D01*
X14732000Y4445000D02*
X14909800Y4445000D01*
X14909800Y3683000D02*
X14300200Y3683000D01*
X14478000Y4445000D02*
X14478483Y4433931D01*
X14479929Y4422947D01*
X14482327Y4412130D01*
X14485659Y4401563D01*
X14489899Y4391327D01*
X14495015Y4381500D01*
X14500968Y4372156D01*
X14507712Y4363366D01*
X14515197Y4355197D01*
X14523366Y4347712D01*
X14532156Y4340968D01*
X14541500Y4335015D01*
X14551328Y4329899D01*
X14561564Y4325659D01*
X14572130Y4322327D01*
X14582947Y4319929D01*
X14593931Y4318483D01*
X14605000Y4318000D01*
X14616069Y4318483D01*
X14627053Y4319929D01*
X14637870Y4322327D01*
X14648437Y4325659D01*
X14658673Y4329899D01*
X14668500Y4335015D01*
X14677844Y4340968D01*
X14686634Y4347712D01*
X14694803Y4355197D01*
X14702288Y4363366D01*
X14709032Y4372156D01*
X14714985Y4381500D01*
X14720101Y4391328D01*
X14724341Y4401564D01*
X14727673Y4412130D01*
X14730071Y4422947D01*
X14731517Y4433931D01*
X14732000Y4445000D01*
X22244000Y4818000D02*
X21444000Y4818000D01*
X21444000Y3818000D01*
X22244000Y3818000D01*
X22244000Y4818000D01*
X19557840Y5232400D02*
X18545500Y5232500D01*
X19557840Y4889500D02*
X18543500Y4889500D01*
X18544500Y5352000D02*
X19557840Y5351840D01*
X18542160Y5219700D02*
X18542160Y4889500D01*
X18542160Y5351840D02*
X18542160Y5212140D01*
X19557840Y5351840D02*
X19557840Y5212140D01*
X16906240Y4470400D02*
X18072947Y4472093D01*
X16907933Y4532207D02*
X18074640Y4536440D01*
X19946620Y4548294D02*
X19954240Y5361940D01*
X19999963Y4549140D02*
X20000044Y4547295D01*
X20000285Y4545465D01*
X20000685Y4543662D01*
X20001240Y4541901D01*
X20001947Y4540195D01*
X20002799Y4538557D01*
X20003791Y4536999D01*
X20004915Y4535534D01*
X20006163Y4534173D01*
X20007524Y4532926D01*
X20008989Y4531801D01*
X20010547Y4530809D01*
X20012185Y4529957D01*
X20013891Y4529250D01*
X20015652Y4528695D01*
X20017454Y4528295D01*
X20019285Y4528054D01*
X20021130Y4527973D01*
X20021130Y4527973D01*
X19945773Y4546600D02*
X19946096Y4539221D01*
X19947060Y4531898D01*
X19948658Y4524687D01*
X19950879Y4517642D01*
X19953706Y4510818D01*
X19957117Y4504267D01*
X19961085Y4498037D01*
X19965582Y4492177D01*
X19970572Y4486732D01*
X19976017Y4481742D01*
X19981877Y4477245D01*
X19988107Y4473277D01*
X19994658Y4469866D01*
X20001482Y4467039D01*
X20008527Y4464818D01*
X20015738Y4463220D01*
X20023061Y4462256D01*
X20030440Y4461933D01*
X20030440Y4461933D01*
X21193760Y4526280D02*
X20021127Y4527973D01*
X20030440Y4465320D02*
X21193760Y4462780D01*
X18102580Y5380567D02*
X18094960Y4556760D01*
X18161000Y5370407D02*
X18158460Y4556760D01*
X20007580Y5380567D02*
X19999960Y4551680D01*
X18186400Y5401733D02*
X19926300Y5402580D01*
X19913600Y5466080D02*
X18186400Y5465233D01*
X18186400Y5465237D02*
X18179021Y5464915D01*
X18171698Y5463950D01*
X18164487Y5462352D01*
X18157442Y5460131D01*
X18150618Y5457304D01*
X18144067Y5453894D01*
X18137837Y5449925D01*
X18131977Y5445429D01*
X18126532Y5440438D01*
X18121542Y5434993D01*
X18117045Y5429133D01*
X18113077Y5422903D01*
X18109666Y5416352D01*
X18106839Y5409528D01*
X18104618Y5402483D01*
X18103020Y5395272D01*
X18102055Y5387949D01*
X18101733Y5380570D01*
X18101733Y5380570D01*
X18186400Y5401737D02*
X18184555Y5401656D01*
X18182725Y5401415D01*
X18180922Y5401015D01*
X18179161Y5400460D01*
X18177455Y5399754D01*
X18175817Y5398901D01*
X18174259Y5397909D01*
X18172794Y5396785D01*
X18171433Y5395537D01*
X18170185Y5394176D01*
X18169061Y5392711D01*
X18168069Y5391153D01*
X18167216Y5389516D01*
X18166510Y5387810D01*
X18165955Y5386048D01*
X18165555Y5384246D01*
X18165314Y5382415D01*
X18165233Y5380570D01*
X18165233Y5380570D01*
X18072950Y4472093D02*
X18080329Y4472415D01*
X18087652Y4473380D01*
X18094863Y4474978D01*
X18101908Y4477199D01*
X18108732Y4480026D01*
X18115283Y4483437D01*
X18121513Y4487405D01*
X18127373Y4491902D01*
X18132818Y4496892D01*
X18137809Y4502337D01*
X18142305Y4508197D01*
X18146274Y4514427D01*
X18149684Y4520978D01*
X18152511Y4527802D01*
X18154732Y4534847D01*
X18156330Y4542058D01*
X18157295Y4549381D01*
X18157617Y4556760D01*
X18072950Y4535593D02*
X18074795Y4535674D01*
X18076626Y4535915D01*
X18078428Y4536315D01*
X18080190Y4536870D01*
X18081896Y4537576D01*
X18083533Y4538429D01*
X18085091Y4539421D01*
X18086556Y4540545D01*
X18087917Y4541793D01*
X18089165Y4543154D01*
X18090289Y4544619D01*
X18091281Y4546177D01*
X18092134Y4547815D01*
X18092840Y4549521D01*
X18093395Y4551282D01*
X18093795Y4553085D01*
X18094036Y4554915D01*
X18094117Y4556760D01*
X20005887Y5379720D02*
X20005565Y5387099D01*
X20004600Y5394422D01*
X20003002Y5401633D01*
X20000781Y5408678D01*
X19997954Y5415502D01*
X19994544Y5422053D01*
X19990575Y5428283D01*
X19986078Y5434143D01*
X19981088Y5439588D01*
X19975643Y5444578D01*
X19969783Y5449075D01*
X19963553Y5453044D01*
X19957002Y5456454D01*
X19950178Y5459281D01*
X19943133Y5461502D01*
X19935922Y5463100D01*
X19928599Y5464065D01*
X19921220Y5464387D01*
X19947043Y5379720D02*
X19946963Y5381565D01*
X19946722Y5383396D01*
X19946322Y5385198D01*
X19945767Y5386959D01*
X19945060Y5388665D01*
X19944207Y5390303D01*
X19943215Y5391861D01*
X19942091Y5393326D01*
X19940844Y5394687D01*
X19939482Y5395935D01*
X19938017Y5397059D01*
X19936460Y5398051D01*
X19934822Y5398904D01*
X19933116Y5399610D01*
X19931355Y5400165D01*
X19929552Y5400565D01*
X19927721Y5400806D01*
X19925877Y5400887D01*
X18811119Y5919611D02*
X18826238Y5947833D01*
X18826238Y5976056D01*
X18811119Y6004278D01*
X18750643Y6004278D01*
X18765762Y6060722D02*
X18750643Y6088944D01*
X18826238Y6088944D01*
X18826238Y6046611D02*
X18826238Y6131278D01*
X18811119Y6173611D02*
X18826238Y6201833D01*
X18826238Y6230056D01*
X18811119Y6258278D01*
X18780881Y6258278D01*
X18765762Y6258278D01*
X18750643Y6230056D01*
X18750643Y6201833D01*
X18765762Y6173611D01*
X18780881Y6173611D01*
X18796000Y6201833D01*
X18796000Y6230056D01*
X18780881Y6258278D01*
X19050000Y5969000D02*
X18923000Y6096000D01*
X19050000Y6223000D01*
X19177000Y6096000D02*
X19050000Y5969000D01*
X19050000Y6223000D02*
X19177000Y6096000D01*
X15766445Y7212189D02*
X15842040Y7212189D01*
X15842040Y7155745D01*
X15826921Y7127522D01*
X15819362Y7127522D01*
X15804243Y7155745D01*
X15804243Y7212189D01*
X15804243Y7198078D02*
X15766445Y7127522D01*
X15826921Y7085189D02*
X15842040Y7056967D01*
X15842040Y7028745D01*
X15826921Y7000522D01*
X15819362Y7000522D01*
X15766445Y7085189D01*
X15766445Y7000522D01*
X15774005Y7000522D01*
X15826921Y6958189D02*
X15842040Y6929967D01*
X15842040Y6901745D01*
X15826921Y6873522D01*
X15781564Y6873522D01*
X15766445Y6901745D01*
X15766445Y6929967D01*
X15781564Y6958189D01*
X15826921Y6958189D01*
X15826921Y6873522D02*
X15781564Y6958189D01*
X15896167Y6667500D02*
X15896167Y7048500D01*
X16107833Y6667500D02*
X16107833Y7048500D01*
X16002000Y7175500D02*
X15875000Y7154333D01*
X15875000Y7069667D02*
X15896167Y7048500D01*
X15875000Y7154333D02*
X15875000Y7069667D01*
X16002000Y7239000D02*
X16002000Y7175500D01*
X16129000Y7154333D01*
X16129000Y7069667D01*
X16107833Y7048500D01*
X16002000Y6540500D02*
X16002000Y6477000D01*
X16002000Y6540500D02*
X15875000Y6561667D01*
X15875000Y6646333D02*
X15896167Y6667500D01*
X15875000Y6561667D02*
X15875000Y6646333D01*
X16002000Y6540500D02*
X16129000Y6561667D01*
X16129000Y6646333D02*
X16107833Y6667500D01*
X16129000Y6561667D02*
X16129000Y6646333D01*
X16745555Y6503811D02*
X16669960Y6503811D01*
X16669960Y6560256D01*
X16685079Y6588478D01*
X16692638Y6588478D01*
X16707757Y6560256D01*
X16707757Y6503811D01*
X16707757Y6517922D02*
X16745555Y6588478D01*
X16685079Y6644922D02*
X16669960Y6673144D01*
X16745555Y6673144D01*
X16745555Y6630811D02*
X16745555Y6715478D01*
X16730436Y6757811D02*
X16745555Y6786033D01*
X16745555Y6814256D01*
X16730436Y6842478D01*
X16700198Y6842478D01*
X16685079Y6842478D01*
X16669960Y6814256D01*
X16669960Y6786033D01*
X16685079Y6757811D01*
X16700198Y6757811D01*
X16715317Y6786033D01*
X16715317Y6814256D01*
X16700198Y6842478D01*
X16615833Y7048500D02*
X16615833Y6667500D01*
X16404167Y7048500D02*
X16404167Y6667500D01*
X16510000Y6540500D02*
X16637000Y6561667D01*
X16637000Y6646333D02*
X16615833Y6667500D01*
X16637000Y6561667D02*
X16637000Y6646333D01*
X16510000Y6477000D02*
X16510000Y6540500D01*
X16383000Y6561667D01*
X16383000Y6646333D01*
X16404167Y6667500D01*
X16510000Y7175500D02*
X16510000Y7239000D01*
X16510000Y7175500D02*
X16637000Y7154333D01*
X16637000Y7069667D02*
X16615833Y7048500D01*
X16637000Y7154333D02*
X16637000Y7069667D01*
X16510000Y7175500D02*
X16383000Y7154333D01*
X16383000Y7069667D02*
X16404167Y7048500D01*
X16383000Y7154333D02*
X16383000Y7069667D01*
X14060865Y7270515D02*
X13974989Y7270515D01*
X13953520Y7223478D01*
X13953520Y7176441D01*
X13974989Y7129404D01*
X14060865Y7129404D01*
X14039396Y7035330D02*
X14060865Y6988293D01*
X13953520Y6988293D01*
X13953520Y7058848D02*
X13953520Y6917737D01*
X13953520Y6753107D02*
X13953520Y6800144D01*
X13974989Y6847181D01*
X13996458Y6847181D01*
X14007193Y6823663D01*
X14017927Y6847181D01*
X14039396Y6847181D01*
X14060865Y6800144D01*
X14060865Y6753107D01*
X14039396Y6706070D01*
X14017927Y6706070D01*
X14007193Y6729589D01*
X13996458Y6706070D01*
X13974989Y6706070D01*
X13953520Y6753107D01*
X14007193Y6823663D02*
X14007193Y6729589D01*
X14300200Y6477000D02*
X14300200Y7239000D01*
X14909800Y7239000D02*
X14909800Y6477000D01*
X14478000Y7239000D02*
X14300200Y7239000D01*
X14732000Y7239000D02*
X14909800Y7239000D01*
X14909800Y6477000D02*
X14300200Y6477000D01*
X14478000Y7239000D02*
X14478483Y7227931D01*
X14479929Y7216947D01*
X14482327Y7206130D01*
X14485659Y7195563D01*
X14489899Y7185327D01*
X14495015Y7175500D01*
X14500968Y7166156D01*
X14507712Y7157366D01*
X14515197Y7149197D01*
X14523366Y7141712D01*
X14532156Y7134968D01*
X14541500Y7129015D01*
X14551328Y7123899D01*
X14561564Y7119659D01*
X14572130Y7116327D01*
X14582947Y7113929D01*
X14593931Y7112483D01*
X14605000Y7112000D01*
X14616069Y7112483D01*
X14627053Y7113929D01*
X14637870Y7116327D01*
X14648437Y7119659D01*
X14658673Y7123899D01*
X14668500Y7129015D01*
X14677844Y7134968D01*
X14686634Y7141712D01*
X14694803Y7149197D01*
X14702288Y7157366D01*
X14709032Y7166156D01*
X14714985Y7175500D01*
X14720101Y7185328D01*
X14724341Y7195564D01*
X14727673Y7206130D01*
X14730071Y7216947D01*
X14731517Y7227931D01*
X14732000Y7239000D01*
X22244000Y7612000D02*
X21444000Y7612000D01*
X21444000Y6612000D01*
X22244000Y6612000D01*
X22244000Y7612000D01*
X19557840Y8026400D02*
X18545500Y8026500D01*
X19557840Y7683500D02*
X18543500Y7683500D01*
X18544500Y8146000D02*
X19557840Y8145840D01*
X18542160Y8013700D02*
X18542160Y7683500D01*
X18542160Y8145840D02*
X18542160Y8006140D01*
X19557840Y8145840D02*
X19557840Y8006140D01*
X16906240Y7264400D02*
X18072947Y7266093D01*
X16907933Y7326207D02*
X18074640Y7330440D01*
X19946620Y7342294D02*
X19954240Y8155940D01*
X19999963Y7343140D02*
X20000044Y7341295D01*
X20000285Y7339465D01*
X20000685Y7337662D01*
X20001240Y7335901D01*
X20001947Y7334195D01*
X20002799Y7332557D01*
X20003791Y7330999D01*
X20004915Y7329534D01*
X20006163Y7328173D01*
X20007524Y7326926D01*
X20008989Y7325801D01*
X20010547Y7324809D01*
X20012185Y7323957D01*
X20013891Y7323250D01*
X20015652Y7322695D01*
X20017454Y7322295D01*
X20019285Y7322054D01*
X20021130Y7321973D01*
X20021130Y7321973D01*
X19945773Y7340600D02*
X19946096Y7333221D01*
X19947060Y7325898D01*
X19948658Y7318687D01*
X19950879Y7311642D01*
X19953706Y7304818D01*
X19957117Y7298267D01*
X19961085Y7292037D01*
X19965582Y7286177D01*
X19970572Y7280732D01*
X19976017Y7275742D01*
X19981877Y7271245D01*
X19988107Y7267277D01*
X19994658Y7263866D01*
X20001482Y7261039D01*
X20008527Y7258818D01*
X20015738Y7257220D01*
X20023061Y7256256D01*
X20030440Y7255933D01*
X20030440Y7255933D01*
X21193760Y7320280D02*
X20021127Y7321973D01*
X20030440Y7259320D02*
X21193760Y7256780D01*
X18102580Y8174567D02*
X18094960Y7350760D01*
X18161000Y8164407D02*
X18158460Y7350760D01*
X20007580Y8174567D02*
X19999960Y7345680D01*
X18186400Y8195733D02*
X19926300Y8196580D01*
X19913600Y8260080D02*
X18186400Y8259233D01*
X18186400Y8259237D02*
X18179021Y8258915D01*
X18171698Y8257950D01*
X18164487Y8256352D01*
X18157442Y8254131D01*
X18150618Y8251304D01*
X18144067Y8247894D01*
X18137837Y8243925D01*
X18131977Y8239429D01*
X18126532Y8234438D01*
X18121542Y8228993D01*
X18117045Y8223133D01*
X18113077Y8216903D01*
X18109666Y8210352D01*
X18106839Y8203528D01*
X18104618Y8196483D01*
X18103020Y8189272D01*
X18102055Y8181949D01*
X18101733Y8174570D01*
X18101733Y8174570D01*
X18186400Y8195737D02*
X18184555Y8195656D01*
X18182725Y8195415D01*
X18180922Y8195015D01*
X18179161Y8194460D01*
X18177455Y8193754D01*
X18175817Y8192901D01*
X18174259Y8191909D01*
X18172794Y8190785D01*
X18171433Y8189537D01*
X18170185Y8188176D01*
X18169061Y8186711D01*
X18168069Y8185153D01*
X18167216Y8183516D01*
X18166510Y8181810D01*
X18165955Y8180048D01*
X18165555Y8178246D01*
X18165314Y8176415D01*
X18165233Y8174570D01*
X18165233Y8174570D01*
X18072950Y7266093D02*
X18080329Y7266415D01*
X18087652Y7267380D01*
X18094863Y7268978D01*
X18101908Y7271199D01*
X18108732Y7274026D01*
X18115283Y7277437D01*
X18121513Y7281405D01*
X18127373Y7285902D01*
X18132818Y7290892D01*
X18137809Y7296337D01*
X18142305Y7302197D01*
X18146274Y7308427D01*
X18149684Y7314978D01*
X18152511Y7321802D01*
X18154732Y7328847D01*
X18156330Y7336058D01*
X18157295Y7343381D01*
X18157617Y7350760D01*
X18072950Y7329593D02*
X18074795Y7329674D01*
X18076626Y7329915D01*
X18078428Y7330315D01*
X18080190Y7330870D01*
X18081896Y7331576D01*
X18083533Y7332429D01*
X18085091Y7333421D01*
X18086556Y7334545D01*
X18087917Y7335793D01*
X18089165Y7337154D01*
X18090289Y7338619D01*
X18091281Y7340177D01*
X18092134Y7341815D01*
X18092840Y7343521D01*
X18093395Y7345282D01*
X18093795Y7347085D01*
X18094036Y7348915D01*
X18094117Y7350760D01*
X20005887Y8173720D02*
X20005565Y8181099D01*
X20004600Y8188422D01*
X20003002Y8195633D01*
X20000781Y8202678D01*
X19997954Y8209502D01*
X19994544Y8216053D01*
X19990575Y8222283D01*
X19986078Y8228143D01*
X19981088Y8233588D01*
X19975643Y8238578D01*
X19969783Y8243075D01*
X19963553Y8247044D01*
X19957002Y8250454D01*
X19950178Y8253281D01*
X19943133Y8255502D01*
X19935922Y8257100D01*
X19928599Y8258065D01*
X19921220Y8258387D01*
X19947043Y8173720D02*
X19946963Y8175565D01*
X19946722Y8177396D01*
X19946322Y8179198D01*
X19945767Y8180959D01*
X19945060Y8182665D01*
X19944207Y8184303D01*
X19943215Y8185861D01*
X19942091Y8187326D01*
X19940844Y8188687D01*
X19939482Y8189935D01*
X19938017Y8191059D01*
X19936460Y8192051D01*
X19934822Y8192904D01*
X19933116Y8193610D01*
X19931355Y8194165D01*
X19929552Y8194565D01*
X19927721Y8194806D01*
X19925877Y8194887D01*
X18811119Y8713611D02*
X18826238Y8741833D01*
X18826238Y8770056D01*
X18811119Y8798278D01*
X18750643Y8798278D01*
X18765762Y8840611D02*
X18750643Y8868833D01*
X18750643Y8897056D01*
X18765762Y8925278D01*
X18773321Y8925278D01*
X18826238Y8840611D01*
X18826238Y8925278D01*
X18818679Y8925278D01*
X18765762Y8981722D02*
X18750643Y9009944D01*
X18826238Y9009944D01*
X18826238Y8967611D02*
X18826238Y9052278D01*
X19050000Y8763000D02*
X18923000Y8890000D01*
X19050000Y9017000D01*
X19177000Y8890000D02*
X19050000Y8763000D01*
X19050000Y9017000D02*
X19177000Y8890000D01*
X14060865Y9810515D02*
X13974989Y9810515D01*
X13953520Y9763478D01*
X13953520Y9716441D01*
X13974989Y9669404D01*
X14060865Y9669404D01*
X14039396Y9575330D02*
X14060865Y9528293D01*
X13953520Y9528293D01*
X13953520Y9598848D02*
X13953520Y9457737D01*
X13974989Y9387181D02*
X13953520Y9340144D01*
X13953520Y9293107D01*
X13974989Y9246070D01*
X14017927Y9246070D01*
X14039396Y9246070D01*
X14060865Y9293107D01*
X14060865Y9340144D01*
X14039396Y9387181D01*
X14017927Y9387181D01*
X13996458Y9340144D01*
X13996458Y9293107D01*
X14017927Y9246070D01*
X14300200Y9017000D02*
X14300200Y9779000D01*
X14909800Y9779000D02*
X14909800Y9017000D01*
X14478000Y9779000D02*
X14300200Y9779000D01*
X14732000Y9779000D02*
X14909800Y9779000D01*
X14909800Y9017000D02*
X14300200Y9017000D01*
X14478000Y9779000D02*
X14478483Y9767931D01*
X14479929Y9756947D01*
X14482327Y9746130D01*
X14485659Y9735563D01*
X14489899Y9725327D01*
X14495015Y9715500D01*
X14500968Y9706156D01*
X14507712Y9697366D01*
X14515197Y9689197D01*
X14523366Y9681712D01*
X14532156Y9674968D01*
X14541500Y9669015D01*
X14551328Y9663899D01*
X14561564Y9659659D01*
X14572130Y9656327D01*
X14582947Y9653929D01*
X14593931Y9652483D01*
X14605000Y9652000D01*
X14616069Y9652483D01*
X14627053Y9653929D01*
X14637870Y9656327D01*
X14648437Y9659659D01*
X14658673Y9663899D01*
X14668500Y9669015D01*
X14677844Y9674968D01*
X14686634Y9681712D01*
X14694803Y9689197D01*
X14702288Y9697366D01*
X14709032Y9706156D01*
X14714985Y9715500D01*
X14720101Y9725328D01*
X14724341Y9735564D01*
X14727673Y9746130D01*
X14730071Y9756947D01*
X14731517Y9767931D01*
X14732000Y9779000D01*
X15766445Y10006189D02*
X15842040Y10006189D01*
X15842040Y9949745D01*
X15826921Y9921522D01*
X15819362Y9921522D01*
X15804243Y9949745D01*
X15804243Y10006189D01*
X15804243Y9992078D02*
X15766445Y9921522D01*
X15826921Y9879189D02*
X15842040Y9850967D01*
X15842040Y9822745D01*
X15826921Y9794522D01*
X15819362Y9794522D01*
X15766445Y9879189D01*
X15766445Y9794522D01*
X15774005Y9794522D01*
X15834481Y9738078D02*
X15842040Y9723967D01*
X15842040Y9695745D01*
X15826921Y9667522D01*
X15811802Y9667522D01*
X15804243Y9681633D01*
X15796683Y9667522D01*
X15781564Y9667522D01*
X15766445Y9695745D01*
X15766445Y9723967D01*
X15774005Y9738078D01*
X15804243Y9723967D02*
X15804243Y9681633D01*
X15896167Y9461500D02*
X15896167Y9842500D01*
X16107833Y9461500D02*
X16107833Y9842500D01*
X16002000Y9969500D02*
X15875000Y9948333D01*
X15875000Y9863667D02*
X15896167Y9842500D01*
X15875000Y9948333D02*
X15875000Y9863667D01*
X16002000Y10033000D02*
X16002000Y9969500D01*
X16129000Y9948333D01*
X16129000Y9863667D01*
X16107833Y9842500D01*
X16002000Y9334500D02*
X16002000Y9271000D01*
X16002000Y9334500D02*
X15875000Y9355667D01*
X15875000Y9440333D02*
X15896167Y9461500D01*
X15875000Y9355667D02*
X15875000Y9440333D01*
X16002000Y9334500D02*
X16129000Y9355667D01*
X16129000Y9440333D02*
X16107833Y9461500D01*
X16129000Y9355667D02*
X16129000Y9440333D01*
X16745555Y9297811D02*
X16669960Y9297811D01*
X16669960Y9354256D01*
X16685079Y9382478D01*
X16692638Y9382478D01*
X16707757Y9354256D01*
X16707757Y9297811D01*
X16707757Y9311922D02*
X16745555Y9382478D01*
X16685079Y9424811D02*
X16669960Y9453033D01*
X16669960Y9481256D01*
X16685079Y9509478D01*
X16692638Y9509478D01*
X16745555Y9424811D01*
X16745555Y9509478D01*
X16737995Y9509478D01*
X16685079Y9551811D02*
X16669960Y9580033D01*
X16669960Y9608256D01*
X16685079Y9636478D01*
X16692638Y9636478D01*
X16745555Y9551811D01*
X16745555Y9636478D01*
X16737995Y9636478D01*
X16615833Y9842500D02*
X16615833Y9461500D01*
X16404167Y9842500D02*
X16404167Y9461500D01*
X16510000Y9334500D02*
X16637000Y9355667D01*
X16637000Y9440333D02*
X16615833Y9461500D01*
X16637000Y9355667D02*
X16637000Y9440333D01*
X16510000Y9271000D02*
X16510000Y9334500D01*
X16383000Y9355667D01*
X16383000Y9440333D01*
X16404167Y9461500D01*
X16510000Y9969500D02*
X16510000Y10033000D01*
X16510000Y9969500D02*
X16637000Y9948333D01*
X16637000Y9863667D02*
X16615833Y9842500D01*
X16637000Y9948333D02*
X16637000Y9863667D01*
X16510000Y9969500D02*
X16383000Y9948333D01*
X16383000Y9863667D02*
X16404167Y9842500D01*
X16383000Y9948333D02*
X16383000Y9863667D01*
X22244000Y10406000D02*
X21444000Y10406000D01*
X21444000Y9406000D01*
X22244000Y9406000D01*
X22244000Y10406000D01*
X19557840Y10820400D02*
X18545500Y10820500D01*
X19557840Y10477500D02*
X18543500Y10477500D01*
X18544500Y10940000D02*
X19557840Y10939840D01*
X18542160Y10807700D02*
X18542160Y10477500D01*
X18542160Y10939840D02*
X18542160Y10800140D01*
X19557840Y10939840D02*
X19557840Y10800140D01*
X16906240Y10058400D02*
X18072947Y10060093D01*
X16907933Y10120207D02*
X18074640Y10124440D01*
X19946620Y10136294D02*
X19954240Y10949940D01*
X19999963Y10137140D02*
X20000044Y10135295D01*
X20000285Y10133465D01*
X20000685Y10131662D01*
X20001240Y10129901D01*
X20001947Y10128195D01*
X20002799Y10126557D01*
X20003791Y10124999D01*
X20004915Y10123534D01*
X20006163Y10122173D01*
X20007524Y10120926D01*
X20008989Y10119801D01*
X20010547Y10118809D01*
X20012185Y10117957D01*
X20013891Y10117250D01*
X20015652Y10116695D01*
X20017454Y10116295D01*
X20019285Y10116054D01*
X20021130Y10115973D01*
X20021130Y10115973D01*
X19945773Y10134600D02*
X19946096Y10127221D01*
X19947060Y10119898D01*
X19948658Y10112687D01*
X19950879Y10105642D01*
X19953706Y10098818D01*
X19957117Y10092267D01*
X19961085Y10086037D01*
X19965582Y10080177D01*
X19970572Y10074732D01*
X19976017Y10069742D01*
X19981877Y10065245D01*
X19988107Y10061277D01*
X19994658Y10057866D01*
X20001482Y10055039D01*
X20008527Y10052818D01*
X20015738Y10051220D01*
X20023061Y10050256D01*
X20030440Y10049933D01*
X20030440Y10049933D01*
X21193760Y10114280D02*
X20021127Y10115973D01*
X20030440Y10053320D02*
X21193760Y10050780D01*
X18102580Y10968567D02*
X18094960Y10144760D01*
X18161000Y10958407D02*
X18158460Y10144760D01*
X20007580Y10968567D02*
X19999960Y10139680D01*
X18186400Y10989733D02*
X19926300Y10990580D01*
X19913600Y11054080D02*
X18186400Y11053233D01*
X18186400Y11053237D02*
X18179021Y11052915D01*
X18171698Y11051950D01*
X18164487Y11050352D01*
X18157442Y11048131D01*
X18150618Y11045304D01*
X18144067Y11041894D01*
X18137837Y11037925D01*
X18131977Y11033429D01*
X18126532Y11028438D01*
X18121542Y11022993D01*
X18117045Y11017133D01*
X18113077Y11010903D01*
X18109666Y11004352D01*
X18106839Y10997528D01*
X18104618Y10990483D01*
X18103020Y10983272D01*
X18102055Y10975949D01*
X18101733Y10968570D01*
X18101733Y10968570D01*
X18186400Y10989737D02*
X18184555Y10989656D01*
X18182725Y10989415D01*
X18180922Y10989015D01*
X18179161Y10988460D01*
X18177455Y10987754D01*
X18175817Y10986901D01*
X18174259Y10985909D01*
X18172794Y10984785D01*
X18171433Y10983537D01*
X18170185Y10982176D01*
X18169061Y10980711D01*
X18168069Y10979153D01*
X18167216Y10977516D01*
X18166510Y10975810D01*
X18165955Y10974048D01*
X18165555Y10972246D01*
X18165314Y10970415D01*
X18165233Y10968570D01*
X18165233Y10968570D01*
X18072950Y10060093D02*
X18080329Y10060415D01*
X18087652Y10061380D01*
X18094863Y10062978D01*
X18101908Y10065199D01*
X18108732Y10068026D01*
X18115283Y10071437D01*
X18121513Y10075405D01*
X18127373Y10079902D01*
X18132818Y10084892D01*
X18137809Y10090337D01*
X18142305Y10096197D01*
X18146274Y10102427D01*
X18149684Y10108978D01*
X18152511Y10115802D01*
X18154732Y10122847D01*
X18156330Y10130058D01*
X18157295Y10137381D01*
X18157617Y10144760D01*
X18072950Y10123593D02*
X18074795Y10123674D01*
X18076626Y10123915D01*
X18078428Y10124315D01*
X18080190Y10124870D01*
X18081896Y10125576D01*
X18083533Y10126429D01*
X18085091Y10127421D01*
X18086556Y10128545D01*
X18087917Y10129793D01*
X18089165Y10131154D01*
X18090289Y10132619D01*
X18091281Y10134177D01*
X18092134Y10135815D01*
X18092840Y10137521D01*
X18093395Y10139282D01*
X18093795Y10141085D01*
X18094036Y10142915D01*
X18094117Y10144760D01*
X20005887Y10967720D02*
X20005565Y10975099D01*
X20004600Y10982422D01*
X20003002Y10989633D01*
X20000781Y10996678D01*
X19997954Y11003502D01*
X19994544Y11010053D01*
X19990575Y11016283D01*
X19986078Y11022143D01*
X19981088Y11027588D01*
X19975643Y11032578D01*
X19969783Y11037075D01*
X19963553Y11041044D01*
X19957002Y11044454D01*
X19950178Y11047281D01*
X19943133Y11049502D01*
X19935922Y11051100D01*
X19928599Y11052065D01*
X19921220Y11052387D01*
X19947043Y10967720D02*
X19946963Y10969565D01*
X19946722Y10971396D01*
X19946322Y10973198D01*
X19945767Y10974959D01*
X19945060Y10976665D01*
X19944207Y10978303D01*
X19943215Y10979861D01*
X19942091Y10981326D01*
X19940844Y10982687D01*
X19939482Y10983935D01*
X19938017Y10985059D01*
X19936460Y10986051D01*
X19934822Y10986904D01*
X19933116Y10987610D01*
X19931355Y10988165D01*
X19929552Y10988565D01*
X19927721Y10988806D01*
X19925877Y10988887D01*
X18557119Y11253611D02*
X18572238Y11281833D01*
X18572238Y11310056D01*
X18557119Y11338278D01*
X18496643Y11338278D01*
X18511762Y11394722D02*
X18496643Y11422944D01*
X18572238Y11422944D01*
X18572238Y11380611D02*
X18572238Y11465278D01*
X18511762Y11507611D02*
X18496643Y11535833D01*
X18496643Y11564056D01*
X18511762Y11592278D01*
X18557119Y11592278D01*
X18572238Y11564056D01*
X18572238Y11535833D01*
X18557119Y11507611D01*
X18511762Y11507611D01*
X18511762Y11592278D02*
X18557119Y11507611D01*
X18796000Y11303000D02*
X18669000Y11430000D01*
X18796000Y11557000D01*
X18923000Y11430000D02*
X18796000Y11303000D01*
X18796000Y11557000D02*
X18923000Y11430000D01*
X693360Y1322211D02*
X753836Y1322211D01*
X768955Y1350433D01*
X768955Y1378656D01*
X753836Y1406878D01*
X693360Y1406878D01*
X708479Y1463322D02*
X693360Y1491544D01*
X768955Y1491544D01*
X768955Y1449211D02*
X768955Y1533878D01*
X708479Y1576211D02*
X693360Y1604433D01*
X693360Y1632656D01*
X708479Y1660878D01*
X753836Y1660878D01*
X768955Y1632656D01*
X768955Y1604433D01*
X753836Y1576211D01*
X708479Y1576211D01*
X708479Y1660878D02*
X753836Y1576211D01*
X381000Y1397000D02*
X635000Y1397000D01*
X381000Y2159000D02*
X635000Y2159000D01*
X381000Y2159000D02*
X381000Y1651000D01*
X381000Y1587500D02*
X381000Y1397000D01*
X381000Y1629833D02*
X465667Y1629833D01*
X402167Y1608667D02*
X381000Y1629833D01*
X635000Y2159000D02*
X635000Y1397000D01*
X2268764Y1971322D02*
X2253645Y1999545D01*
X2253645Y2027767D01*
X2268764Y2055989D01*
X2314121Y2055989D01*
X2329240Y2027767D01*
X2329240Y1999545D01*
X2314121Y1971322D01*
X2329240Y1858433D02*
X2329240Y1900767D01*
X2314121Y1928989D01*
X2283883Y1928989D01*
X2268764Y1928989D01*
X2253645Y1900767D01*
X2253645Y1872545D01*
X2268764Y1844322D01*
X2283883Y1844322D01*
X2299002Y1872545D01*
X2299002Y1900767D01*
X2283883Y1928989D01*
X2370667Y1418167D02*
X2370667Y2137833D01*
X2709333Y2137833D02*
X2709333Y1418167D01*
X2370667Y2137833D02*
X2709333Y2137833D01*
X2463800Y1803400D02*
X2616200Y1803400D01*
X2616200Y1816100D02*
X2463800Y1816100D01*
X2463800Y1828800D02*
X2616200Y1828800D01*
X2540000Y1828800D02*
X2540000Y1866900D01*
X2709333Y1418167D02*
X2370667Y1418167D01*
X2463800Y1739900D02*
X2616200Y1739900D01*
X2616200Y1752600D02*
X2463800Y1752600D01*
X2616200Y1727200D02*
X2463800Y1727200D01*
X2540000Y1727200D02*
X2540000Y1689100D01*
X1542445Y2068689D02*
X1618040Y2068689D01*
X1618040Y2012245D01*
X1602921Y1984022D01*
X1595362Y1984022D01*
X1580243Y2012245D01*
X1580243Y2068689D01*
X1580243Y2054578D02*
X1542445Y1984022D01*
X1572683Y1857022D02*
X1572683Y1941689D01*
X1618040Y1871133D01*
X1542445Y1871133D01*
X1542445Y1885245D02*
X1542445Y1857022D01*
X1672167Y1587500D02*
X1672167Y1968500D01*
X1883833Y1587500D02*
X1883833Y1968500D01*
X1778000Y2095500D02*
X1651000Y2074333D01*
X1651000Y1989667D02*
X1672167Y1968500D01*
X1651000Y2074333D02*
X1651000Y1989667D01*
X1778000Y2159000D02*
X1778000Y2095500D01*
X1905000Y2074333D01*
X1905000Y1989667D01*
X1883833Y1968500D01*
X1778000Y1460500D02*
X1778000Y1397000D01*
X1778000Y1460500D02*
X1651000Y1481667D01*
X1651000Y1566333D02*
X1672167Y1587500D01*
X1651000Y1481667D02*
X1651000Y1566333D01*
X1778000Y1460500D02*
X1905000Y1481667D01*
X1905000Y1566333D02*
X1883833Y1587500D01*
X1905000Y1481667D02*
X1905000Y1566333D01*
X1414236Y1584678D02*
X1429355Y1556456D01*
X1429355Y1528233D01*
X1414236Y1500011D01*
X1368879Y1500011D01*
X1353760Y1528233D01*
X1353760Y1556456D01*
X1368879Y1584678D01*
X1429355Y1669344D02*
X1391557Y1669344D01*
X1368879Y1711678D01*
X1353760Y1711678D01*
X1353760Y1627011D01*
X1368879Y1627011D01*
X1312333Y2137833D02*
X1312333Y1418167D01*
X973667Y1418167D02*
X973667Y2137833D01*
X1312333Y1418167D02*
X973667Y1418167D01*
X1219200Y1752600D02*
X1066800Y1752600D01*
X1066800Y1739900D02*
X1219200Y1739900D01*
X1219200Y1727200D02*
X1066800Y1727200D01*
X1143000Y1727200D02*
X1143000Y1689100D01*
X973667Y2137833D02*
X1312333Y2137833D01*
X1219200Y1816100D02*
X1066800Y1816100D01*
X1066800Y1803400D02*
X1219200Y1803400D01*
X1066800Y1828800D02*
X1219200Y1828800D01*
X1143000Y1828800D02*
X1143000Y1866900D01*
X3571956Y1260000D02*
X3571956Y1180000D01*
X3591867Y1160000D01*
X3611778Y1160000D01*
X3631689Y1180000D01*
X3631689Y1260000D01*
X3671511Y1240000D02*
X3691422Y1260000D01*
X3691422Y1160000D01*
X3661556Y1160000D02*
X3721289Y1160000D01*
X3761111Y1240000D02*
X3781022Y1260000D01*
X3781022Y1160000D01*
X3751156Y1160000D02*
X3810889Y1160000D01*
X4191000Y2053500D02*
X3175000Y2053500D01*
X3175000Y1502500D02*
X4191000Y1502500D01*
X3175000Y2053500D02*
X3175000Y1502500D01*
X4191000Y1502500D02*
X4191000Y2053500D01*
X7541918Y4129466D02*
X7541918Y4043589D01*
X7588955Y4022120D01*
X7635993Y4022120D01*
X7683030Y4043589D01*
X7683030Y4129466D01*
X7777104Y4107997D02*
X7824141Y4129466D01*
X7824141Y4022120D01*
X7753585Y4022120D02*
X7894696Y4022120D01*
X7429500Y4191000D02*
X12636500Y4191000D01*
X7429500Y5969000D02*
X12636500Y5969000D01*
X7429500Y4953000D02*
X7429500Y4191000D01*
X7429500Y5207000D02*
X7429500Y5969000D01*
X12636500Y4191000D02*
X12636500Y5969000D01*
X7429500Y4953000D02*
X7440569Y4953483D01*
X7451553Y4954929D01*
X7462370Y4957327D01*
X7472937Y4960659D01*
X7483173Y4964899D01*
X7493000Y4970015D01*
X7502344Y4975968D01*
X7511134Y4982712D01*
X7519303Y4990198D01*
X7526788Y4998366D01*
X7533532Y5007156D01*
X7539485Y5016500D01*
X7544601Y5026328D01*
X7548841Y5036564D01*
X7552173Y5047130D01*
X7554571Y5057947D01*
X7556017Y5068931D01*
X7556500Y5080000D01*
X7556017Y5091069D01*
X7554571Y5102054D01*
X7552173Y5112870D01*
X7548841Y5123437D01*
X7544601Y5133673D01*
X7539485Y5143500D01*
X7533532Y5152844D01*
X7526788Y5161634D01*
X7519302Y5169803D01*
X7511134Y5177288D01*
X7502344Y5184033D01*
X7493000Y5189985D01*
X7483172Y5195101D01*
X7472936Y5199341D01*
X7462370Y5202673D01*
X7451553Y5205071D01*
X7440569Y5206517D01*
X7429500Y5207000D01*
X7510236Y5013678D02*
X7525355Y4985456D01*
X7525355Y4957233D01*
X7510236Y4929011D01*
X7464879Y4929011D01*
X7449760Y4957233D01*
X7449760Y4985456D01*
X7464879Y5013678D01*
X7464879Y5070122D02*
X7449760Y5098344D01*
X7525355Y5098344D01*
X7525355Y5056011D02*
X7525355Y5140678D01*
X7408333Y5566833D02*
X7408333Y4847167D01*
X7069667Y4847167D02*
X7069667Y5566833D01*
X7408333Y4847167D02*
X7069667Y4847167D01*
X7315200Y5181600D02*
X7162800Y5181600D01*
X7162800Y5168900D02*
X7315200Y5168900D01*
X7315200Y5156200D02*
X7162800Y5156200D01*
X7239000Y5156200D02*
X7239000Y5118100D01*
X7069667Y5566833D02*
X7408333Y5566833D01*
X7315200Y5245100D02*
X7162800Y5245100D01*
X7162800Y5232400D02*
X7315200Y5232400D01*
X7162800Y5257800D02*
X7315200Y5257800D01*
X7239000Y5257800D02*
X7239000Y5295900D01*
X3973689Y3283555D02*
X3973689Y3207960D01*
X3917245Y3207960D01*
X3889022Y3223079D01*
X3889022Y3230638D01*
X3917245Y3245757D01*
X3973689Y3245757D01*
X3959578Y3245757D02*
X3889022Y3283555D01*
X3804356Y3283555D02*
X3804356Y3245757D01*
X3762022Y3223079D01*
X3762022Y3207960D01*
X3846689Y3207960D01*
X3846689Y3223079D01*
X3492500Y3153833D02*
X3873500Y3153833D01*
X3492500Y2942167D02*
X3873500Y2942167D01*
X4000500Y3048000D02*
X3979333Y3175000D01*
X3894667Y3175000D02*
X3873500Y3153833D01*
X3979333Y3175000D02*
X3894667Y3175000D01*
X4064000Y3048000D02*
X4000500Y3048000D01*
X3979333Y2921000D01*
X3894667Y2921000D01*
X3873500Y2942167D01*
X3365500Y3048000D02*
X3302000Y3048000D01*
X3365500Y3048000D02*
X3386667Y3175000D01*
X3471333Y3175000D02*
X3492500Y3153833D01*
X3386667Y3175000D02*
X3471333Y3175000D01*
X3365500Y3048000D02*
X3386667Y2921000D01*
X3471333Y2921000D02*
X3492500Y2942167D01*
X3386667Y2921000D02*
X3471333Y2921000D01*
X3392311Y3193445D02*
X3392311Y3269040D01*
X3448756Y3269040D01*
X3476978Y3253921D01*
X3476978Y3246362D01*
X3448756Y3231243D01*
X3392311Y3231243D01*
X3406422Y3231243D02*
X3476978Y3193445D01*
X3589867Y3269040D02*
X3547533Y3269040D01*
X3519311Y3253921D01*
X3519311Y3223683D01*
X3519311Y3208564D01*
X3547533Y3193445D01*
X3575756Y3193445D01*
X3603978Y3208564D01*
X3603978Y3223683D01*
X3575756Y3238802D01*
X3547533Y3238802D01*
X3519311Y3223683D01*
X3873500Y3323167D02*
X3492500Y3323167D01*
X3873500Y3534833D02*
X3492500Y3534833D01*
X3365500Y3429000D02*
X3386667Y3302000D01*
X3471333Y3302000D02*
X3492500Y3323167D01*
X3386667Y3302000D02*
X3471333Y3302000D01*
X3302000Y3429000D02*
X3365500Y3429000D01*
X3386667Y3556000D01*
X3471333Y3556000D01*
X3492500Y3534833D01*
X4000500Y3429000D02*
X4064000Y3429000D01*
X4000500Y3429000D02*
X3979333Y3302000D01*
X3894667Y3302000D02*
X3873500Y3323167D01*
X3979333Y3302000D02*
X3894667Y3302000D01*
X4000500Y3429000D02*
X3979333Y3556000D01*
X3894667Y3556000D02*
X3873500Y3534833D01*
X3979333Y3556000D02*
X3894667Y3556000D01*
X4979811Y3193445D02*
X4979811Y3269040D01*
X5036256Y3269040D01*
X5064478Y3253921D01*
X5064478Y3246362D01*
X5036256Y3231243D01*
X4979811Y3231243D01*
X4993922Y3231243D02*
X5064478Y3193445D01*
X5120922Y3253921D02*
X5149144Y3269040D01*
X5149144Y3193445D01*
X5106811Y3193445D02*
X5191478Y3193445D01*
X5233811Y3253921D02*
X5262033Y3269040D01*
X5290256Y3269040D01*
X5318478Y3253921D01*
X5318478Y3246362D01*
X5233811Y3193445D01*
X5318478Y3193445D01*
X5318478Y3201005D01*
X5524500Y3323167D02*
X5143500Y3323167D01*
X5524500Y3534833D02*
X5143500Y3534833D01*
X5016500Y3429000D02*
X5037667Y3302000D01*
X5122333Y3302000D02*
X5143500Y3323167D01*
X5037667Y3302000D02*
X5122333Y3302000D01*
X4953000Y3429000D02*
X5016500Y3429000D01*
X5037667Y3556000D01*
X5122333Y3556000D01*
X5143500Y3534833D01*
X5651500Y3429000D02*
X5715000Y3429000D01*
X5651500Y3429000D02*
X5630333Y3302000D01*
X5545667Y3302000D02*
X5524500Y3323167D01*
X5630333Y3302000D02*
X5545667Y3302000D01*
X5651500Y3429000D02*
X5630333Y3556000D01*
X5545667Y3556000D02*
X5524500Y3534833D01*
X5630333Y3556000D02*
X5545667Y3556000D01*
X3571956Y3927000D02*
X3571956Y3847000D01*
X3591867Y3827000D01*
X3611778Y3827000D01*
X3631689Y3847000D01*
X3631689Y3927000D01*
X3671511Y3907000D02*
X3691422Y3927000D01*
X3691422Y3827000D01*
X3661556Y3827000D02*
X3721289Y3827000D01*
X3751156Y3907000D02*
X3771067Y3927000D01*
X3790978Y3927000D01*
X3810889Y3907000D01*
X3810889Y3897000D01*
X3751156Y3827000D01*
X3810889Y3827000D01*
X3810889Y3837000D01*
X4191000Y4720500D02*
X3175000Y4720500D01*
X3175000Y4169500D02*
X4191000Y4169500D01*
X3175000Y4720500D02*
X3175000Y4169500D01*
X4191000Y4169500D02*
X4191000Y4720500D01*
X5222956Y3927000D02*
X5222956Y3847000D01*
X5242867Y3827000D01*
X5262778Y3827000D01*
X5282689Y3847000D01*
X5282689Y3927000D01*
X5322511Y3907000D02*
X5342422Y3927000D01*
X5342422Y3827000D01*
X5312556Y3827000D02*
X5372289Y3827000D01*
X5412111Y3917000D02*
X5422067Y3927000D01*
X5441978Y3927000D01*
X5461889Y3907000D01*
X5461889Y3887000D01*
X5451933Y3877000D01*
X5461889Y3867000D01*
X5461889Y3847000D01*
X5441978Y3827000D01*
X5422067Y3827000D01*
X5412111Y3837000D01*
X5422067Y3877000D02*
X5451933Y3877000D01*
X5842000Y4720500D02*
X4826000Y4720500D01*
X4826000Y4169500D02*
X5842000Y4169500D01*
X4826000Y4720500D02*
X4826000Y4169500D01*
X5842000Y4169500D02*
X5842000Y4720500D01*
X1366762Y4557889D02*
X1442357Y4557889D01*
X1442357Y4501445D01*
X1427238Y4473222D01*
X1419679Y4473222D01*
X1404560Y4501445D01*
X1404560Y4557889D01*
X1404560Y4543778D02*
X1366762Y4473222D01*
X1366762Y4374445D02*
X1366762Y4402667D01*
X1381881Y4430889D01*
X1397000Y4430889D01*
X1404560Y4416778D01*
X1412119Y4430889D01*
X1427238Y4430889D01*
X1442357Y4402667D01*
X1442357Y4374445D01*
X1427238Y4346222D01*
X1412119Y4346222D01*
X1404560Y4360333D01*
X1397000Y4346222D01*
X1381881Y4346222D01*
X1366762Y4374445D01*
X1404560Y4416778D02*
X1404560Y4360333D01*
X1905000Y4542367D02*
X2125133Y4318000D01*
X2032000Y4286250D02*
X2045836Y4286854D01*
X2059567Y4288662D01*
X2073087Y4291659D01*
X2086296Y4295824D01*
X2099091Y4301124D01*
X2111375Y4307519D01*
X2123055Y4314960D01*
X2134042Y4323391D01*
X2144253Y4332747D01*
X2153609Y4342958D01*
X2162040Y4353945D01*
X2169481Y4365625D01*
X2175876Y4377909D01*
X2181176Y4390704D01*
X2185341Y4403913D01*
X2188338Y4417433D01*
X2190146Y4431164D01*
X2190750Y4445000D01*
X2190146Y4458836D01*
X2188338Y4472567D01*
X2185341Y4486087D01*
X2181176Y4499296D01*
X2175876Y4512091D01*
X2169481Y4524375D01*
X2162040Y4536055D01*
X2153609Y4547042D01*
X2144253Y4557253D01*
X2134042Y4566609D01*
X2123055Y4575040D01*
X2111375Y4582481D01*
X2099091Y4588876D01*
X2086296Y4594176D01*
X2073087Y4598341D01*
X2059567Y4601338D01*
X2045836Y4603146D01*
X2032000Y4603750D01*
X2018164Y4603146D01*
X2004433Y4601338D01*
X1990913Y4598341D01*
X1977704Y4594176D01*
X1964909Y4588876D01*
X1952625Y4582481D01*
X1940945Y4575040D01*
X1929958Y4566609D01*
X1919747Y4557253D01*
X1910391Y4547042D01*
X1901960Y4536055D01*
X1894519Y4524375D01*
X1888124Y4512091D01*
X1882824Y4499296D01*
X1878659Y4486087D01*
X1875662Y4472567D01*
X1873854Y4458836D01*
X1873250Y4445000D01*
X1873854Y4431164D01*
X1875662Y4417433D01*
X1878659Y4403913D01*
X1882824Y4390704D01*
X1888124Y4377909D01*
X1894519Y4365625D01*
X1901960Y4353945D01*
X1910391Y4342958D01*
X1919747Y4332747D01*
X1929958Y4323391D01*
X1940945Y4314960D01*
X1952625Y4307519D01*
X1964909Y4301124D01*
X1977704Y4295824D01*
X1990913Y4291659D01*
X2004433Y4288662D01*
X2018164Y4286854D01*
X2032000Y4286250D01*
X1934633Y4572000D02*
X2159000Y4351867D01*
X2440940Y4848860D02*
X1630680Y4853940D01*
X1630680Y4047490D02*
X2428240Y4039870D01*
X2438400Y4041140D02*
X2438400Y4853940D01*
X1630680Y4853940D02*
X1630680Y4053840D01*
X739307Y4088652D02*
X754426Y4116874D01*
X754426Y4145097D01*
X739307Y4173319D01*
X678831Y4173319D01*
X678831Y4286208D02*
X678831Y4243874D01*
X693950Y4215652D01*
X724188Y4215652D01*
X739307Y4215652D01*
X754426Y4243874D01*
X754426Y4272097D01*
X739307Y4300319D01*
X724188Y4300319D01*
X709069Y4272097D01*
X709069Y4243874D01*
X724188Y4215652D01*
X635000Y5080000D02*
X635000Y4064000D01*
X381000Y5080000D02*
X381000Y4318000D01*
X381000Y4064000D02*
X635000Y4064000D01*
X381000Y4254500D02*
X381000Y4064000D01*
X381000Y4296833D02*
X465667Y4296833D01*
X402167Y4275667D02*
X381000Y4296833D01*
X381000Y5080000D02*
X635000Y5080000D01*
X871764Y4701822D02*
X856645Y4730045D01*
X856645Y4758267D01*
X871764Y4786489D01*
X917121Y4786489D01*
X932240Y4758267D01*
X932240Y4730045D01*
X917121Y4701822D01*
X917121Y4645378D02*
X932240Y4617156D01*
X856645Y4617156D01*
X856645Y4659489D02*
X856645Y4574822D01*
X917121Y4532489D02*
X932240Y4504267D01*
X932240Y4476045D01*
X917121Y4447822D01*
X871764Y4447822D01*
X856645Y4476045D01*
X856645Y4504267D01*
X871764Y4532489D01*
X917121Y4532489D01*
X917121Y4447822D02*
X871764Y4532489D01*
X973667Y4085167D02*
X973667Y4804833D01*
X1312333Y4804833D02*
X1312333Y4085167D01*
X973667Y4804833D02*
X1312333Y4804833D01*
X1066800Y4470400D02*
X1219200Y4470400D01*
X1219200Y4483100D02*
X1066800Y4483100D01*
X1066800Y4495800D02*
X1219200Y4495800D01*
X1143000Y4495800D02*
X1143000Y4533900D01*
X1312333Y4085167D02*
X973667Y4085167D01*
X1066800Y4406900D02*
X1219200Y4406900D01*
X1219200Y4419600D02*
X1066800Y4419600D01*
X1219200Y4394200D02*
X1066800Y4394200D01*
X1143000Y4394200D02*
X1143000Y4356100D01*
X2522764Y4638322D02*
X2507645Y4666545D01*
X2507645Y4694767D01*
X2522764Y4722989D01*
X2568121Y4722989D01*
X2583240Y4694767D01*
X2583240Y4666545D01*
X2568121Y4638322D01*
X2507645Y4539545D02*
X2507645Y4567767D01*
X2522764Y4595989D01*
X2537883Y4595989D01*
X2545443Y4581878D01*
X2553002Y4595989D01*
X2568121Y4595989D01*
X2583240Y4567767D01*
X2583240Y4539545D01*
X2568121Y4511322D01*
X2553002Y4511322D01*
X2545443Y4525433D01*
X2537883Y4511322D01*
X2522764Y4511322D01*
X2507645Y4539545D01*
X2545443Y4581878D02*
X2545443Y4525433D01*
X2624667Y4085167D02*
X2624667Y4804833D01*
X2963333Y4804833D02*
X2963333Y4085167D01*
X2624667Y4804833D02*
X2963333Y4804833D01*
X2717800Y4470400D02*
X2870200Y4470400D01*
X2870200Y4483100D02*
X2717800Y4483100D01*
X2717800Y4495800D02*
X2870200Y4495800D01*
X2794000Y4495800D02*
X2794000Y4533900D01*
X2963333Y4085167D02*
X2624667Y4085167D01*
X2717800Y4406900D02*
X2870200Y4406900D01*
X2870200Y4419600D02*
X2717800Y4419600D01*
X2870200Y4394200D02*
X2717800Y4394200D01*
X2794000Y4394200D02*
X2794000Y4356100D01*
X4300764Y4638322D02*
X4285645Y4666545D01*
X4285645Y4694767D01*
X4300764Y4722989D01*
X4346121Y4722989D01*
X4361240Y4694767D01*
X4361240Y4666545D01*
X4346121Y4638322D01*
X4300764Y4595989D02*
X4285645Y4567767D01*
X4285645Y4539545D01*
X4300764Y4511322D01*
X4331002Y4511322D01*
X4346121Y4511322D01*
X4361240Y4539545D01*
X4361240Y4567767D01*
X4346121Y4595989D01*
X4331002Y4595989D01*
X4315883Y4567767D01*
X4315883Y4539545D01*
X4331002Y4511322D01*
X4402667Y4085167D02*
X4402667Y4804833D01*
X4741333Y4804833D02*
X4741333Y4085167D01*
X4402667Y4804833D02*
X4741333Y4804833D01*
X4495800Y4470400D02*
X4648200Y4470400D01*
X4648200Y4483100D02*
X4495800Y4483100D01*
X4495800Y4495800D02*
X4648200Y4495800D01*
X4572000Y4495800D02*
X4572000Y4533900D01*
X4741333Y4085167D02*
X4402667Y4085167D01*
X4495800Y4406900D02*
X4648200Y4406900D01*
X4648200Y4419600D02*
X4495800Y4419600D01*
X4648200Y4394200D02*
X4495800Y4394200D01*
X4572000Y4394200D02*
X4572000Y4356100D01*
X5745238Y5729111D02*
X5669643Y5729111D01*
X5669643Y5785556D01*
X5684762Y5813778D01*
X5692321Y5813778D01*
X5707441Y5785556D01*
X5707441Y5729111D01*
X5707441Y5743222D02*
X5745238Y5813778D01*
X5669643Y5940778D02*
X5669643Y5856111D01*
X5699881Y5856111D01*
X5699881Y5912556D01*
X5715000Y5940778D01*
X5730119Y5940778D01*
X5745238Y5912556D01*
X5745238Y5856111D01*
X5207000Y5744633D02*
X4986867Y5969000D01*
X5080000Y6000750D02*
X5066164Y6000146D01*
X5052433Y5998338D01*
X5038913Y5995341D01*
X5025704Y5991176D01*
X5012909Y5985876D01*
X5000625Y5979481D01*
X4988945Y5972040D01*
X4977958Y5963609D01*
X4967747Y5954253D01*
X4958391Y5944042D01*
X4949960Y5933055D01*
X4942519Y5921375D01*
X4936124Y5909091D01*
X4930824Y5896296D01*
X4926659Y5883087D01*
X4923662Y5869567D01*
X4921854Y5855836D01*
X4921250Y5842000D01*
X4921854Y5828164D01*
X4923662Y5814433D01*
X4926659Y5800913D01*
X4930824Y5787704D01*
X4936124Y5774909D01*
X4942519Y5762625D01*
X4949960Y5750945D01*
X4958391Y5739958D01*
X4967747Y5729747D01*
X4977958Y5720391D01*
X4988945Y5711960D01*
X5000625Y5704519D01*
X5012909Y5698124D01*
X5025704Y5692824D01*
X5038913Y5688659D01*
X5052433Y5685662D01*
X5066164Y5683854D01*
X5080000Y5683250D01*
X5093836Y5683854D01*
X5107567Y5685662D01*
X5121087Y5688659D01*
X5134296Y5692824D01*
X5147091Y5698124D01*
X5159375Y5704519D01*
X5171055Y5711960D01*
X5182042Y5720391D01*
X5192253Y5729747D01*
X5201609Y5739958D01*
X5210040Y5750945D01*
X5217481Y5762625D01*
X5223876Y5774909D01*
X5229176Y5787704D01*
X5233341Y5800913D01*
X5236338Y5814433D01*
X5238146Y5828164D01*
X5238750Y5842000D01*
X5238146Y5855836D01*
X5236338Y5869567D01*
X5233341Y5883087D01*
X5229176Y5896296D01*
X5223876Y5909091D01*
X5217481Y5921375D01*
X5210040Y5933055D01*
X5201609Y5944042D01*
X5192253Y5954253D01*
X5182042Y5963609D01*
X5171055Y5972040D01*
X5159375Y5979481D01*
X5147091Y5985876D01*
X5134296Y5991176D01*
X5121087Y5995341D01*
X5107567Y5998338D01*
X5093836Y6000146D01*
X5080000Y6000750D01*
X5177367Y5715000D02*
X4953000Y5935133D01*
X4671060Y5438140D02*
X5481320Y5433060D01*
X5481320Y6239510D02*
X4683760Y6247130D01*
X4673600Y6245860D02*
X4673600Y5433060D01*
X5481320Y5433060D02*
X5481320Y6233160D01*
X4037189Y6077555D02*
X4037189Y6001960D01*
X3980745Y6001960D01*
X3952522Y6017079D01*
X3952522Y6024638D01*
X3980745Y6039757D01*
X4037189Y6039757D01*
X4023078Y6039757D02*
X3952522Y6077555D01*
X3896078Y6017079D02*
X3867856Y6001960D01*
X3867856Y6077555D01*
X3910189Y6077555D02*
X3825522Y6077555D01*
X3783189Y6017079D02*
X3754967Y6001960D01*
X3726745Y6001960D01*
X3698522Y6017079D01*
X3698522Y6062436D01*
X3726745Y6077555D01*
X3754967Y6077555D01*
X3783189Y6062436D01*
X3783189Y6017079D01*
X3698522Y6017079D02*
X3783189Y6062436D01*
X3492500Y5947833D02*
X3873500Y5947833D01*
X3492500Y5736167D02*
X3873500Y5736167D01*
X4000500Y5842000D02*
X3979333Y5969000D01*
X3894667Y5969000D02*
X3873500Y5947833D01*
X3979333Y5969000D02*
X3894667Y5969000D01*
X4064000Y5842000D02*
X4000500Y5842000D01*
X3979333Y5715000D01*
X3894667Y5715000D01*
X3873500Y5736167D01*
X3365500Y5842000D02*
X3302000Y5842000D01*
X3365500Y5842000D02*
X3386667Y5969000D01*
X3471333Y5969000D02*
X3492500Y5947833D01*
X3386667Y5969000D02*
X3471333Y5969000D01*
X3365500Y5842000D02*
X3386667Y5715000D01*
X3471333Y5715000D02*
X3492500Y5736167D01*
X3386667Y5715000D02*
X3471333Y5715000D01*
X10272889Y982436D02*
X10244667Y997555D01*
X10216445Y997555D01*
X10188222Y982436D01*
X10188222Y921960D01*
X10131778Y937079D02*
X10103556Y921960D01*
X10103556Y997555D01*
X10145889Y997555D02*
X10061222Y997555D01*
X9017000Y889000D02*
X10033000Y889000D01*
X9017000Y381000D02*
X10011833Y381000D01*
X10054170Y423337D02*
X10052325Y423256D01*
X10050494Y423015D01*
X10048692Y422616D01*
X10046931Y422060D01*
X10045225Y421354D01*
X10043587Y420501D01*
X10042029Y419509D01*
X10040564Y418385D01*
X10039203Y417137D01*
X10037955Y415776D01*
X10036831Y414311D01*
X10035839Y412753D01*
X10034986Y411115D01*
X10034280Y409409D01*
X10033724Y407648D01*
X10033325Y405846D01*
X10033084Y404015D01*
X10033003Y402170D01*
X10033084Y400325D01*
X10033325Y398494D01*
X10033724Y396692D01*
X10034280Y394931D01*
X10034986Y393225D01*
X10035839Y391587D01*
X10036831Y390029D01*
X10037955Y388564D01*
X10039203Y387203D01*
X10040564Y385955D01*
X10042029Y384831D01*
X10043587Y383839D01*
X10045225Y382986D01*
X10046931Y382280D01*
X10048692Y381724D01*
X10050494Y381325D01*
X10052325Y381084D01*
X10054170Y381003D01*
X10056015Y381084D01*
X10057846Y381325D01*
X10059648Y381724D01*
X10061409Y382280D01*
X10063115Y382986D01*
X10064753Y383839D01*
X10066311Y384831D01*
X10067776Y385955D01*
X10069137Y387203D01*
X10070385Y388564D01*
X10071509Y390029D01*
X10072501Y391587D01*
X10073354Y393225D01*
X10074060Y394931D01*
X10074616Y396692D01*
X10075015Y398494D01*
X10075256Y400325D01*
X10075337Y402170D01*
X10075337Y402170D01*
X10033000Y465667D02*
X10075333Y465667D01*
X10287000Y889000D02*
X10287000Y381000D01*
X10054167Y804333D02*
X10054167Y889000D01*
X10075333Y825500D02*
X10054167Y804333D01*
X10096500Y889000D02*
X10287000Y889000D01*
X10287000Y381000D02*
X10096500Y381000D01*
X10054170Y423333D02*
X10056015Y423414D01*
X10057846Y423655D01*
X10059648Y424055D01*
X10061409Y424610D01*
X10063115Y425316D01*
X10064753Y426169D01*
X10066311Y427161D01*
X10067776Y428285D01*
X10069137Y429533D01*
X10070385Y430894D01*
X10071509Y432359D01*
X10072501Y433917D01*
X10073354Y435555D01*
X10074060Y437261D01*
X10074615Y439022D01*
X10075015Y440824D01*
X10075256Y442655D01*
X10075337Y444500D01*
X10075337Y444500D01*
X10075333Y465667D02*
X10075333Y444500D01*
X9017000Y381000D02*
X9017000Y889000D01*
X3616756Y8016400D02*
X3616756Y7936400D01*
X3636667Y7916400D01*
X3656578Y7916400D01*
X3676489Y7936400D01*
X3676489Y8016400D01*
X3716311Y8006400D02*
X3726267Y8016400D01*
X3746178Y8016400D01*
X3766089Y7996400D01*
X3766089Y7976400D01*
X3756133Y7966400D01*
X3766089Y7956400D01*
X3766089Y7936400D01*
X3746178Y7916400D01*
X3726267Y7916400D01*
X3716311Y7926400D01*
X3726267Y7966400D02*
X3756133Y7966400D01*
X5041500Y8782500D02*
X2324500Y8782500D01*
X2324500Y8235500D02*
X5041500Y8235500D01*
X2324500Y8782500D02*
X2324500Y8235500D01*
X5041500Y8235500D02*
X5041500Y8782500D01*
X1760764Y8702322D02*
X1745645Y8730545D01*
X1745645Y8758767D01*
X1760764Y8786989D01*
X1806121Y8786989D01*
X1821240Y8758767D01*
X1821240Y8730545D01*
X1806121Y8702322D01*
X1813681Y8645878D02*
X1821240Y8631767D01*
X1821240Y8603545D01*
X1806121Y8575322D01*
X1791002Y8575322D01*
X1783443Y8589433D01*
X1775883Y8575322D01*
X1760764Y8575322D01*
X1745645Y8603545D01*
X1745645Y8631767D01*
X1753205Y8645878D01*
X1783443Y8631767D02*
X1783443Y8589433D01*
X1862667Y8149167D02*
X1862667Y8868833D01*
X2201333Y8868833D02*
X2201333Y8149167D01*
X1862667Y8868833D02*
X2201333Y8868833D01*
X1955800Y8534400D02*
X2108200Y8534400D01*
X2108200Y8547100D02*
X1955800Y8547100D01*
X1955800Y8559800D02*
X2108200Y8559800D01*
X2032000Y8559800D02*
X2032000Y8597900D01*
X2201333Y8149167D02*
X1862667Y8149167D01*
X1955800Y8470900D02*
X2108200Y8470900D01*
X2108200Y8483600D02*
X1955800Y8483600D01*
X2108200Y8458200D02*
X1955800Y8458200D01*
X2032000Y8458200D02*
X2032000Y8420100D01*
X3616756Y12080400D02*
X3616756Y12000400D01*
X3636667Y11980400D01*
X3656578Y11980400D01*
X3676489Y12000400D01*
X3676489Y12080400D01*
X3706356Y12060400D02*
X3726267Y12080400D01*
X3746178Y12080400D01*
X3766089Y12060400D01*
X3766089Y12050400D01*
X3706356Y11980400D01*
X3766089Y11980400D01*
X3766089Y11990400D01*
X5041500Y12846500D02*
X2324500Y12846500D01*
X2324500Y12299500D02*
X5041500Y12299500D01*
X2324500Y12846500D02*
X2324500Y12299500D01*
X5041500Y12299500D02*
X5041500Y12846500D01*
X1760764Y12766322D02*
X1745645Y12794545D01*
X1745645Y12822767D01*
X1760764Y12850989D01*
X1806121Y12850989D01*
X1821240Y12822767D01*
X1821240Y12794545D01*
X1806121Y12766322D01*
X1806121Y12723989D02*
X1821240Y12695767D01*
X1821240Y12667545D01*
X1806121Y12639322D01*
X1798562Y12639322D01*
X1745645Y12723989D01*
X1745645Y12639322D01*
X1753205Y12639322D01*
X1862667Y12213167D02*
X1862667Y12932833D01*
X2201333Y12932833D02*
X2201333Y12213167D01*
X1862667Y12932833D02*
X2201333Y12932833D01*
X1955800Y12598400D02*
X2108200Y12598400D01*
X2108200Y12611100D02*
X1955800Y12611100D01*
X1955800Y12623800D02*
X2108200Y12623800D01*
X2032000Y12623800D02*
X2032000Y12661900D01*
X2201333Y12213167D02*
X1862667Y12213167D01*
X1955800Y12534900D02*
X2108200Y12534900D01*
X2108200Y12547600D02*
X1955800Y12547600D01*
X2108200Y12522200D02*
X1955800Y12522200D01*
X2032000Y12522200D02*
X2032000Y12484100D01*
X2555119Y268111D02*
X2570238Y296333D01*
X2570238Y324556D01*
X2555119Y352778D01*
X2494643Y352778D01*
X2502202Y409222D02*
X2494643Y423333D01*
X2494643Y451556D01*
X2509762Y479778D01*
X2524881Y479778D01*
X2532441Y465667D01*
X2540000Y479778D01*
X2555119Y479778D01*
X2570238Y451556D01*
X2570238Y423333D01*
X2562679Y409222D01*
X2532441Y423333D02*
X2532441Y465667D01*
X2794000Y254000D02*
X2667000Y381000D01*
X2794000Y508000D01*
X2921000Y381000D02*
X2794000Y254000D01*
X2794000Y508000D02*
X2921000Y381000D01*
X4967111Y619881D02*
X4995333Y604762D01*
X5023556Y604762D01*
X5051778Y619881D01*
X5051778Y680357D01*
X5178778Y635000D02*
X5094111Y635000D01*
X5164667Y680357D01*
X5164667Y604762D01*
X5150556Y604762D02*
X5178778Y604762D01*
X4953000Y381000D02*
X5080000Y508000D01*
X5207000Y381000D01*
X5080000Y254000D02*
X4953000Y381000D01*
X5207000Y381000D02*
X5080000Y254000D01*
X4414762Y1636889D02*
X4490357Y1636889D01*
X4490357Y1580445D01*
X4475238Y1552222D01*
X4467679Y1552222D01*
X4452560Y1580445D01*
X4452560Y1636889D01*
X4452560Y1622778D02*
X4414762Y1552222D01*
X4482798Y1495778D02*
X4490357Y1481667D01*
X4490357Y1453445D01*
X4475238Y1425222D01*
X4460119Y1425222D01*
X4452560Y1439333D01*
X4445000Y1425222D01*
X4429881Y1425222D01*
X4414762Y1453445D01*
X4414762Y1481667D01*
X4422321Y1495778D01*
X4452560Y1481667D02*
X4452560Y1439333D01*
X4953000Y1621367D02*
X5173133Y1397000D01*
X5080000Y1365250D02*
X5093836Y1365854D01*
X5107567Y1367662D01*
X5121087Y1370659D01*
X5134296Y1374824D01*
X5147091Y1380124D01*
X5159375Y1386519D01*
X5171055Y1393960D01*
X5182042Y1402391D01*
X5192253Y1411747D01*
X5201609Y1421958D01*
X5210040Y1432945D01*
X5217481Y1444625D01*
X5223876Y1456909D01*
X5229176Y1469704D01*
X5233341Y1482913D01*
X5236338Y1496433D01*
X5238146Y1510164D01*
X5238750Y1524000D01*
X5238146Y1537836D01*
X5236338Y1551567D01*
X5233341Y1565087D01*
X5229176Y1578296D01*
X5223876Y1591091D01*
X5217481Y1603375D01*
X5210040Y1615055D01*
X5201609Y1626042D01*
X5192253Y1636253D01*
X5182042Y1645609D01*
X5171055Y1654040D01*
X5159375Y1661481D01*
X5147091Y1667876D01*
X5134296Y1673176D01*
X5121087Y1677341D01*
X5107567Y1680338D01*
X5093836Y1682146D01*
X5080000Y1682750D01*
X5066164Y1682146D01*
X5052433Y1680338D01*
X5038913Y1677341D01*
X5025704Y1673176D01*
X5012909Y1667876D01*
X5000625Y1661481D01*
X4988945Y1654040D01*
X4977958Y1645609D01*
X4967747Y1636253D01*
X4958391Y1626042D01*
X4949960Y1615055D01*
X4942519Y1603375D01*
X4936124Y1591091D01*
X4930824Y1578296D01*
X4926659Y1565087D01*
X4923662Y1551567D01*
X4921854Y1537836D01*
X4921250Y1524000D01*
X4921854Y1510164D01*
X4923662Y1496433D01*
X4926659Y1482913D01*
X4930824Y1469704D01*
X4936124Y1456909D01*
X4942519Y1444625D01*
X4949960Y1432945D01*
X4958391Y1421958D01*
X4967747Y1411747D01*
X4977958Y1402391D01*
X4988945Y1393960D01*
X5000625Y1386519D01*
X5012909Y1380124D01*
X5025704Y1374824D01*
X5038913Y1370659D01*
X5052433Y1367662D01*
X5066164Y1365854D01*
X5080000Y1365250D01*
X4982633Y1651000D02*
X5207000Y1430867D01*
X5488940Y1927860D02*
X4678680Y1932940D01*
X4678680Y1126490D02*
X5476240Y1118870D01*
X5486400Y1120140D02*
X5486400Y1932940D01*
X4678680Y1932940D02*
X4678680Y1132840D01*
X4333119Y2681111D02*
X4348238Y2709333D01*
X4348238Y2737556D01*
X4333119Y2765778D01*
X4272643Y2765778D01*
X4272643Y2892778D02*
X4272643Y2808111D01*
X4302881Y2808111D01*
X4302881Y2864556D01*
X4318000Y2892778D01*
X4333119Y2892778D01*
X4348238Y2864556D01*
X4348238Y2808111D01*
X4572000Y2667000D02*
X4445000Y2794000D01*
X4572000Y2921000D01*
X4699000Y2794000D02*
X4572000Y2667000D01*
X4572000Y2921000D02*
X4699000Y2794000D01*
X11300000Y759000D02*
X12830000Y759000D01*
X12830000Y2289000D01*
X11300000Y2289000D01*
X11300000Y759000D01*
X11869964Y12525022D02*
X11854845Y12553245D01*
X11854845Y12581467D01*
X11869964Y12609689D01*
X11915321Y12609689D01*
X11930440Y12581467D01*
X11930440Y12553245D01*
X11915321Y12525022D01*
X11915321Y12468578D02*
X11930440Y12440356D01*
X11854845Y12440356D01*
X11854845Y12482689D02*
X11854845Y12398022D01*
X11922881Y12341578D02*
X11930440Y12327467D01*
X11930440Y12299245D01*
X11915321Y12271022D01*
X11900202Y12271022D01*
X11892643Y12285133D01*
X11885083Y12271022D01*
X11869964Y12271022D01*
X11854845Y12299245D01*
X11854845Y12327467D01*
X11862405Y12341578D01*
X11892643Y12327467D02*
X11892643Y12285133D01*
X12065708Y12338484D02*
X12076042Y12316817D01*
X12088226Y12296133D01*
X12102166Y12276590D01*
X12117756Y12258337D01*
X12134878Y12241511D01*
X12153401Y12226242D01*
X12173184Y12212645D01*
X12194077Y12200825D01*
X12215921Y12190870D01*
X12238549Y12182857D01*
X12261790Y12176846D01*
X12285466Y12172884D01*
X12309397Y12171001D01*
X12333401Y12171211D01*
X12357296Y12173511D01*
X12380899Y12177886D01*
X12404031Y12184301D01*
X12426516Y12192708D01*
X12448183Y12203042D01*
X12468867Y12215226D01*
X12488410Y12229166D01*
X12506663Y12244756D01*
X12523489Y12261878D01*
X12538758Y12280401D01*
X12552355Y12300184D01*
X12564175Y12321077D01*
X12574130Y12342921D01*
X12582143Y12365549D01*
X12588154Y12388790D01*
X12592116Y12412466D01*
X12593999Y12436397D01*
X12593789Y12460401D01*
X12591489Y12484296D01*
X12587114Y12507899D01*
X12580699Y12531031D01*
X12572292Y12553516D01*
X12561958Y12575183D01*
X12549774Y12595867D01*
X12535834Y12615410D01*
X12520244Y12633663D01*
X12503122Y12650489D01*
X12484599Y12665758D01*
X12464816Y12679355D01*
X12443923Y12691175D01*
X12422079Y12701130D01*
X12399451Y12709143D01*
X12376210Y12715154D01*
X12352534Y12719116D01*
X12328603Y12720999D01*
X12304599Y12720789D01*
X12280704Y12718489D01*
X12257101Y12714114D01*
X12233969Y12707699D01*
X12211484Y12699292D01*
X12189817Y12688958D01*
X12169133Y12676774D01*
X12149590Y12662834D01*
X12131337Y12647244D01*
X12114511Y12630122D01*
X12099242Y12611599D01*
X12085645Y12591816D01*
X12073825Y12570923D01*
X12065708Y12553516D01*
X12530667Y12446000D02*
X12529861Y12464448D01*
X12527451Y12482756D01*
X12523454Y12500783D01*
X12517902Y12518394D01*
X12510835Y12535454D01*
X12502309Y12551833D01*
X12492387Y12567407D01*
X12481146Y12582057D01*
X12468671Y12595671D01*
X12455057Y12608146D01*
X12440407Y12619387D01*
X12424833Y12629309D01*
X12408454Y12637835D01*
X12391394Y12644902D01*
X12373783Y12650454D01*
X12355756Y12654451D01*
X12337448Y12656861D01*
X12319000Y12657667D01*
X12300552Y12656861D01*
X12282244Y12654451D01*
X12264217Y12650454D01*
X12246606Y12644902D01*
X12229546Y12637835D01*
X12213167Y12629309D01*
X12197593Y12619387D01*
X12182943Y12608146D01*
X12169329Y12595671D01*
X12156854Y12582057D01*
X12145613Y12567407D01*
X12135691Y12551833D01*
X12127165Y12535454D01*
X12120098Y12518394D01*
X12114546Y12500783D01*
X12110549Y12482756D01*
X12108139Y12464448D01*
X12107333Y12446000D01*
X12108139Y12427552D01*
X12110549Y12409244D01*
X12114546Y12391217D01*
X12120098Y12373606D01*
X12127165Y12356546D01*
X12135691Y12340167D01*
X12145613Y12324593D01*
X12156854Y12309943D01*
X12169329Y12296329D01*
X12182943Y12283854D01*
X12197593Y12272613D01*
X12213167Y12262691D01*
X12229546Y12254165D01*
X12246606Y12247098D01*
X12264217Y12241546D01*
X12282244Y12237549D01*
X12300552Y12235139D01*
X12319000Y12234333D01*
X12337448Y12235139D01*
X12355756Y12237549D01*
X12373783Y12241546D01*
X12391394Y12247098D01*
X12408454Y12254165D01*
X12424833Y12262691D01*
X12440407Y12272613D01*
X12455057Y12283854D01*
X12468671Y12296329D01*
X12481146Y12309943D01*
X12492387Y12324593D01*
X12502309Y12340167D01*
X12510835Y12356546D01*
X12517902Y12373606D01*
X12523454Y12391217D01*
X12527451Y12409244D01*
X12529861Y12427552D01*
X12530667Y12446000D01*
X12530667Y12446000D01*
X12086167Y12446000D02*
X12001500Y12446000D01*
X12043833Y12403667D02*
X12043833Y12488333D01*
X12306300Y12522200D02*
X12306300Y12369800D01*
X12268200Y12522200D02*
X12268200Y12369800D01*
X12344400Y12369800D02*
X12344400Y12522200D01*
X12357100Y12522200D02*
X12357100Y12369800D01*
X12369800Y12522200D02*
X12369800Y12496800D01*
X12306300Y12369800D02*
X12268200Y12369800D01*
X12369800Y12369800D02*
X12369800Y12395200D01*
X12306300Y12522200D02*
X12268200Y12522200D01*
X14409964Y12525022D02*
X14394845Y12553245D01*
X14394845Y12581467D01*
X14409964Y12609689D01*
X14455321Y12609689D01*
X14470440Y12581467D01*
X14470440Y12553245D01*
X14455321Y12525022D01*
X14455321Y12468578D02*
X14470440Y12440356D01*
X14394845Y12440356D01*
X14394845Y12482689D02*
X14394845Y12398022D01*
X14455321Y12341578D02*
X14470440Y12313356D01*
X14394845Y12313356D01*
X14394845Y12355689D02*
X14394845Y12271022D01*
X14605708Y12338484D02*
X14616042Y12316817D01*
X14628226Y12296133D01*
X14642166Y12276590D01*
X14657756Y12258337D01*
X14674878Y12241511D01*
X14693401Y12226242D01*
X14713184Y12212645D01*
X14734077Y12200825D01*
X14755921Y12190870D01*
X14778549Y12182857D01*
X14801790Y12176846D01*
X14825466Y12172884D01*
X14849397Y12171001D01*
X14873401Y12171211D01*
X14897296Y12173511D01*
X14920899Y12177886D01*
X14944031Y12184301D01*
X14966516Y12192708D01*
X14988183Y12203042D01*
X15008867Y12215226D01*
X15028410Y12229166D01*
X15046663Y12244756D01*
X15063489Y12261878D01*
X15078758Y12280401D01*
X15092355Y12300184D01*
X15104175Y12321077D01*
X15114130Y12342921D01*
X15122143Y12365549D01*
X15128154Y12388790D01*
X15132116Y12412466D01*
X15133999Y12436397D01*
X15133789Y12460401D01*
X15131489Y12484296D01*
X15127114Y12507899D01*
X15120699Y12531031D01*
X15112292Y12553516D01*
X15101958Y12575183D01*
X15089774Y12595867D01*
X15075834Y12615410D01*
X15060244Y12633663D01*
X15043122Y12650489D01*
X15024599Y12665758D01*
X15004816Y12679355D01*
X14983923Y12691175D01*
X14962079Y12701130D01*
X14939451Y12709143D01*
X14916210Y12715154D01*
X14892534Y12719116D01*
X14868603Y12720999D01*
X14844599Y12720789D01*
X14820704Y12718489D01*
X14797101Y12714114D01*
X14773969Y12707699D01*
X14751484Y12699292D01*
X14729817Y12688958D01*
X14709133Y12676774D01*
X14689590Y12662834D01*
X14671337Y12647244D01*
X14654511Y12630122D01*
X14639242Y12611599D01*
X14625645Y12591816D01*
X14613825Y12570923D01*
X14605708Y12553516D01*
X15070667Y12446000D02*
X15069861Y12464448D01*
X15067451Y12482756D01*
X15063454Y12500783D01*
X15057902Y12518394D01*
X15050835Y12535454D01*
X15042309Y12551833D01*
X15032387Y12567407D01*
X15021146Y12582057D01*
X15008671Y12595671D01*
X14995057Y12608146D01*
X14980407Y12619387D01*
X14964833Y12629309D01*
X14948454Y12637835D01*
X14931394Y12644902D01*
X14913783Y12650454D01*
X14895756Y12654451D01*
X14877448Y12656861D01*
X14859000Y12657667D01*
X14840552Y12656861D01*
X14822244Y12654451D01*
X14804217Y12650454D01*
X14786606Y12644902D01*
X14769546Y12637835D01*
X14753167Y12629309D01*
X14737593Y12619387D01*
X14722943Y12608146D01*
X14709329Y12595671D01*
X14696854Y12582057D01*
X14685613Y12567407D01*
X14675691Y12551833D01*
X14667165Y12535454D01*
X14660098Y12518394D01*
X14654546Y12500783D01*
X14650549Y12482756D01*
X14648139Y12464448D01*
X14647333Y12446000D01*
X14648139Y12427552D01*
X14650549Y12409244D01*
X14654546Y12391217D01*
X14660098Y12373606D01*
X14667165Y12356546D01*
X14675691Y12340167D01*
X14685613Y12324593D01*
X14696854Y12309943D01*
X14709329Y12296329D01*
X14722943Y12283854D01*
X14737593Y12272613D01*
X14753167Y12262691D01*
X14769546Y12254165D01*
X14786606Y12247098D01*
X14804217Y12241546D01*
X14822244Y12237549D01*
X14840552Y12235139D01*
X14859000Y12234333D01*
X14877448Y12235139D01*
X14895756Y12237549D01*
X14913783Y12241546D01*
X14931394Y12247098D01*
X14948454Y12254165D01*
X14964833Y12262691D01*
X14980407Y12272613D01*
X14995057Y12283854D01*
X15008671Y12296329D01*
X15021146Y12309943D01*
X15032387Y12324593D01*
X15042309Y12340167D01*
X15050835Y12356546D01*
X15057902Y12373606D01*
X15063454Y12391217D01*
X15067451Y12409244D01*
X15069861Y12427552D01*
X15070667Y12446000D01*
X15070667Y12446000D01*
X14626167Y12446000D02*
X14541500Y12446000D01*
X14583833Y12403667D02*
X14583833Y12488333D01*
X14846300Y12522200D02*
X14846300Y12369800D01*
X14808200Y12522200D02*
X14808200Y12369800D01*
X14884400Y12369800D02*
X14884400Y12522200D01*
X14897100Y12522200D02*
X14897100Y12369800D01*
X14909800Y12522200D02*
X14909800Y12496800D01*
X14846300Y12369800D02*
X14808200Y12369800D01*
X14909800Y12369800D02*
X14909800Y12395200D01*
X14846300Y12522200D02*
X14808200Y12522200D01*
X13337822Y12717236D02*
X13366045Y12732355D01*
X13394267Y12732355D01*
X13422489Y12717236D01*
X13422489Y12671879D01*
X13394267Y12656760D01*
X13366045Y12656760D01*
X13337822Y12671879D01*
X13281378Y12671879D02*
X13253156Y12656760D01*
X13253156Y12732355D01*
X13295489Y12732355D02*
X13210822Y12732355D01*
X13168489Y12671879D02*
X13140267Y12656760D01*
X13112045Y12656760D01*
X13083822Y12671879D01*
X13083822Y12679438D01*
X13168489Y12732355D01*
X13083822Y12732355D01*
X13083822Y12724795D01*
X12721167Y12615333D02*
X13440833Y12615333D01*
X13440833Y12276667D02*
X12721167Y12276667D01*
X13440833Y12615333D02*
X13440833Y12276667D01*
X13106400Y12522200D02*
X13106400Y12369800D01*
X13119100Y12369800D02*
X13119100Y12522200D01*
X13131800Y12522200D02*
X13131800Y12369800D01*
X13131800Y12446000D02*
X13169900Y12446000D01*
X12721167Y12276667D02*
X12721167Y12615333D01*
X13042900Y12522200D02*
X13042900Y12369800D01*
X13055600Y12369800D02*
X13055600Y12522200D01*
X13030200Y12369800D02*
X13030200Y12522200D01*
X13030200Y12446000D02*
X12992100Y12446000D01*
X13603111Y12684881D02*
X13631333Y12669762D01*
X13659556Y12669762D01*
X13687778Y12684881D01*
X13687778Y12745357D01*
X13772444Y12669762D02*
X13772444Y12707560D01*
X13814778Y12730238D01*
X13814778Y12745357D01*
X13730111Y12745357D01*
X13730111Y12730238D01*
X13589000Y12446000D02*
X13716000Y12573000D01*
X13843000Y12446000D01*
X13716000Y12319000D02*
X13589000Y12446000D01*
X13843000Y12446000D02*
X13716000Y12319000D01*
X15877822Y12717236D02*
X15906045Y12732355D01*
X15934267Y12732355D01*
X15962489Y12717236D01*
X15962489Y12671879D01*
X15934267Y12656760D01*
X15906045Y12656760D01*
X15877822Y12671879D01*
X15821378Y12671879D02*
X15793156Y12656760D01*
X15793156Y12732355D01*
X15835489Y12732355D02*
X15750822Y12732355D01*
X15623822Y12702117D02*
X15708489Y12702117D01*
X15637933Y12656760D01*
X15637933Y12732355D01*
X15652045Y12732355D02*
X15623822Y12732355D01*
X15261167Y12615333D02*
X15980833Y12615333D01*
X15980833Y12276667D02*
X15261167Y12276667D01*
X15980833Y12615333D02*
X15980833Y12276667D01*
X15646400Y12522200D02*
X15646400Y12369800D01*
X15659100Y12369800D02*
X15659100Y12522200D01*
X15671800Y12522200D02*
X15671800Y12369800D01*
X15671800Y12446000D02*
X15709900Y12446000D01*
X15261167Y12276667D02*
X15261167Y12615333D01*
X15582900Y12522200D02*
X15582900Y12369800D01*
X15595600Y12369800D02*
X15595600Y12522200D01*
X15570200Y12369800D02*
X15570200Y12522200D01*
X15570200Y12446000D02*
X15532100Y12446000D01*
X16079611Y12684881D02*
X16107833Y12669762D01*
X16136056Y12669762D01*
X16164278Y12684881D01*
X16164278Y12745357D01*
X16220722Y12730238D02*
X16248944Y12745357D01*
X16248944Y12669762D01*
X16206611Y12669762D02*
X16291278Y12669762D01*
X16347722Y12730238D02*
X16375944Y12745357D01*
X16375944Y12669762D01*
X16333611Y12669762D02*
X16418278Y12669762D01*
X16129000Y12446000D02*
X16256000Y12573000D01*
X16383000Y12446000D01*
X16256000Y12319000D02*
X16129000Y12446000D01*
X16383000Y12446000D02*
X16256000Y12319000D01*
X12953840Y13360400D02*
X11941500Y13360500D01*
X12953840Y13017500D02*
X11939500Y13017500D01*
X11940500Y13480000D02*
X12953840Y13479840D01*
X11938160Y13347700D02*
X11938160Y13017500D01*
X11938160Y13479840D02*
X11938160Y13340140D01*
X12953840Y13479840D02*
X12953840Y13340140D01*
X15493840Y13360400D02*
X14481500Y13360500D01*
X15493840Y13017500D02*
X14479500Y13017500D01*
X14480500Y13480000D02*
X15493840Y13479840D01*
X14478160Y13347700D02*
X14478160Y13017500D01*
X14478160Y13479840D02*
X14478160Y13340140D01*
X15493840Y13479840D02*
X15493840Y13340140D01*
X12916000Y14078000D02*
X14516000Y14078000D01*
X14516000Y14878000D01*
X12916000Y14878000D01*
X12916000Y14078000D01*
X7227711Y14292640D02*
X7227711Y14232164D01*
X7255933Y14217045D01*
X7284156Y14217045D01*
X7312378Y14232164D01*
X7312378Y14292640D01*
X7439378Y14292640D02*
X7354711Y14292640D01*
X7354711Y14262402D01*
X7411156Y14262402D01*
X7439378Y14247283D01*
X7439378Y14232164D01*
X7411156Y14217045D01*
X7354711Y14217045D01*
X7239000Y14605000D02*
X7239000Y14351000D01*
X8001000Y14605000D02*
X8001000Y14351000D01*
X8001000Y14605000D02*
X7493000Y14605000D01*
X7429500Y14605000D02*
X7239000Y14605000D01*
X7471833Y14605000D02*
X7471833Y14520333D01*
X7450667Y14583833D02*
X7471833Y14605000D01*
X8001000Y14351000D02*
X7239000Y14351000D01*
X8243711Y14292640D02*
X8243711Y14232164D01*
X8271933Y14217045D01*
X8300156Y14217045D01*
X8328378Y14232164D01*
X8328378Y14292640D01*
X8441267Y14292640D02*
X8398933Y14292640D01*
X8370711Y14277521D01*
X8370711Y14247283D01*
X8370711Y14232164D01*
X8398933Y14217045D01*
X8427156Y14217045D01*
X8455378Y14232164D01*
X8455378Y14247283D01*
X8427156Y14262402D01*
X8398933Y14262402D01*
X8370711Y14247283D01*
X8255000Y14605000D02*
X8255000Y14351000D01*
X9017000Y14605000D02*
X9017000Y14351000D01*
X9017000Y14605000D02*
X8509000Y14605000D01*
X8445500Y14605000D02*
X8255000Y14605000D01*
X8487833Y14605000D02*
X8487833Y14520333D01*
X8466667Y14583833D02*
X8487833Y14605000D01*
X9017000Y14351000D02*
X8255000Y14351000D01*
X9259711Y14292640D02*
X9259711Y14232164D01*
X9287933Y14217045D01*
X9316156Y14217045D01*
X9344378Y14232164D01*
X9344378Y14292640D01*
X9429044Y14217045D02*
X9429044Y14254843D01*
X9471378Y14277521D01*
X9471378Y14292640D01*
X9386711Y14292640D01*
X9386711Y14277521D01*
X9271000Y14605000D02*
X9271000Y14351000D01*
X10033000Y14605000D02*
X10033000Y14351000D01*
X10033000Y14605000D02*
X9525000Y14605000D01*
X9461500Y14605000D02*
X9271000Y14605000D01*
X9503833Y14605000D02*
X9503833Y14520333D01*
X9482667Y14583833D02*
X9503833Y14605000D01*
X10033000Y14351000D02*
X9271000Y14351000D01*
X10275711Y14292640D02*
X10275711Y14232164D01*
X10303933Y14217045D01*
X10332156Y14217045D01*
X10360378Y14232164D01*
X10360378Y14292640D01*
X10459156Y14217045D02*
X10430933Y14217045D01*
X10402711Y14232164D01*
X10402711Y14247283D01*
X10416822Y14254843D01*
X10402711Y14262402D01*
X10402711Y14277521D01*
X10430933Y14292640D01*
X10459156Y14292640D01*
X10487378Y14277521D01*
X10487378Y14262402D01*
X10473267Y14254843D01*
X10487378Y14247283D01*
X10487378Y14232164D01*
X10459156Y14217045D01*
X10416822Y14254843D02*
X10473267Y14254843D01*
X10287000Y14605000D02*
X10287000Y14351000D01*
X11049000Y14605000D02*
X11049000Y14351000D01*
X11049000Y14605000D02*
X10541000Y14605000D01*
X10477500Y14605000D02*
X10287000Y14605000D01*
X10519833Y14605000D02*
X10519833Y14520333D01*
X10498667Y14583833D02*
X10519833Y14605000D01*
X11049000Y14351000D02*
X10287000Y14351000D01*
X11291711Y14292640D02*
X11291711Y14232164D01*
X11319933Y14217045D01*
X11348156Y14217045D01*
X11376378Y14232164D01*
X11376378Y14292640D01*
X11418711Y14232164D02*
X11446933Y14217045D01*
X11475156Y14217045D01*
X11503378Y14232164D01*
X11503378Y14262402D01*
X11503378Y14277521D01*
X11475156Y14292640D01*
X11446933Y14292640D01*
X11418711Y14277521D01*
X11418711Y14262402D01*
X11446933Y14247283D01*
X11475156Y14247283D01*
X11503378Y14262402D01*
X11303000Y14605000D02*
X11303000Y14351000D01*
X12065000Y14605000D02*
X12065000Y14351000D01*
X12065000Y14605000D02*
X11557000Y14605000D01*
X11493500Y14605000D02*
X11303000Y14605000D01*
X11535833Y14605000D02*
X11535833Y14520333D01*
X11514667Y14583833D02*
X11535833Y14605000D01*
X12065000Y14351000D02*
X11303000Y14351000D01*
X17742000Y14078000D02*
X19342000Y14078000D01*
X19342000Y14878000D01*
X17742000Y14878000D01*
X17742000Y14078000D01*
X19520000Y14078000D02*
X21120000Y14078000D01*
X21120000Y14878000D01*
X19520000Y14878000D01*
X19520000Y14078000D01*
X13943189Y10395555D02*
X13943189Y10319960D01*
X13886745Y10319960D01*
X13858522Y10335079D01*
X13858522Y10342638D01*
X13886745Y10357757D01*
X13943189Y10357757D01*
X13929078Y10357757D02*
X13858522Y10395555D01*
X13816189Y10335079D02*
X13787967Y10319960D01*
X13759745Y10319960D01*
X13731522Y10335079D01*
X13731522Y10342638D01*
X13816189Y10395555D01*
X13731522Y10395555D01*
X13731522Y10387995D01*
X13604522Y10365317D02*
X13689189Y10365317D01*
X13618633Y10319960D01*
X13618633Y10395555D01*
X13632745Y10395555D02*
X13604522Y10395555D01*
X13398500Y10265833D02*
X13779500Y10265833D01*
X13398500Y10054167D02*
X13779500Y10054167D01*
X13906500Y10160000D02*
X13885333Y10287000D01*
X13800667Y10287000D02*
X13779500Y10265833D01*
X13885333Y10287000D02*
X13800667Y10287000D01*
X13970000Y10160000D02*
X13906500Y10160000D01*
X13885333Y10033000D01*
X13800667Y10033000D01*
X13779500Y10054167D01*
X13271500Y10160000D02*
X13208000Y10160000D01*
X13271500Y10160000D02*
X13292667Y10287000D01*
X13377333Y10287000D02*
X13398500Y10265833D01*
X13292667Y10287000D02*
X13377333Y10287000D01*
X13271500Y10160000D02*
X13292667Y10033000D01*
X13377333Y10033000D02*
X13398500Y10054167D01*
X13292667Y10033000D02*
X13377333Y10033000D01*
X13943189Y7855555D02*
X13943189Y7779960D01*
X13886745Y7779960D01*
X13858522Y7795079D01*
X13858522Y7802638D01*
X13886745Y7817757D01*
X13943189Y7817757D01*
X13929078Y7817757D02*
X13858522Y7855555D01*
X13816189Y7795079D02*
X13787967Y7779960D01*
X13759745Y7779960D01*
X13731522Y7795079D01*
X13731522Y7802638D01*
X13816189Y7855555D01*
X13731522Y7855555D01*
X13731522Y7847995D01*
X13675078Y7795079D02*
X13646856Y7779960D01*
X13646856Y7855555D01*
X13689189Y7855555D02*
X13604522Y7855555D01*
X13398500Y7725833D02*
X13779500Y7725833D01*
X13398500Y7514167D02*
X13779500Y7514167D01*
X13906500Y7620000D02*
X13885333Y7747000D01*
X13800667Y7747000D02*
X13779500Y7725833D01*
X13885333Y7747000D02*
X13800667Y7747000D01*
X13970000Y7620000D02*
X13906500Y7620000D01*
X13885333Y7493000D01*
X13800667Y7493000D01*
X13779500Y7514167D01*
X13271500Y7620000D02*
X13208000Y7620000D01*
X13271500Y7620000D02*
X13292667Y7747000D01*
X13377333Y7747000D02*
X13398500Y7725833D01*
X13292667Y7747000D02*
X13377333Y7747000D01*
X13271500Y7620000D02*
X13292667Y7493000D01*
X13377333Y7493000D02*
X13398500Y7514167D01*
X13292667Y7493000D02*
X13377333Y7493000D01*
X13943189Y5061555D02*
X13943189Y4985960D01*
X13886745Y4985960D01*
X13858522Y5001079D01*
X13858522Y5008638D01*
X13886745Y5023757D01*
X13943189Y5023757D01*
X13929078Y5023757D02*
X13858522Y5061555D01*
X13802078Y5001079D02*
X13773856Y4985960D01*
X13773856Y5061555D01*
X13816189Y5061555D02*
X13731522Y5061555D01*
X13632745Y5061555D02*
X13660967Y5061555D01*
X13689189Y5046436D01*
X13689189Y5031317D01*
X13675078Y5023757D01*
X13689189Y5016198D01*
X13689189Y5001079D01*
X13660967Y4985960D01*
X13632745Y4985960D01*
X13604522Y5001079D01*
X13604522Y5016198D01*
X13618633Y5023757D01*
X13604522Y5031317D01*
X13604522Y5046436D01*
X13632745Y5061555D01*
X13675078Y5023757D02*
X13618633Y5023757D01*
X13398500Y4931833D02*
X13779500Y4931833D01*
X13398500Y4720167D02*
X13779500Y4720167D01*
X13906500Y4826000D02*
X13885333Y4953000D01*
X13800667Y4953000D02*
X13779500Y4931833D01*
X13885333Y4953000D02*
X13800667Y4953000D01*
X13970000Y4826000D02*
X13906500Y4826000D01*
X13885333Y4699000D01*
X13800667Y4699000D01*
X13779500Y4720167D01*
X13271500Y4826000D02*
X13208000Y4826000D01*
X13271500Y4826000D02*
X13292667Y4953000D01*
X13377333Y4953000D02*
X13398500Y4931833D01*
X13292667Y4953000D02*
X13377333Y4953000D01*
X13271500Y4826000D02*
X13292667Y4699000D01*
X13377333Y4699000D02*
X13398500Y4720167D01*
X13292667Y4699000D02*
X13377333Y4699000D01*
X5624689Y3283555D02*
X5624689Y3207960D01*
X5568245Y3207960D01*
X5540022Y3223079D01*
X5540022Y3230638D01*
X5568245Y3245757D01*
X5624689Y3245757D01*
X5610578Y3245757D02*
X5540022Y3283555D01*
X5497689Y3268436D02*
X5469467Y3283555D01*
X5441245Y3283555D01*
X5413022Y3268436D01*
X5413022Y3238198D01*
X5413022Y3223079D01*
X5441245Y3207960D01*
X5469467Y3207960D01*
X5497689Y3223079D01*
X5497689Y3238198D01*
X5469467Y3253317D01*
X5441245Y3253317D01*
X5413022Y3238198D01*
X5143500Y3153833D02*
X5524500Y3153833D01*
X5143500Y2942167D02*
X5524500Y2942167D01*
X5651500Y3048000D02*
X5630333Y3175000D01*
X5545667Y3175000D02*
X5524500Y3153833D01*
X5630333Y3175000D02*
X5545667Y3175000D01*
X5715000Y3048000D02*
X5651500Y3048000D01*
X5630333Y2921000D01*
X5545667Y2921000D01*
X5524500Y2942167D01*
X5016500Y3048000D02*
X4953000Y3048000D01*
X5016500Y3048000D02*
X5037667Y3175000D01*
X5122333Y3175000D02*
X5143500Y3153833D01*
X5037667Y3175000D02*
X5122333Y3175000D01*
X5016500Y3048000D02*
X5037667Y2921000D01*
X5122333Y2921000D02*
X5143500Y2942167D01*
X5037667Y2921000D02*
X5122333Y2921000D01*
X13943189Y2521555D02*
X13943189Y2445960D01*
X13886745Y2445960D01*
X13858522Y2461079D01*
X13858522Y2468638D01*
X13886745Y2483757D01*
X13943189Y2483757D01*
X13929078Y2483757D02*
X13858522Y2521555D01*
X13802078Y2461079D02*
X13773856Y2445960D01*
X13773856Y2521555D01*
X13816189Y2521555D02*
X13731522Y2521555D01*
X13604522Y2445960D02*
X13689189Y2445960D01*
X13689189Y2476198D01*
X13632745Y2476198D01*
X13604522Y2491317D01*
X13604522Y2506436D01*
X13632745Y2521555D01*
X13689189Y2521555D01*
X13398500Y2391833D02*
X13779500Y2391833D01*
X13398500Y2180167D02*
X13779500Y2180167D01*
X13906500Y2286000D02*
X13885333Y2413000D01*
X13800667Y2413000D02*
X13779500Y2391833D01*
X13885333Y2413000D02*
X13800667Y2413000D01*
X13970000Y2286000D02*
X13906500Y2286000D01*
X13885333Y2159000D01*
X13800667Y2159000D01*
X13779500Y2180167D01*
X13271500Y2286000D02*
X13208000Y2286000D01*
X13271500Y2286000D02*
X13292667Y2413000D01*
X13377333Y2413000D02*
X13398500Y2391833D01*
X13292667Y2413000D02*
X13377333Y2413000D01*
X13271500Y2286000D02*
X13292667Y2159000D01*
X13377333Y2159000D02*
X13398500Y2180167D01*
X13292667Y2159000D02*
X13377333Y2159000D01*
X1795236Y12379678D02*
X1810355Y12351456D01*
X1810355Y12323233D01*
X1795236Y12295011D01*
X1749879Y12295011D01*
X1734760Y12323233D01*
X1734760Y12351456D01*
X1749879Y12379678D01*
X1780117Y12506678D02*
X1780117Y12422011D01*
X1734760Y12492567D01*
X1810355Y12492567D01*
X1810355Y12478456D02*
X1810355Y12506678D01*
X1693333Y12932833D02*
X1693333Y12213167D01*
X1354667Y12213167D02*
X1354667Y12932833D01*
X1693333Y12213167D02*
X1354667Y12213167D01*
X1600200Y12547600D02*
X1447800Y12547600D01*
X1447800Y12534900D02*
X1600200Y12534900D01*
X1600200Y12522200D02*
X1447800Y12522200D01*
X1524000Y12522200D02*
X1524000Y12484100D01*
X1354667Y12932833D02*
X1693333Y12932833D01*
X1600200Y12611100D02*
X1447800Y12611100D01*
X1447800Y12598400D02*
X1600200Y12598400D01*
X1447800Y12623800D02*
X1600200Y12623800D01*
X1524000Y12623800D02*
X1524000Y12661900D01*
X1795236Y8315678D02*
X1810355Y8287456D01*
X1810355Y8259233D01*
X1795236Y8231011D01*
X1749879Y8231011D01*
X1734760Y8259233D01*
X1734760Y8287456D01*
X1749879Y8315678D01*
X1734760Y8442678D02*
X1734760Y8358011D01*
X1764998Y8358011D01*
X1764998Y8414456D01*
X1780117Y8442678D01*
X1795236Y8442678D01*
X1810355Y8414456D01*
X1810355Y8358011D01*
X1693333Y8868833D02*
X1693333Y8149167D01*
X1354667Y8149167D02*
X1354667Y8868833D01*
X1693333Y8149167D02*
X1354667Y8149167D01*
X1600200Y8483600D02*
X1447800Y8483600D01*
X1447800Y8470900D02*
X1600200Y8470900D01*
X1600200Y8458200D02*
X1447800Y8458200D01*
X1524000Y8458200D02*
X1524000Y8420100D01*
X1354667Y8868833D02*
X1693333Y8868833D01*
X1600200Y8547100D02*
X1447800Y8547100D01*
X1447800Y8534400D02*
X1600200Y8534400D01*
X1447800Y8559800D02*
X1600200Y8559800D01*
X1524000Y8559800D02*
X1524000Y8597900D01*
X3084689Y11919555D02*
X3084689Y11843960D01*
X3028245Y11843960D01*
X3000022Y11859079D01*
X3000022Y11866638D01*
X3028245Y11881757D01*
X3084689Y11881757D01*
X3070578Y11881757D02*
X3000022Y11919555D01*
X2943578Y11859079D02*
X2915356Y11843960D01*
X2915356Y11919555D01*
X2957689Y11919555D02*
X2873022Y11919555D01*
X2603500Y11789833D02*
X2984500Y11789833D01*
X2603500Y11578167D02*
X2984500Y11578167D01*
X3111500Y11684000D02*
X3090333Y11811000D01*
X3005667Y11811000D02*
X2984500Y11789833D01*
X3090333Y11811000D02*
X3005667Y11811000D01*
X3175000Y11684000D02*
X3111500Y11684000D01*
X3090333Y11557000D01*
X3005667Y11557000D01*
X2984500Y11578167D01*
X2476500Y11684000D02*
X2413000Y11684000D01*
X2476500Y11684000D02*
X2497667Y11811000D01*
X2582333Y11811000D02*
X2603500Y11789833D01*
X2497667Y11811000D02*
X2582333Y11811000D01*
X2476500Y11684000D02*
X2497667Y11557000D01*
X2582333Y11557000D02*
X2603500Y11578167D01*
X2497667Y11557000D02*
X2582333Y11557000D01*
X3084689Y7855555D02*
X3084689Y7779960D01*
X3028245Y7779960D01*
X3000022Y7795079D01*
X3000022Y7802638D01*
X3028245Y7817757D01*
X3084689Y7817757D01*
X3070578Y7817757D02*
X3000022Y7855555D01*
X2957689Y7795079D02*
X2929467Y7779960D01*
X2901245Y7779960D01*
X2873022Y7795079D01*
X2873022Y7802638D01*
X2957689Y7855555D01*
X2873022Y7855555D01*
X2873022Y7847995D01*
X2603500Y7725833D02*
X2984500Y7725833D01*
X2603500Y7514167D02*
X2984500Y7514167D01*
X3111500Y7620000D02*
X3090333Y7747000D01*
X3005667Y7747000D02*
X2984500Y7725833D01*
X3090333Y7747000D02*
X3005667Y7747000D01*
X3175000Y7620000D02*
X3111500Y7620000D01*
X3090333Y7493000D01*
X3005667Y7493000D01*
X2984500Y7514167D01*
X2476500Y7620000D02*
X2413000Y7620000D01*
X2476500Y7620000D02*
X2497667Y7747000D01*
X2582333Y7747000D02*
X2603500Y7725833D01*
X2497667Y7747000D02*
X2582333Y7747000D01*
X2476500Y7620000D02*
X2497667Y7493000D01*
X2582333Y7493000D02*
X2603500Y7514167D01*
X2497667Y7493000D02*
X2582333Y7493000D01*
X3201811Y5225445D02*
X3201811Y5301040D01*
X3258256Y5301040D01*
X3286478Y5285921D01*
X3286478Y5278362D01*
X3258256Y5263243D01*
X3201811Y5263243D01*
X3215922Y5263243D02*
X3286478Y5225445D01*
X3342922Y5285921D02*
X3371144Y5301040D01*
X3371144Y5225445D01*
X3328811Y5225445D02*
X3413478Y5225445D01*
X3469922Y5285921D02*
X3498144Y5301040D01*
X3498144Y5225445D01*
X3455811Y5225445D02*
X3540478Y5225445D01*
X3746500Y5355167D02*
X3365500Y5355167D01*
X3746500Y5566833D02*
X3365500Y5566833D01*
X3238500Y5461000D02*
X3259667Y5334000D01*
X3344333Y5334000D02*
X3365500Y5355167D01*
X3259667Y5334000D02*
X3344333Y5334000D01*
X3175000Y5461000D02*
X3238500Y5461000D01*
X3259667Y5588000D01*
X3344333Y5588000D01*
X3365500Y5566833D01*
X3873500Y5461000D02*
X3937000Y5461000D01*
X3873500Y5461000D02*
X3852333Y5334000D01*
X3767667Y5334000D02*
X3746500Y5355167D01*
X3852333Y5334000D02*
X3767667Y5334000D01*
X3873500Y5461000D02*
X3852333Y5588000D01*
X3767667Y5588000D02*
X3746500Y5566833D01*
X3852333Y5588000D02*
X3767667Y5588000D01*
X6439143Y283805D02*
X6467365Y268686D01*
X6495587Y268686D01*
X6523809Y283805D01*
X6523809Y344281D01*
X6580254Y329162D02*
X6608476Y344281D01*
X6608476Y268686D01*
X6566143Y268686D02*
X6650809Y268686D01*
X6707254Y336722D02*
X6721365Y344281D01*
X6749587Y344281D01*
X6777809Y329162D01*
X6777809Y314043D01*
X6763698Y306484D01*
X6777809Y298924D01*
X6777809Y283805D01*
X6749587Y268686D01*
X6721365Y268686D01*
X6707254Y276246D01*
X6721365Y306484D02*
X6763698Y306484D01*
X8763000Y635000D02*
X7768167Y635000D01*
X8763000Y381000D02*
X6477000Y381000D01*
X6731000Y635000D02*
X7683500Y635000D01*
X6477000Y381000D02*
X6477000Y635000D01*
X6709833Y635000D02*
X6709833Y550333D01*
X6688667Y613833D02*
X6709833Y635000D01*
X6477000Y635000D02*
X6667500Y635000D01*
X7704667Y635000D02*
X7747000Y635000D01*
X7704667Y592667D02*
X7704667Y635000D01*
X7704667Y550333D02*
X7725833Y550333D01*
X7704667Y592667D02*
X7725833Y592667D01*
X7725830Y550333D02*
X7727675Y550414D01*
X7729506Y550655D01*
X7731308Y551054D01*
X7733069Y551610D01*
X7734775Y552316D01*
X7736413Y553169D01*
X7737971Y554161D01*
X7739436Y555285D01*
X7740797Y556533D01*
X7742045Y557894D01*
X7743169Y559359D01*
X7744161Y560917D01*
X7745014Y562555D01*
X7745720Y564261D01*
X7746276Y566022D01*
X7746675Y567824D01*
X7746916Y569655D01*
X7746997Y571500D01*
X7746916Y573345D01*
X7746675Y575176D01*
X7746276Y576978D01*
X7745720Y578739D01*
X7745014Y580445D01*
X7744161Y582083D01*
X7743169Y583641D01*
X7742045Y585106D01*
X7740797Y586467D01*
X7739436Y587715D01*
X7737971Y588839D01*
X7736413Y589831D01*
X7734775Y590684D01*
X7733069Y591390D01*
X7731308Y591946D01*
X7729506Y592345D01*
X7727675Y592586D01*
X7725830Y592667D01*
X8763000Y635000D02*
X8763000Y381000D01*
G54D12*
X17836606Y626000D02*
X17876428Y626000D01*
X17896339Y646000D01*
X17896339Y706000D01*
X17876428Y726000D01*
X17836606Y726000D01*
X17846561Y726000D02*
X17846561Y626000D01*
X17936161Y706000D02*
X17956072Y726000D01*
X17956072Y626000D01*
X17926206Y626000D02*
X17985939Y626000D01*
X20104106Y626000D02*
X20143928Y626000D01*
X20163839Y646000D01*
X20163839Y706000D01*
X20143928Y726000D01*
X20104106Y726000D01*
X20114061Y726000D02*
X20114061Y626000D01*
X20203661Y716000D02*
X20213617Y726000D01*
X20233528Y726000D01*
X20253439Y706000D01*
X20253439Y686000D01*
X20243483Y676000D01*
X20253439Y666000D01*
X20253439Y646000D01*
X20233528Y626000D01*
X20213617Y626000D01*
X20203661Y636000D01*
X20213617Y676000D02*
X20243483Y676000D01*
X15144490Y1702145D02*
X15144490Y1662322D01*
X15164490Y1642411D01*
X15224490Y1642411D01*
X15244490Y1662322D01*
X15244490Y1702145D01*
X15244490Y1692189D02*
X15144490Y1692189D01*
X15224490Y1612545D02*
X15244490Y1592633D01*
X15244490Y1572722D01*
X15224490Y1552811D01*
X15214490Y1552811D01*
X15144490Y1612545D01*
X15144490Y1552811D01*
X15154490Y1552811D01*
X21968445Y1544000D02*
X21948533Y1564000D01*
X21928622Y1564000D01*
X21908711Y1544000D01*
X21908711Y1464000D01*
X21868889Y1484000D02*
X21848978Y1464000D01*
X21848978Y1564000D01*
X21878845Y1564000D02*
X21819111Y1564000D01*
X21729511Y1524000D02*
X21789245Y1524000D01*
X21739467Y1464000D01*
X21739467Y1564000D01*
X21749422Y1564000D02*
X21729511Y1564000D01*
X15144490Y4299645D02*
X15144490Y4259822D01*
X15164490Y4239911D01*
X15224490Y4239911D01*
X15244490Y4259822D01*
X15244490Y4299645D01*
X15244490Y4289689D02*
X15144490Y4289689D01*
X15244490Y4150311D02*
X15244490Y4210045D01*
X15204490Y4210045D01*
X15204490Y4170222D01*
X15184490Y4150311D01*
X15164490Y4150311D01*
X15144490Y4170222D01*
X15144490Y4210045D01*
X17818106Y3420000D02*
X17857928Y3420000D01*
X17877839Y3440000D01*
X17877839Y3500000D01*
X17857928Y3520000D01*
X17818106Y3520000D01*
X17828061Y3520000D02*
X17828061Y3420000D01*
X17967439Y3460000D02*
X17907706Y3460000D01*
X17957483Y3520000D01*
X17957483Y3420000D01*
X17947528Y3420000D02*
X17967439Y3420000D01*
X20104106Y3420000D02*
X20143928Y3420000D01*
X20163839Y3440000D01*
X20163839Y3500000D01*
X20143928Y3520000D01*
X20104106Y3520000D01*
X20114061Y3520000D02*
X20114061Y3420000D01*
X20243483Y3520000D02*
X20213617Y3520000D01*
X20193706Y3500000D01*
X20193706Y3460000D01*
X20193706Y3440000D01*
X20213617Y3420000D01*
X20233528Y3420000D01*
X20253439Y3440000D01*
X20253439Y3460000D01*
X20233528Y3480000D01*
X20213617Y3480000D01*
X20193706Y3460000D01*
X21968445Y4338000D02*
X21948533Y4358000D01*
X21928622Y4358000D01*
X21908711Y4338000D01*
X21908711Y4258000D01*
X21868889Y4278000D02*
X21848978Y4258000D01*
X21848978Y4358000D01*
X21878845Y4358000D02*
X21819111Y4358000D01*
X21739467Y4258000D02*
X21769333Y4258000D01*
X21789245Y4278000D01*
X21789245Y4318000D01*
X21789245Y4338000D01*
X21769333Y4358000D01*
X21749422Y4358000D01*
X21729511Y4338000D01*
X21729511Y4318000D01*
X21749422Y4298000D01*
X21769333Y4298000D01*
X21789245Y4318000D01*
X15144490Y7093645D02*
X15144490Y7053822D01*
X15164490Y7033911D01*
X15224490Y7033911D01*
X15244490Y7053822D01*
X15244490Y7093645D01*
X15244490Y7083689D02*
X15144490Y7083689D01*
X15144490Y6964222D02*
X15144490Y6984133D01*
X15164490Y7004045D01*
X15184490Y7004045D01*
X15194490Y6994089D01*
X15204490Y7004045D01*
X15224490Y7004045D01*
X15244490Y6984133D01*
X15244490Y6964222D01*
X15224490Y6944311D01*
X15204490Y6944311D01*
X15194490Y6954267D01*
X15184490Y6944311D01*
X15164490Y6944311D01*
X15144490Y6964222D01*
X15194490Y6994089D02*
X15194490Y6954267D01*
X17818106Y6214000D02*
X17857928Y6214000D01*
X17877839Y6234000D01*
X17877839Y6294000D01*
X17857928Y6314000D01*
X17818106Y6314000D01*
X17828061Y6314000D02*
X17828061Y6214000D01*
X17937572Y6214000D02*
X17937572Y6264000D01*
X17967439Y6294000D01*
X17967439Y6314000D01*
X17907706Y6314000D01*
X17907706Y6294000D01*
X20104106Y6214000D02*
X20143928Y6214000D01*
X20163839Y6234000D01*
X20163839Y6294000D01*
X20143928Y6314000D01*
X20104106Y6314000D01*
X20114061Y6314000D02*
X20114061Y6214000D01*
X20193706Y6234000D02*
X20213617Y6214000D01*
X20233528Y6214000D01*
X20253439Y6234000D01*
X20253439Y6274000D01*
X20253439Y6294000D01*
X20233528Y6314000D01*
X20213617Y6314000D01*
X20193706Y6294000D01*
X20193706Y6274000D01*
X20213617Y6254000D01*
X20233528Y6254000D01*
X20253439Y6274000D01*
X21968445Y7132000D02*
X21948533Y7152000D01*
X21928622Y7152000D01*
X21908711Y7132000D01*
X21908711Y7052000D01*
X21868889Y7072000D02*
X21848978Y7052000D01*
X21848978Y7152000D01*
X21878845Y7152000D02*
X21819111Y7152000D01*
X21749422Y7152000D02*
X21769333Y7152000D01*
X21789245Y7132000D01*
X21789245Y7112000D01*
X21779289Y7102000D01*
X21789245Y7092000D01*
X21789245Y7072000D01*
X21769333Y7052000D01*
X21749422Y7052000D01*
X21729511Y7072000D01*
X21729511Y7092000D01*
X21739467Y7102000D01*
X21729511Y7112000D01*
X21729511Y7132000D01*
X21749422Y7152000D01*
X21779289Y7102000D02*
X21739467Y7102000D01*
X15144490Y9678445D02*
X15144490Y9638622D01*
X15164490Y9618711D01*
X15224490Y9618711D01*
X15244490Y9638622D01*
X15244490Y9678445D01*
X15244490Y9668489D02*
X15144490Y9668489D01*
X15224490Y9578889D02*
X15244490Y9558978D01*
X15144490Y9558978D01*
X15144490Y9588845D02*
X15144490Y9529111D01*
X15224490Y9489289D02*
X15244490Y9469378D01*
X15144490Y9469378D01*
X15144490Y9499245D02*
X15144490Y9439511D01*
X17773306Y9008000D02*
X17813128Y9008000D01*
X17833039Y9028000D01*
X17833039Y9088000D01*
X17813128Y9108000D01*
X17773306Y9108000D01*
X17783261Y9108000D02*
X17783261Y9008000D01*
X17872861Y9088000D02*
X17892772Y9108000D01*
X17892772Y9008000D01*
X17862906Y9008000D02*
X17922639Y9008000D01*
X17952506Y9088000D02*
X17972417Y9108000D01*
X17992328Y9108000D01*
X18012239Y9088000D01*
X18012239Y9028000D01*
X17992328Y9008000D01*
X17972417Y9008000D01*
X17952506Y9028000D01*
X17952506Y9088000D01*
X18012239Y9088000D02*
X17952506Y9028000D01*
X20059306Y9008000D02*
X20099128Y9008000D01*
X20119039Y9028000D01*
X20119039Y9088000D01*
X20099128Y9108000D01*
X20059306Y9108000D01*
X20069261Y9108000D02*
X20069261Y9008000D01*
X20158861Y9088000D02*
X20178772Y9108000D01*
X20178772Y9008000D01*
X20148906Y9008000D02*
X20208639Y9008000D01*
X20238506Y9088000D02*
X20258417Y9108000D01*
X20278328Y9108000D01*
X20298239Y9088000D01*
X20298239Y9078000D01*
X20238506Y9008000D01*
X20298239Y9008000D01*
X20298239Y9018000D01*
X21968445Y9926000D02*
X21948533Y9946000D01*
X21928622Y9946000D01*
X21908711Y9926000D01*
X21908711Y9846000D01*
X21878845Y9866000D02*
X21858933Y9846000D01*
X21839022Y9846000D01*
X21819111Y9866000D01*
X21819111Y9876000D01*
X21878845Y9946000D01*
X21819111Y9946000D01*
X21819111Y9936000D01*
X21789245Y9866000D02*
X21769333Y9846000D01*
X21749422Y9846000D01*
X21729511Y9866000D01*
X21729511Y9926000D01*
X21749422Y9946000D01*
X21769333Y9946000D01*
X21789245Y9926000D01*
X21789245Y9866000D01*
X21729511Y9866000D02*
X21789245Y9926000D01*
G54D13*
G36*
X17558900Y780800D02*
X17558900Y1260800D01*
X17638900Y1260800D01*
X17638900Y780800D01*
X17558900Y780800D01*
G37*
G36*
X19826400Y780800D02*
X19826400Y1260800D01*
X19906400Y1260800D01*
X19906400Y780800D01*
X19826400Y780800D01*
G37*
G36*
X15314490Y1902500D02*
X15314490Y1982500D01*
X15664490Y1982500D01*
X15664490Y1902500D01*
X15314490Y1902500D01*
G37*
G36*
X15314490Y4500000D02*
X15314490Y4580000D01*
X15664490Y4580000D01*
X15664490Y4500000D01*
X15314490Y4500000D01*
G37*
G36*
X17540400Y3574800D02*
X17540400Y4054800D01*
X17620400Y4054800D01*
X17620400Y3574800D01*
X17540400Y3574800D01*
G37*
G36*
X19826400Y3574800D02*
X19826400Y4054800D01*
X19906400Y4054800D01*
X19906400Y3574800D01*
X19826400Y3574800D01*
G37*
G36*
X15314490Y7294000D02*
X15314490Y7374000D01*
X15664490Y7374000D01*
X15664490Y7294000D01*
X15314490Y7294000D01*
G37*
G36*
X17540400Y6368800D02*
X17540400Y6848800D01*
X17620400Y6848800D01*
X17620400Y6368800D01*
X17540400Y6368800D01*
G37*
G36*
X19826400Y6368800D02*
X19826400Y6848800D01*
X19906400Y6848800D01*
X19906400Y6368800D01*
X19826400Y6368800D01*
G37*
G36*
X15314490Y9834000D02*
X15314490Y9914000D01*
X15664490Y9914000D01*
X15664490Y9834000D01*
X15314490Y9834000D01*
G37*
G36*
X17540400Y9162800D02*
X17540400Y9642800D01*
X17620400Y9642800D01*
X17620400Y9162800D01*
X17540400Y9162800D01*
G37*
G36*
X19826400Y9162800D02*
X19826400Y9642800D01*
X19906400Y9642800D01*
X19906400Y9162800D01*
X19826400Y9162800D01*
G37*
G54D14*
X17486500Y1256000D02*
X18346500Y1256000D01*
X18346500Y776000D01*
X17486500Y776000D01*
X17486500Y1256000D01*
X18366500Y1016000D02*
X18656500Y1016000D01*
X17466500Y1016000D02*
X17176500Y1016000D01*
X19754000Y1256000D02*
X20614000Y1256000D01*
X20614000Y776000D01*
X19754000Y776000D01*
X19754000Y1256000D01*
X20634000Y1016000D02*
X20924000Y1016000D01*
X19734000Y1016000D02*
X19444000Y1016000D01*
X15494490Y2072500D02*
X15494490Y2362500D01*
X15494490Y1172500D02*
X15494490Y882500D01*
X15668000Y2056750D02*
X15320000Y2056750D01*
X15320000Y1187750D01*
X15668000Y1187750D01*
X15668000Y2056750D01*
X15668000Y4654250D02*
X15320000Y4654250D01*
X15320000Y3785250D01*
X15668000Y3785250D01*
X15668000Y4654250D01*
X15494490Y4670000D02*
X15494490Y4960000D01*
X15494490Y3770000D02*
X15494490Y3480000D01*
X17468000Y4050000D02*
X18328000Y4050000D01*
X18328000Y3570000D01*
X17468000Y3570000D01*
X17468000Y4050000D01*
X18348000Y3810000D02*
X18638000Y3810000D01*
X17448000Y3810000D02*
X17158000Y3810000D01*
X19754000Y4050000D02*
X20614000Y4050000D01*
X20614000Y3570000D01*
X19754000Y3570000D01*
X19754000Y4050000D01*
X20634000Y3810000D02*
X20924000Y3810000D01*
X19734000Y3810000D02*
X19444000Y3810000D01*
X15494490Y7464000D02*
X15494490Y7754000D01*
X15494490Y6564000D02*
X15494490Y6274000D01*
X15668000Y7448250D02*
X15320000Y7448250D01*
X15320000Y6579250D01*
X15668000Y6579250D01*
X15668000Y7448250D01*
X17468000Y6844000D02*
X18328000Y6844000D01*
X18328000Y6364000D01*
X17468000Y6364000D01*
X17468000Y6844000D01*
X18348000Y6604000D02*
X18638000Y6604000D01*
X17448000Y6604000D02*
X17158000Y6604000D01*
X19754000Y6844000D02*
X20614000Y6844000D01*
X20614000Y6364000D01*
X19754000Y6364000D01*
X19754000Y6844000D01*
X20634000Y6604000D02*
X20924000Y6604000D01*
X19734000Y6604000D02*
X19444000Y6604000D01*
X15494490Y10004000D02*
X15494490Y10294000D01*
X15494490Y9104000D02*
X15494490Y8814000D01*
X15668000Y9988250D02*
X15320000Y9988250D01*
X15320000Y9119250D01*
X15668000Y9119250D01*
X15668000Y9988250D01*
X17468000Y9638000D02*
X18328000Y9638000D01*
X18328000Y9158000D01*
X17468000Y9158000D01*
X17468000Y9638000D01*
X18348000Y9398000D02*
X18638000Y9398000D01*
X17448000Y9398000D02*
X17158000Y9398000D01*
X19754000Y9638000D02*
X20614000Y9638000D01*
X20614000Y9158000D01*
X19754000Y9158000D01*
X19754000Y9638000D01*
X20634000Y9398000D02*
X20924000Y9398000D01*
X19734000Y9398000D02*
X19444000Y9398000D01*
G54D15*
X18979934Y1944693D02*
X18999803Y1924736D01*
X19019671Y1924736D01*
X19039540Y1944693D01*
X19039540Y2004564D01*
X19019671Y2024521D01*
X18999803Y2024521D01*
X18979934Y2004564D01*
X18979934Y1944693D01*
X19019671Y1944693D02*
X19039540Y1924736D01*
X19079276Y2004564D02*
X19099145Y2024521D01*
X19099145Y1924736D01*
X19069342Y1924736D02*
X19128948Y1924736D01*
X18979934Y4738693D02*
X18999803Y4718736D01*
X19019671Y4718736D01*
X19039540Y4738693D01*
X19039540Y4798564D01*
X19019671Y4818521D01*
X18999803Y4818521D01*
X18979934Y4798564D01*
X18979934Y4738693D01*
X19019671Y4738693D02*
X19039540Y4718736D01*
X19069342Y4798564D02*
X19089211Y4818521D01*
X19109079Y4818521D01*
X19128948Y4798564D01*
X19128948Y4788586D01*
X19069342Y4718736D01*
X19128948Y4718736D01*
X19128948Y4728714D01*
X18979934Y7532693D02*
X18999803Y7512736D01*
X19019671Y7512736D01*
X19039540Y7532693D01*
X19039540Y7592564D01*
X19019671Y7612521D01*
X18999803Y7612521D01*
X18979934Y7592564D01*
X18979934Y7532693D01*
X19019671Y7532693D02*
X19039540Y7512736D01*
X19079276Y7602543D02*
X19089211Y7612521D01*
X19109079Y7612521D01*
X19128948Y7592564D01*
X19128948Y7572607D01*
X19119013Y7562629D01*
X19128948Y7552650D01*
X19128948Y7532693D01*
X19109079Y7512736D01*
X19089211Y7512736D01*
X19079276Y7522714D01*
X19089211Y7562629D02*
X19119013Y7562629D01*
X18979934Y10326693D02*
X18999803Y10306736D01*
X19019671Y10306736D01*
X19039540Y10326693D01*
X19039540Y10386564D01*
X19019671Y10406521D01*
X18999803Y10406521D01*
X18979934Y10386564D01*
X18979934Y10326693D01*
X19019671Y10326693D02*
X19039540Y10306736D01*
X19128948Y10346650D02*
X19069342Y10346650D01*
X19119013Y10406521D01*
X19119013Y10306736D01*
X19109079Y10306736D02*
X19128948Y10306736D01*
X12331230Y12946521D02*
X12331230Y12866693D01*
X12351099Y12846736D01*
X12370967Y12846736D01*
X12390836Y12866693D01*
X12390836Y12946521D01*
X12430572Y12926564D02*
X12450441Y12946521D01*
X12450441Y12846736D01*
X12420638Y12846736D02*
X12480244Y12846736D01*
X12569652Y12886650D02*
X12510046Y12886650D01*
X12559717Y12946521D01*
X12559717Y12846736D01*
X12549783Y12846736D02*
X12569652Y12846736D01*
X14871230Y12946521D02*
X14871230Y12866693D01*
X14891099Y12846736D01*
X14910967Y12846736D01*
X14930836Y12866693D01*
X14930836Y12946521D01*
X14970572Y12926564D02*
X14990441Y12946521D01*
X14990441Y12846736D01*
X14960638Y12846736D02*
X15020244Y12846736D01*
X15109652Y12946521D02*
X15050046Y12946521D01*
X15050046Y12906607D01*
X15089783Y12906607D01*
X15109652Y12886650D01*
X15109652Y12866693D01*
X15089783Y12846736D01*
X15050046Y12846736D01*
G54D16*
X19558000Y2096500D02*
X19557995Y2435005D01*
X19558000Y4890500D02*
X19557995Y5229005D01*
X19558000Y7684500D02*
X19557995Y8023005D01*
X19558000Y10478500D02*
X19557995Y10817005D01*
X12954000Y13018500D02*
X12953995Y13357005D01*
X15494000Y13018500D02*
X15493995Y13357005D01*
G54D17*
X16908780Y1737360D02*
X16908780Y1678940D01*
X21191220Y1732280D02*
X21191220Y1671320D01*
X16908780Y4531360D02*
X16908780Y4472940D01*
X21191220Y4526280D02*
X21191220Y4465320D01*
X16908780Y7325360D02*
X16908780Y7266940D01*
X21191220Y7320280D02*
X21191220Y7259320D01*
X16908780Y10119360D02*
X16908780Y10060940D01*
X21191220Y10114280D02*
X21191220Y10053320D01*
G54D18*
X11951222Y1609714D02*
X11951222Y1495429D01*
X11979667Y1466857D01*
X12008111Y1466857D01*
X12036556Y1495429D01*
X12036556Y1609714D01*
X12164556Y1524000D02*
X12079222Y1524000D01*
X12150333Y1609714D01*
X12150333Y1466857D01*
X12136111Y1466857D02*
X12164556Y1466857D01*
X13476222Y13841429D02*
X13504667Y13812857D01*
X13533111Y13812857D01*
X13561556Y13841429D01*
X13561556Y13955714D01*
X13661111Y13812857D02*
X13632667Y13812857D01*
X13604222Y13841429D01*
X13604222Y13870000D01*
X13618444Y13884286D01*
X13604222Y13898571D01*
X13604222Y13927143D01*
X13632667Y13955714D01*
X13661111Y13955714D01*
X13689556Y13927143D01*
X13689556Y13898571D01*
X13675333Y13884286D01*
X13689556Y13870000D01*
X13689556Y13841429D01*
X13661111Y13812857D01*
X13618444Y13884286D02*
X13675333Y13884286D01*
X18302222Y13841429D02*
X18330667Y13812857D01*
X18359111Y13812857D01*
X18387556Y13841429D01*
X18387556Y13955714D01*
X18430222Y13841429D02*
X18458667Y13812857D01*
X18487111Y13812857D01*
X18515556Y13841429D01*
X18515556Y13898571D01*
X18515556Y13927143D01*
X18487111Y13955714D01*
X18458667Y13955714D01*
X18430222Y13927143D01*
X18430222Y13898571D01*
X18458667Y13870000D01*
X18487111Y13870000D01*
X18515556Y13898571D01*
X20080222Y13841429D02*
X20108667Y13812857D01*
X20137111Y13812857D01*
X20165556Y13841429D01*
X20165556Y13955714D01*
X20222444Y13927143D02*
X20250889Y13955714D01*
X20250889Y13812857D01*
X20208222Y13812857D02*
X20293556Y13812857D01*
X20336222Y13927143D02*
X20364667Y13955714D01*
X20393111Y13955714D01*
X20421556Y13927143D01*
X20421556Y13912857D01*
X20336222Y13812857D01*
X20421556Y13812857D01*
X20421556Y13827143D01*
G54D19*
X-25400Y-25400D02*
X-25400Y1503680D01*
X-25400Y-25400D02*
X2265680Y-25400D01*
X22885400Y-25400D02*
X20594320Y-25400D01*
X22885400Y-25400D02*
X22885400Y1503680D01*
X22885400Y15265400D02*
X22885400Y13736320D01*
X22885400Y15265400D02*
X20594320Y15265400D01*
X-25400Y15265400D02*
X2265680Y15265400D01*
X-25400Y15265400D02*
X-25400Y13736320D01*
X-525400Y-25400D02*
X-1525400Y-25400D01*
X-1025400Y-525400D02*
X-1025400Y474600D01*
X-1400400Y-25400D02*
G75*
D01*
G02X-1400400Y-25400I375000J0*
G01*
X23385400Y-25400D02*
X24385400Y-25400D01*
X23885400Y-525400D02*
X23885400Y474600D01*
X23510400Y-25400D02*
G75*
D01*
G02X23510400Y-25400I375000J0*
G01*
X23760400Y-25400D02*
G75*
D01*
G02X23760400Y-25400I125000J0*
G01*
X-525400Y15265400D02*
X-1525400Y15265400D01*
X-1025400Y14765400D02*
X-1025400Y15765400D01*
X-1400400Y15265400D02*
G75*
D01*
G02X-1400400Y15265400I375000J0*
G01*
X-1275400Y15265400D02*
G75*
D01*
G02X-1275400Y15265400I250000J0*
G01*
X-1150400Y15265400D02*
G75*
D01*
G02X-1150400Y15265400I125000J0*
G01*
X-25400Y-25400D02*
X-25400Y1503680D01*
X-25400Y-25400D02*
X2265680Y-25400D01*
X22885400Y-25400D02*
X20594320Y-25400D01*
X22885400Y-25400D02*
X22885400Y1503680D01*
X22885400Y15265400D02*
X22885400Y13736320D01*
X22885400Y15265400D02*
X20594320Y15265400D01*
X-25400Y15265400D02*
X2265680Y15265400D01*
X-25400Y15265400D02*
X-25400Y13736320D01*
X-525400Y-25400D02*
X-1525400Y-25400D01*
X-1025400Y-525400D02*
X-1025400Y474600D01*
X-1400400Y-25400D02*
G75*
D01*
G02X-1400400Y-25400I375000J0*
G01*
X23385400Y-25400D02*
X24385400Y-25400D01*
X23885400Y-525400D02*
X23885400Y474600D01*
X23510400Y-25400D02*
G75*
D01*
G02X23510400Y-25400I375000J0*
G01*
X23760400Y-25400D02*
G75*
D01*
G02X23760400Y-25400I125000J0*
G01*
X-525400Y15265400D02*
X-1525400Y15265400D01*
X-1025400Y14765400D02*
X-1025400Y15765400D01*
X-1400400Y15265400D02*
G75*
D01*
G02X-1400400Y15265400I375000J0*
G01*
X-1275400Y15265400D02*
G75*
D01*
G02X-1275400Y15265400I250000J0*
G01*
X-1150400Y15265400D02*
G75*
D01*
G02X-1150400Y15265400I125000J0*
G01*
G54D20*
X0Y0D02*
X22860000Y0D01*
X22860000Y15240000D01*
X0Y15240000D01*
X0Y0D01*
G54D21*
X3252000Y1600200D03*
X3252000Y4267200D03*
X4903000Y4267200D03*
X2413800Y8331200D03*
X2413800Y12395200D03*
G54D22*
X3175400Y1320800D03*
X3175400Y3987800D03*
X4826400Y3987800D03*
X2413400Y8051800D03*
X2413400Y12115800D03*

M02*
