M48
METRIC,TZ
VER,1
FMAT,2
DETECT,ON
ATC,ON
T1C1.20000
T2C1.40000
T3C1.00000
T4C0.80000
T5C0.60000
%
T1
X12192000Y508000
X12446000
X12700000
X11938000
X21844000Y1270000
Y1778000
Y4064000
Y4572000
Y6858000
Y7366000
Y9652000
Y10160000
X508000Y1778000
Y1524000
Y2032000
Y4699000
Y4445000
Y4191000
Y4953000
X11430000Y889000
X11684000
X11938000
X12192000
X12446000
X11430000Y2159000
X11684000
X11938000
X12192000
X12446000
X12700000
Y889000
X13208000Y14478000
X13716000
X14224000
X7620000
X7366000
X7874000
X8636000
X8382000
X8890000
X9652000
X9398000
X9906000
X10668000
X10414000
X10922000
X11684000
X11430000
X11938000
X18034000
X18542000
X19050000
X19812000
X20320000
X20828000
X8382000Y508000
X6604000
X7620000
X7112000
X6858000
X7366000
X7874000
X8128000
X8636000
T2
X17036500Y1016000
X18796000
X19304000
X21063500
X17018000Y3810000
X18777500
X19304000
X21063500
X17018000Y6604000
X18777500
X19304000
X21063500
X17018000Y9398000
X18777500
X19304000
X21063500
T3
X15494000Y2482500
Y762000
X19050000Y2286000
X19304000
X18796000
X15494000Y5080000
Y3359500
X19050000Y5080000
X19304000
X18796000
X15494000Y7874000
Y6153500
X19050000Y7874000
X19304000
X18796000
X15494000Y10414000
Y8693500
X19050000Y10668000
X19304000
X18796000
X9652000Y508000
Y762000
X10160000Y508000
Y762000
X9906000Y508000
Y762000
X9144000
Y508000
X9398000
Y762000
X12446000Y13208000
X12700000
X12192000
X14986000
X15240000
X14732000
X18034000Y11430000
X20828000
T4
X15999555Y2027018
Y1011018
X16510000Y1016000
Y2032000
X14224000Y1778000
Y1524000
Y1270000
X14986000
Y1524000
Y1778000
X16002000Y4572000
Y3556000
X16510000
Y4572000
X14224000Y4318000
Y4064000
Y3810000
X14986000
Y4064000
Y4318000
X16002000Y7366000
Y6350000
X16510000
Y7366000
X14224000Y7112000
Y6858000
Y6604000
X14986000
Y6858000
Y7112000
X14224000Y9652000
Y9398000
Y9144000
X14986000
Y9398000
Y9652000
X16002000Y10160000
Y9144000
X16510000
Y10160000
X2540000Y2032000
Y1524000
X1778000Y2286000
Y1270000
X1143000Y1524000
Y2032000
X3556000Y1397000
X3810000
X4064000
X3302000Y2159000
X3556000
X3810000
X4064000
X3302000Y1397000
X8890000Y4318000
X8128000
X7874000
X7620000
X8636000
X8382000
X10414000
X9652000
X9398000
X9144000
X9906000
X10160000
X11176000
X10668000
X10922000
X11938000
X11430000
X11684000
X12192000
X12446000
X8890000Y5842000
X8128000
X7874000
X8636000
X8382000
X10414000
X9652000
X9398000
X9144000
X10160000
X9906000
X11176000
X10922000
X10668000
X11938000
X11684000
X11430000
X12192000
X12446000
X7620000
X7239000Y4953000
Y5461000
X4191000Y3048000
X3175000
Y3429000
X4191000
X4826000
X5842000
X3556000Y4064000
X3810000
X4064000
X3302000Y4826000
X3556000
X3810000
X4064000
X3302000Y4064000
X5207000
X5461000
X5715000
X4953000Y4826000
X5207000
X5461000
X5715000
X4953000Y4064000
X2032000Y4699000
Y4191000
X1778000Y4445000
X1143000Y4699000
Y4191000
X2794000Y4699000
Y4191000
X4572000Y4699000
Y4191000
X5080000Y5588000
Y6096000
X5334000Y5842000
X4191000
X3175000
X2540000Y8128000
X2794000
X3048000
X3302000
X3556000
X3810000
X4064000
X4318000
X4572000
X4826000
X2794000Y8890000
X3048000
X3302000
X3556000
X3810000
X4064000
X4318000
X4572000
X4826000
X2540000
X2032000Y8763000
Y8255000
X2540000Y12192000
X2794000
X3048000
X3302000
X3556000
X3810000
X4064000
X4318000
X4572000
X4826000
X2794000Y12954000
X3048000
X3302000
X3556000
X3810000
X4064000
X4318000
X4572000
X4826000
X2540000
X2032000Y12827000
Y12319000
X5080000Y1778000
Y1270000
X4826000Y1524000
X12446000Y12446000
X12192000
X14986000
X14732000
X13335000
X12827000
X15875000
X15367000
X14097000Y10160000
X13081000
X14097000Y7620000
X13081000
X14097000Y4826000
X13081000
X5842000Y3048000
X4826000
X14097000Y2286000
X13081000
X1524000Y12827000
Y12319000
Y8763000
Y8255000
X2286000Y11684000
X3302000
X2286000Y7620000
X3302000
X3048000Y5461000
X4064000
T5
X3302000Y1016000
X2794000Y762000
Y1270000
X4318000Y1651000
X5461000Y3683000
X3810000Y3810000
X762000Y4445000
Y5080000
X4064000
X10160000Y1270000
X7874000Y1524000
X7620000Y2032000
X13843000Y1778000
X10922000Y1016000
X6604000
X11430000Y7112000
X9652000Y7366000
X9398000Y7620000
X9144000Y7874000
X8890000Y8128000
X8636000Y8382000
X8382000Y8636000
X5334000Y8890000
X8128000
X5588000Y9144000
X7874000
X5842000Y9398000
X6096000Y9652000
X6350000Y9906000
X6604000Y10160000
X6858000Y10414000
X7112000Y10668000
X3810000Y11684000
X7620000Y12446000
X7366000Y12700000
X5334000Y12954000
X5588000Y13208000
X5842000Y13462000
X6096000Y13716000
X6350000Y13970000
X6604000Y14224000
X6858000Y14478000
X1016000Y13208000
Y9144000
X5080000Y889000
X3683000Y2540000
X1778000Y6858000
Y5969000
X14605000Y3302000
X13843000Y6604000
X7620000
X7874000Y3937000
X10922000Y3175000
X11430000
X12446000
Y3556000
X5969000Y5334000
X13462000Y7112000
X5842000Y6604000
X3556000
X2540000
X7366000Y10160000
X7620000Y10414000
X10668000Y9779000
X14605000Y8382000
X12700000Y6096000
Y9398000
X11684000Y4064000
X10414000Y3810000
X13208000Y4064000
X9906000Y11176000
X11049000
X12954000
X13462000Y11684000
X15875000
X8890000Y10668000
Y13970000
X9906000
X10922000
X11938000
X9906000Y6350000
X9398000Y8890000
X8890000Y9779000
X8763000Y8890000
X8128000Y9779000
Y10668000
X7874000Y13970000
X7112000Y14732000
X4572000Y11684000
X7493000Y3937000
X11303000Y7493000
X10922000
X10541000
X11557000Y8636000
X12319000
X11938000
X8890000Y1270000
X9652000Y2286000
X8382000
X2540000Y7112000
X8128000Y1778000
X1778000Y2032000
X4572000Y7747000
Y4191000
M30
