G04 Generated by Ultiboard 14.3 *
%FSLAX25Y25*%
%MOIN*%

%ADD10C,0.00001*%
%ADD11C,0.00005*%
%ADD12C,0.00500*%


G04 ColorRGB 00FFFF for the following layer *
%LNBoard Outline*%
%LPD*%
G54D10*
G54D11*
X3Y0D02*
X500003Y0D01*
X500003Y200000D01*
X3Y200000D01*
X3Y0D01*
X3Y0D02*
X500003Y0D01*
X500003Y200000D01*
X3Y200000D01*
X3Y0D01*
G54D12*
X-997Y-1000D02*
X-997Y19200D01*
X-997Y-1000D02*
X49203Y-1000D01*
X501003Y-1000D02*
X450803Y-1000D01*
X501003Y-1000D02*
X501003Y19200D01*
X501003Y201000D02*
X501003Y180800D01*
X501003Y201000D02*
X450803Y201000D01*
X-997Y201000D02*
X49203Y201000D01*
X-997Y201000D02*
X-997Y180800D01*
X-20683Y-1000D02*
X-60053Y-1000D01*
X-40368Y-20685D02*
X-40368Y18685D01*
X-55131Y-1000D02*
G75*
D01*
G02X-55131Y-1000I14763J0*
G01*
X520688Y-1000D02*
X560058Y-1000D01*
X540373Y-20685D02*
X540373Y18685D01*
X525609Y-1000D02*
G75*
D01*
G02X525609Y-1000I14764J0*
G01*
X535451Y-1000D02*
G75*
D01*
G02X535451Y-1000I4922J0*
G01*
X-20683Y201000D02*
X-60053Y201000D01*
X-40368Y181315D02*
X-40368Y220685D01*
X-55131Y201000D02*
G75*
D01*
G02X-55131Y201000I14763J0*
G01*
X-50210Y201000D02*
G75*
D01*
G02X-50210Y201000I9842J0*
G01*
X-45289Y201000D02*
G75*
D01*
G02X-45289Y201000I4921J0*
G01*
X-997Y-1000D02*
X-997Y19200D01*
X-997Y-1000D02*
X49203Y-1000D01*
X501003Y-1000D02*
X450803Y-1000D01*
X501003Y-1000D02*
X501003Y19200D01*
X501003Y201000D02*
X501003Y180800D01*
X501003Y201000D02*
X450803Y201000D01*
X-997Y201000D02*
X49203Y201000D01*
X-997Y201000D02*
X-997Y180800D01*
X-20683Y-1000D02*
X-60053Y-1000D01*
X-40368Y-20685D02*
X-40368Y18685D01*
X-55131Y-1000D02*
G75*
D01*
G02X-55131Y-1000I14763J0*
G01*
X520688Y-1000D02*
X560058Y-1000D01*
X540373Y-20685D02*
X540373Y18685D01*
X525609Y-1000D02*
G75*
D01*
G02X525609Y-1000I14764J0*
G01*
X535451Y-1000D02*
G75*
D01*
G02X535451Y-1000I4922J0*
G01*
X-20683Y201000D02*
X-60053Y201000D01*
X-40368Y181315D02*
X-40368Y220685D01*
X-55131Y201000D02*
G75*
D01*
G02X-55131Y201000I14763J0*
G01*
X-50210Y201000D02*
G75*
D01*
G02X-50210Y201000I9842J0*
G01*
X-45289Y201000D02*
G75*
D01*
G02X-45289Y201000I4921J0*
G01*

M02*
