G04 Generated by Ultiboard 14.3 *
%FSLAX25Y25*%
%MOIN*%

%ADD10C,0.00001*%
%ADD11C,0.00004*%
%ADD12C,0.03000*%
%ADD13C,0.00500*%
%ADD14C,0.00005*%
%ADD15C,0.03917*%
%ADD16C,0.04000*%
%ADD17C,0.07500*%
%ADD18C,0.07200*%
%ADD19R,0.07200X0.07200*%


G04 ColorRGB 00FF00 for the following layer *
%LNCopper Top*%
%LPD*%
G54D10*
G54D11*
G36*
X16250Y178209D02*
X16250Y181792D01*
X23750Y181792D01*
X23750Y178209D01*
X16250Y178209D01*
G37*
G36*
X18209Y176250D02*
X18209Y183750D01*
X21792Y183750D01*
X21792Y176250D01*
X18209Y176250D01*
G37*
G36*
X76400Y53400D02*
X76400Y56600D01*
X83600Y56600D01*
X83600Y53400D01*
X76400Y53400D01*
G37*
G36*
X78400Y51400D02*
X78400Y58600D01*
X81600Y58600D01*
X81600Y51400D01*
X78400Y51400D01*
G37*
G54D12*
X175000Y175000D02*
X200000Y150000D01*
X132500Y175000D02*
X175000Y175000D01*
X132500Y175000D02*
X105000Y147500D01*
X105000Y130000D01*
X290000Y134033D02*
X275967Y120000D01*
X135000Y120000D02*
X275967Y120000D01*
X135000Y120000D02*
X125000Y130000D01*
X440000Y155000D02*
X425000Y170000D01*
X410000Y170000D01*
X350000Y110000D01*
X130000Y110000D02*
X350000Y110000D01*
X130000Y110000D02*
X115000Y125000D01*
X115000Y137500D02*
X115000Y125000D01*
X115000Y137500D02*
X122500Y145000D01*
X138750Y145000D01*
X145000Y138750D01*
X145000Y130000D01*
X90000Y165000D02*
X90000Y110000D01*
X105000Y95000D01*
X105000Y55000D02*
X105000Y95000D01*
G54D13*
X-997Y-1000D02*
X-997Y19200D01*
X-997Y-1000D02*
X49203Y-1000D01*
X501003Y-1000D02*
X450803Y-1000D01*
X501003Y-1000D02*
X501003Y19200D01*
X501003Y201000D02*
X501003Y180800D01*
X501003Y201000D02*
X450803Y201000D01*
X-997Y201000D02*
X49203Y201000D01*
X-997Y201000D02*
X-997Y180800D01*
X-20683Y-1000D02*
X-60053Y-1000D01*
X-40368Y-20685D02*
X-40368Y18685D01*
X-55131Y-1000D02*
G75*
D01*
G02X-55131Y-1000I14763J0*
G01*
X520688Y-1000D02*
X560058Y-1000D01*
X540373Y-20685D02*
X540373Y18685D01*
X525609Y-1000D02*
G75*
D01*
G02X525609Y-1000I14764J0*
G01*
X535451Y-1000D02*
G75*
D01*
G02X535451Y-1000I4922J0*
G01*
X-20683Y201000D02*
X-60053Y201000D01*
X-40368Y181315D02*
X-40368Y220685D01*
X-55131Y201000D02*
G75*
D01*
G02X-55131Y201000I14763J0*
G01*
X-50210Y201000D02*
G75*
D01*
G02X-50210Y201000I9842J0*
G01*
X-45289Y201000D02*
G75*
D01*
G02X-45289Y201000I4921J0*
G01*
X-997Y-1000D02*
X-997Y19200D01*
X-997Y-1000D02*
X49203Y-1000D01*
X501003Y-1000D02*
X450803Y-1000D01*
X501003Y-1000D02*
X501003Y19200D01*
X501003Y201000D02*
X501003Y180800D01*
X501003Y201000D02*
X450803Y201000D01*
X-997Y201000D02*
X49203Y201000D01*
X-997Y201000D02*
X-997Y180800D01*
X-20683Y-1000D02*
X-60053Y-1000D01*
X-40368Y-20685D02*
X-40368Y18685D01*
X-55131Y-1000D02*
G75*
D01*
G02X-55131Y-1000I14763J0*
G01*
X520688Y-1000D02*
X560058Y-1000D01*
X540373Y-20685D02*
X540373Y18685D01*
X525609Y-1000D02*
G75*
D01*
G02X525609Y-1000I14764J0*
G01*
X535451Y-1000D02*
G75*
D01*
G02X535451Y-1000I4922J0*
G01*
X-20683Y201000D02*
X-60053Y201000D01*
X-40368Y181315D02*
X-40368Y220685D01*
X-55131Y201000D02*
G75*
D01*
G02X-55131Y201000I14763J0*
G01*
X-50210Y201000D02*
G75*
D01*
G02X-50210Y201000I9842J0*
G01*
X-45289Y201000D02*
G75*
D01*
G02X-45289Y201000I4921J0*
G01*
G54D14*
X3Y0D02*
X500003Y0D01*
X500003Y200000D01*
X3Y200000D01*
X3Y0D01*
G54D15*
X18209Y181792D03*
X21792Y181792D03*
X18209Y178209D03*
X21792Y178209D03*
G54D16*
X78400Y56600D03*
X81600Y56600D03*
X78400Y53400D03*
X81600Y53400D03*
G54D17*
X30000Y180000D03*
X90000Y180000D03*
X60000Y180000D03*
X40000Y180000D03*
X50000Y180000D03*
X70000Y180000D03*
X80000Y180000D03*
X100000Y180000D03*
G54D18*
X105000Y130000D03*
X145000Y130000D03*
X125000Y130000D03*
X90000Y165000D03*
X105000Y55000D03*
X440000Y180000D03*
X290000Y180000D03*
X200000Y180000D03*
X40000Y20000D03*
X40000Y60000D03*
X62333Y29333D03*
X80000Y29333D03*
X62333Y55000D03*
X40000Y85000D03*
X40000Y125000D03*
X60000Y85000D03*
X60000Y125000D03*
X80000Y85000D03*
X80000Y125000D03*
X200000Y29033D03*
X180000Y79033D03*
X200000Y79033D03*
X290000Y29033D03*
X270000Y79033D03*
X290000Y79033D03*
X440000Y29033D03*
X420000Y79033D03*
X440000Y79033D03*
X180000Y94033D03*
X180000Y134033D03*
X200000Y134033D03*
X200000Y94033D03*
X270000Y94033D03*
X270000Y134033D03*
X290000Y134033D03*
X290000Y94033D03*
X420000Y94033D03*
X420000Y134033D03*
X440000Y134033D03*
X440000Y94033D03*
X200000Y150000D03*
X180000Y150000D03*
X290000Y149033D03*
X270000Y149033D03*
X440000Y150000D03*
X420000Y150000D03*
G54D19*
X430000Y180000D03*
X280000Y180000D03*
X190000Y180000D03*
X180000Y29033D03*
X270000Y29033D03*
X420000Y29033D03*

M02*
