M48
INCH,TZ
VER,1
FMAT,2
DETECT,ON
ATC,ON
T1C0.04724
T2C0.03150
%
T1
X30000Y180000
X90000
X20000
X60000
X40000
X50000
X70000
X80000
X100000
X180000Y29033
X200000
X180000Y79033
X200000
X270000Y29033
X290000
X270000Y79033
X290000
X420000Y29033
X440000
X420000Y79033
X440000
T2
X105000Y130000
X145000
X125000
X90000Y165000
X105000Y55000
X440000Y180000
X430000
X290000
X280000
X200000
X190000
X40000Y20000
Y60000
X62333Y29333
X80000
Y55000
X62333
X40000Y85000
Y125000
X60000Y85000
Y125000
X80000Y85000
Y125000
X180000Y94033
Y134033
X200000
Y94033
X270000
Y134033
X290000
Y94033
X420000
Y134033
X440000
Y94033
X200000Y150000
X180000
X290000Y149033
X270000
X440000Y150000
X420000
M30
