G04 Generated by Ultiboard 14.3 *
%FSLAX25Y25*%
%MOIN*%

%ADD10C,0.00001*%
%ADD11C,0.00004*%
%ADD12C,0.03000*%
%ADD13C,0.04000*%
%ADD14C,0.00500*%
%ADD15C,0.00005*%
%ADD16C,0.03917*%
%ADD17C,0.04000*%
%ADD18C,0.07500*%
%ADD19C,0.07200*%
%ADD20R,0.07200X0.07200*%


G04 ColorRGB 0000FF for the following layer *
%LNCopper Bottom*%
%LPD*%
G54D10*
G54D11*
G36*
X16250Y178209D02*
X16250Y181792D01*
X23750Y181792D01*
X23750Y178209D01*
X16250Y178209D01*
G37*
G36*
X18209Y176250D02*
X18209Y183750D01*
X21792Y183750D01*
X21792Y176250D01*
X18209Y176250D01*
G37*
G36*
X76400Y53400D02*
X76400Y56600D01*
X83600Y56600D01*
X83600Y53400D01*
X76400Y53400D01*
G37*
G36*
X78400Y51400D02*
X78400Y58600D01*
X81600Y58600D01*
X81600Y51400D01*
X78400Y51400D01*
G37*
G54D12*
X80000Y125000D02*
X75000Y125000D01*
X65000Y135000D01*
X60000Y135000D01*
X50000Y145000D02*
X60000Y135000D01*
X50000Y160000D02*
X50000Y145000D01*
X200000Y150000D02*
X200000Y134033D01*
X105000Y130000D02*
X100000Y135000D01*
X75000Y135000D01*
X60000Y150000D02*
X75000Y135000D01*
X60000Y180000D02*
X60000Y150000D01*
X290000Y149517D02*
X290000Y134033D01*
X125000Y140000D02*
X125000Y130000D01*
X120000Y145000D02*
X125000Y140000D01*
X120000Y145000D02*
X77500Y145000D01*
X70000Y152500D02*
X77500Y145000D01*
X70000Y152500D02*
X70000Y180000D01*
X440000Y150000D02*
X440000Y134033D01*
X145000Y147500D02*
X145000Y130000D01*
X137500Y155000D02*
X145000Y147500D01*
X137500Y155000D02*
X85000Y155000D01*
X80000Y160000D02*
X85000Y155000D01*
X80000Y180000D02*
X80000Y160000D01*
X52500Y125000D02*
X60000Y125000D01*
X52500Y125000D02*
X40000Y137500D01*
X40000Y180000D01*
X50000Y160757D02*
X50000Y180000D01*
X35000Y125000D02*
X40000Y125000D01*
X30000Y130000D02*
X35000Y125000D01*
X30000Y180000D02*
X30000Y130000D01*
X80000Y85000D02*
X100000Y65000D01*
X295000Y65000D01*
X410000Y180000D02*
X295000Y65000D01*
X410000Y180000D02*
X430000Y180000D01*
X290000Y94517D02*
X290000Y80000D01*
X270967Y95000D02*
X289517Y95000D01*
X270000Y94033D02*
X270967Y95000D01*
X200000Y94517D02*
X200000Y80000D01*
X180967Y95000D02*
X199517Y95000D01*
X180000Y94033D02*
X180967Y95000D01*
X440000Y94517D02*
X440000Y80000D01*
X420967Y95000D02*
X439517Y95000D01*
X420000Y94033D02*
X420967Y95000D01*
X90000Y180000D02*
X90000Y165000D01*
X105000Y55000D02*
X95000Y55000D01*
X80000Y55000D01*
X80000Y60000D02*
X80000Y55000D01*
X75000Y65000D02*
X80000Y60000D01*
X45000Y65000D02*
X75000Y65000D01*
X40000Y60000D02*
X45000Y65000D01*
X40000Y97500D02*
X40000Y85000D01*
X52500Y110000D02*
X40000Y97500D01*
X52500Y110000D02*
X140000Y110000D01*
X165000Y135000D02*
X140000Y110000D01*
X165000Y135000D02*
X165000Y170000D01*
X175000Y180000D02*
X165000Y170000D01*
X175000Y180000D02*
X190000Y180000D01*
X60000Y92500D02*
X60000Y85000D01*
X60000Y92500D02*
X69500Y102000D01*
X147500Y102000D01*
X155500Y110000D01*
X155000Y110000D01*
X160000Y115000D01*
X217500Y115000D01*
X235000Y132500D01*
X235000Y162500D01*
X252500Y180000D01*
X280000Y180000D01*
G54D13*
X180000Y11172D02*
X180000Y29033D01*
X41172Y10000D02*
X180000Y10000D01*
X181172Y10000D02*
X180000Y11172D01*
X181172Y10000D02*
X410483Y10000D01*
X32500Y10000D02*
X40000Y10000D01*
X41172Y10000D02*
X40000Y11172D01*
X40000Y20000D01*
X270000Y10000D02*
X270000Y29033D01*
X410483Y10000D02*
X420000Y19517D01*
X10000Y32500D02*
X32500Y10000D01*
X420000Y19517D02*
X420000Y29517D01*
X10000Y170000D02*
X10000Y32500D01*
X20000Y180000D02*
X10000Y170000D01*
X200000Y170000D02*
X200000Y190000D01*
X195000Y165000D02*
X200000Y170000D01*
X110000Y190000D02*
X475000Y190000D01*
X185000Y165000D02*
X195000Y165000D01*
X100000Y180000D02*
X110000Y190000D01*
X290000Y170000D02*
X290000Y190000D01*
X440000Y170000D02*
X440000Y190000D01*
X475000Y190000D02*
X490000Y175000D01*
X180000Y160000D02*
X185000Y165000D01*
X285000Y165000D02*
X290000Y170000D01*
X435000Y165000D02*
X440000Y170000D01*
X490000Y69758D02*
X490000Y175000D01*
X180000Y134033D02*
X180000Y160000D01*
X273992Y165000D02*
X285000Y165000D01*
X423750Y165000D02*
X435000Y165000D01*
X460242Y40000D02*
X490000Y69758D01*
X270000Y161008D02*
X273992Y165000D01*
X420000Y161250D02*
X423750Y165000D01*
X170000Y40000D02*
X460000Y40000D01*
X270000Y134033D02*
X270000Y161008D01*
X420000Y134033D02*
X420000Y161250D01*
X150000Y20000D02*
X170000Y40000D01*
X71667Y20000D02*
X150000Y20000D01*
X62333Y29333D02*
X71667Y20000D01*
G54D14*
X-997Y-1000D02*
X-997Y19200D01*
X-997Y-1000D02*
X49203Y-1000D01*
X501003Y-1000D02*
X450803Y-1000D01*
X501003Y-1000D02*
X501003Y19200D01*
X501003Y201000D02*
X501003Y180800D01*
X501003Y201000D02*
X450803Y201000D01*
X-997Y201000D02*
X49203Y201000D01*
X-997Y201000D02*
X-997Y180800D01*
X-20683Y-1000D02*
X-60053Y-1000D01*
X-40368Y-20685D02*
X-40368Y18685D01*
X-55131Y-1000D02*
G75*
D01*
G02X-55131Y-1000I14763J0*
G01*
X520688Y-1000D02*
X560058Y-1000D01*
X540373Y-20685D02*
X540373Y18685D01*
X525609Y-1000D02*
G75*
D01*
G02X525609Y-1000I14764J0*
G01*
X535451Y-1000D02*
G75*
D01*
G02X535451Y-1000I4922J0*
G01*
X-20683Y201000D02*
X-60053Y201000D01*
X-40368Y181315D02*
X-40368Y220685D01*
X-55131Y201000D02*
G75*
D01*
G02X-55131Y201000I14763J0*
G01*
X-50210Y201000D02*
G75*
D01*
G02X-50210Y201000I9842J0*
G01*
X-45289Y201000D02*
G75*
D01*
G02X-45289Y201000I4921J0*
G01*
X-997Y-1000D02*
X-997Y19200D01*
X-997Y-1000D02*
X49203Y-1000D01*
X501003Y-1000D02*
X450803Y-1000D01*
X501003Y-1000D02*
X501003Y19200D01*
X501003Y201000D02*
X501003Y180800D01*
X501003Y201000D02*
X450803Y201000D01*
X-997Y201000D02*
X49203Y201000D01*
X-997Y201000D02*
X-997Y180800D01*
X-20683Y-1000D02*
X-60053Y-1000D01*
X-40368Y-20685D02*
X-40368Y18685D01*
X-55131Y-1000D02*
G75*
D01*
G02X-55131Y-1000I14763J0*
G01*
X520688Y-1000D02*
X560058Y-1000D01*
X540373Y-20685D02*
X540373Y18685D01*
X525609Y-1000D02*
G75*
D01*
G02X525609Y-1000I14764J0*
G01*
X535451Y-1000D02*
G75*
D01*
G02X535451Y-1000I4922J0*
G01*
X-20683Y201000D02*
X-60053Y201000D01*
X-40368Y181315D02*
X-40368Y220685D01*
X-55131Y201000D02*
G75*
D01*
G02X-55131Y201000I14763J0*
G01*
X-50210Y201000D02*
G75*
D01*
G02X-50210Y201000I9842J0*
G01*
X-45289Y201000D02*
G75*
D01*
G02X-45289Y201000I4921J0*
G01*
G54D15*
X3Y0D02*
X500003Y0D01*
X500003Y200000D01*
X3Y200000D01*
X3Y0D01*
G54D16*
X18209Y181792D03*
X21792Y181792D03*
X18209Y178209D03*
X21792Y178209D03*
G54D17*
X78400Y56600D03*
X81600Y56600D03*
X78400Y53400D03*
X81600Y53400D03*
G54D18*
X30000Y180000D03*
X90000Y180000D03*
X60000Y180000D03*
X40000Y180000D03*
X50000Y180000D03*
X70000Y180000D03*
X80000Y180000D03*
X100000Y180000D03*
G54D19*
X105000Y130000D03*
X145000Y130000D03*
X125000Y130000D03*
X90000Y165000D03*
X105000Y55000D03*
X440000Y180000D03*
X290000Y180000D03*
X200000Y180000D03*
X40000Y20000D03*
X40000Y60000D03*
X62333Y29333D03*
X80000Y29333D03*
X62333Y55000D03*
X40000Y85000D03*
X40000Y125000D03*
X60000Y85000D03*
X60000Y125000D03*
X80000Y85000D03*
X80000Y125000D03*
X200000Y29033D03*
X180000Y79033D03*
X200000Y79033D03*
X290000Y29033D03*
X270000Y79033D03*
X290000Y79033D03*
X440000Y29033D03*
X420000Y79033D03*
X440000Y79033D03*
X180000Y94033D03*
X180000Y134033D03*
X200000Y134033D03*
X200000Y94033D03*
X270000Y94033D03*
X270000Y134033D03*
X290000Y134033D03*
X290000Y94033D03*
X420000Y94033D03*
X420000Y134033D03*
X440000Y134033D03*
X440000Y94033D03*
X200000Y150000D03*
X180000Y150000D03*
X290000Y149033D03*
X270000Y149033D03*
X440000Y150000D03*
X420000Y150000D03*
G54D20*
X430000Y180000D03*
X280000Y180000D03*
X190000Y180000D03*
X180000Y29033D03*
X270000Y29033D03*
X420000Y29033D03*

M02*
